Cutive-Mono-Bold Condensed_ik.ufo
<glyph name="exclam" format="1">
  <advance width="508"/>
  <unicode hex="0021"/>
  <outline>
    <contour>
      <point x="254" y="344" type="curve" smooth="yes"/>
      <point x="277" y="344"/>
      <point x="296" y="363"/>
      <point x="296" y="386" type="curve" smooth="yes"/>
      <point x="296" y="630"/>
      <point x="346" y="855"/>
      <point x="346" y="1085" type="curve" smooth="yes"/>
      <point x="346" y="1151"/>
      <point x="309" y="1188"/>
      <point x="254" y="1188" type="curve" smooth="yes"/>
      <point x="201" y="1188"/>
      <point x="162" y="1151"/>
      <point x="162" y="1087" type="curve" smooth="yes"/>
      <point x="162" y="855"/>
      <point x="212" y="632"/>
      <point x="212" y="386" type="curve" smooth="yes"/>
      <point x="212" y="363"/>
      <point x="231" y="344"/>
    </contour>
    <contour>
      <point x="253" y="-9" type="curve" smooth="yes"/>
      <point x="321" y="-9"/>
      <point x="372" y="43"/>
      <point x="372" y="111" type="curve" smooth="yes"/>
      <point x="372" y="179"/>
      <point x="321" y="230"/>
      <point x="253" y="230" type="curve" smooth="yes"/>
      <point x="185" y="230"/>
      <point x="133" y="179"/>
      <point x="133" y="111" type="curve" smooth="yes"/>
      <point x="133" y="43"/>
      <point x="185" y="-9"/>
    </contour>
  </outline>
</glyph>
<glyph name="quotedbl" format="1">
  <advance width="574.0"/>
  <unicode hex="0022"/>
  <outline>
    <contour>
      <point x="392.0" y="701.0" type="curve" smooth="yes"/>
      <point x="408.0" y="701.0"/>
      <point x="431.0" y="713.0"/>
      <point x="433.0" y="738.0" type="curve"/>
      <point x="467.0" y="1095.0" type="line"/>
      <point x="467.0" y="1147.0"/>
      <point x="428.0" y="1172.0"/>
      <point x="389.0" y="1172.0" type="curve" smooth="yes"/>
      <point x="352.0" y="1172.0"/>
      <point x="315.0" y="1148.0"/>
      <point x="315.0" y="1097.0" type="curve"/>
      <point x="350.0" y="738.0" type="line"/>
      <point x="353.0" y="713.0"/>
      <point x="375.0" y="701.0"/>
    </contour>
    <contour>
      <point x="184.0" y="701.0" type="curve" smooth="yes"/>
      <point x="201.0" y="701.0"/>
      <point x="222.0" y="713.0"/>
      <point x="225.0" y="738.0" type="curve"/>
      <point x="259.0" y="1095.0" type="line"/>
      <point x="259.0" y="1147.0"/>
      <point x="220.0" y="1172.0"/>
      <point x="181.0" y="1172.0" type="curve" smooth="yes"/>
      <point x="144.0" y="1172.0"/>
      <point x="107.0" y="1148.0"/>
      <point x="107.0" y="1097.0" type="curve"/>
      <point x="142.0" y="738.0" type="line"/>
      <point x="144.0" y="713.0"/>
      <point x="168.0" y="701.0"/>
    </contour>
  </outline>
</glyph>
<glyph name="numbersign" format="1">
  <advance width="881"/>
  <unicode hex="0023"/>
  <outline>
    <contour>
      <point x="132" y="-123" type="curve" smooth="yes"/>
      <point x="149" y="-123"/>
      <point x="164" y="-114"/>
      <point x="169" y="-94" type="curve" smooth="yes"/>
      <point x="279" y="385" type="line"/>
      <point x="511" y="385" type="line"/>
      <point x="403" y="-94" type="line"/>
      <point x="403" y="-112"/>
      <point x="419" y="-123"/>
      <point x="436" y="-123" type="curve" smooth="yes"/>
      <point x="452" y="-123"/>
      <point x="468" y="-114"/>
      <point x="473" y="-94" type="curve" smooth="yes"/>
      <point x="582" y="385" type="line"/>
      <point x="740" y="385" type="line" smooth="yes"/>
      <point x="759" y="385"/>
      <point x="768" y="407"/>
      <point x="768" y="428" type="curve" smooth="yes"/>
      <point x="768" y="448"/>
      <point x="759" y="470"/>
      <point x="740" y="470" type="curve" smooth="yes"/>
      <point x="601" y="470" type="line"/>
      <point x="652" y="689" type="line"/>
      <point x="779" y="689" type="line" smooth="yes"/>
      <point x="797" y="689"/>
      <point x="806" y="711"/>
      <point x="806" y="731" type="curve" smooth="yes"/>
      <point x="806" y="751"/>
      <point x="797" y="774"/>
      <point x="778" y="774" type="curve" smooth="yes"/>
      <point x="671" y="774" type="line"/>
      <point x="785" y="1277" type="line"/>
      <point x="785" y="1296"/>
      <point x="766" y="1308"/>
      <point x="748" y="1308" type="curve" smooth="yes"/>
      <point x="733" y="1308"/>
      <point x="718" y="1300"/>
      <point x="714" y="1282" type="curve" smooth="yes"/>
      <point x="599" y="774" type="line"/>
      <point x="367" y="774" type="line"/>
      <point x="482" y="1277" type="line"/>
      <point x="482" y="1296"/>
      <point x="462" y="1308"/>
      <point x="445" y="1308" type="curve" smooth="yes"/>
      <point x="430" y="1308"/>
      <point x="415" y="1300"/>
      <point x="411" y="1282" type="curve" smooth="yes"/>
      <point x="295" y="774" type="line"/>
      <point x="140" y="774" type="line" smooth="yes"/>
      <point x="122" y="774"/>
      <point x="112" y="753"/>
      <point x="112" y="732" type="curve" smooth="yes"/>
      <point x="112" y="710"/>
      <point x="122" y="689"/>
      <point x="140" y="689" type="curve" smooth="yes"/>
      <point x="276" y="689" type="line"/>
      <point x="226" y="470" type="line"/>
      <point x="102" y="470" type="line" smooth="yes"/>
      <point x="84" y="470"/>
      <point x="74" y="449"/>
      <point x="74" y="428" type="curve" smooth="yes"/>
      <point x="74" y="406"/>
      <point x="84" y="385"/>
      <point x="102" y="385" type="curve" smooth="yes"/>
      <point x="207" y="385" type="line"/>
      <point x="99" y="-94" type="line"/>
      <point x="99" y="-112"/>
      <point x="116" y="-123"/>
    </contour>
    <contour>
      <point x="298" y="470" type="line"/>
      <point x="349" y="689" type="line"/>
      <point x="579" y="689" type="line"/>
      <point x="529" y="470" type="line"/>
    </contour>
  </outline>
</glyph>
<glyph name="dollar" format="1">
  <advance width="1028"/>
  <unicode hex="0024"/>
  <outline>
    <contour>
      <point x="577" y="-146" type="curve" smooth="yes"/>
      <point x="602" y="-146"/>
      <point x="623" y="-125"/>
      <point x="623" y="-100" type="curve" smooth="yes"/>
      <point x="623" y="1302" type="line" smooth="yes"/>
      <point x="623" y="1328"/>
      <point x="602" y="1349"/>
      <point x="577" y="1349" type="curve" smooth="yes"/>
      <point x="551" y="1349"/>
      <point x="530" y="1328"/>
      <point x="530" y="1302" type="curve" smooth="yes"/>
      <point x="530" y="-100" type="line" smooth="yes"/>
      <point x="530" y="-125"/>
      <point x="551" y="-146"/>
    </contour>
    <component base="S" xOffset="-11"/>
  </outline>
</glyph>
<glyph name="percent" format="1">
  <advance width="1206.0"/>
  <unicode hex="0025"/>
  <outline>
    <contour>
      <point x="275.0" y="-243.0" type="curve" smooth="yes"/>
      <point x="294.0" y="-243.0"/>
      <point x="309.0" y="-234.0"/>
      <point x="318.0" y="-216.0" type="curve"/>
      <point x="954.0" y="1134.0" type="line"/>
      <point x="957.0" y="1142.0"/>
      <point x="959.0" y="1149.0"/>
      <point x="959.0" y="1154.0" type="curve" smooth="yes"/>
      <point x="959.0" y="1180.0"/>
      <point x="936.0" y="1202.0"/>
      <point x="909.0" y="1202.0" type="curve" smooth="yes"/>
      <point x="890.0" y="1202.0"/>
      <point x="876.0" y="1193.0"/>
      <point x="866.0" y="1175.0" type="curve"/>
      <point x="757.0" y="1039.0"/>
      <point x="602.0" y="1013.0"/>
      <point x="357.0" y="1013.0" type="curve" smooth="yes"/>
      <point x="308.0" y="1013.0" type="line" smooth="yes"/>
      <point x="158.0" y="1013.0"/>
      <point x="57.0" y="838.0"/>
      <point x="57.0" y="687.0" type="curve" smooth="yes"/>
      <point x="57.0" y="587.0"/>
      <point x="102.0" y="490.0"/>
      <point x="202.0" y="490.0" type="curve" smooth="yes"/>
      <point x="351.0" y="490.0"/>
      <point x="453.0" y="660.0"/>
      <point x="453.0" y="814.0" type="curve" smooth="yes"/>
      <point x="453.0" y="861.0"/>
      <point x="438.0" y="901.0"/>
      <point x="415.0" y="928.0" type="curve"/>
      <point x="553.0" y="928.0"/>
      <point x="677.0" y="947.0"/>
      <point x="777.0" y="988.0" type="curve"/>
      <point x="230.0" y="-174.0" type="line"/>
      <point x="227.0" y="-180.0"/>
      <point x="226.0" y="-188.0"/>
      <point x="226.0" y="-195.0" type="curve" smooth="yes"/>
      <point x="226.0" y="-221.0"/>
      <point x="248.0" y="-243.0"/>
    </contour>
    <contour>
      <point x="223.0" y="591.0" type="curve" smooth="yes"/>
      <point x="172.0" y="591.0"/>
      <point x="148.0" y="645.0"/>
      <point x="148.0" y="701.0" type="curve" smooth="yes"/>
      <point x="148.0" y="791.0"/>
      <point x="199.0" y="913.0"/>
      <point x="287.0" y="913.0" type="curve" smooth="yes"/>
      <point x="339.0" y="913.0"/>
      <point x="362.0" y="856.0"/>
      <point x="362.0" y="800.0" type="curve" smooth="yes"/>
      <point x="362.0" y="709.0"/>
      <point x="309.0" y="591.0"/>
    </contour>
    <contour>
      <point x="886.0" y="-4.0" type="curve" smooth="yes"/>
      <point x="1035.0" y="-4.0"/>
      <point x="1137.0" y="166.0"/>
      <point x="1137.0" y="320.0" type="curve" smooth="yes"/>
      <point x="1137.0" y="421.0"/>
      <point x="1092.0" y="520.0"/>
      <point x="992.0" y="520.0" type="curve" smooth="yes"/>
      <point x="842.0" y="520.0"/>
      <point x="741.0" y="345.0"/>
      <point x="741.0" y="194.0" type="curve" smooth="yes"/>
      <point x="741.0" y="92.0"/>
      <point x="785.0" y="-4.0"/>
    </contour>
    <contour>
      <point x="907.0" y="97.0" type="curve" smooth="yes"/>
      <point x="855.0" y="97.0"/>
      <point x="832.0" y="151.0"/>
      <point x="832.0" y="207.0" type="curve" smooth="yes"/>
      <point x="832.0" y="297.0"/>
      <point x="883.0" y="418.0"/>
      <point x="971.0" y="418.0" type="curve" smooth="yes"/>
      <point x="1022.0" y="418.0"/>
      <point x="1046.0" y="362.0"/>
      <point x="1046.0" y="306.0" type="curve" smooth="yes"/>
      <point x="1046.0" y="216.0"/>
      <point x="993.0" y="97.0"/>
    </contour>
  </outline>
</glyph>
<glyph name="ampersand" format="1">
  <advance width="1154"/>
  <unicode hex="0026"/>
  <outline>
    <contour>
      <point x="1042" y="-34" type="curve" smooth="yes"/>
      <point x="1085" y="-34"/>
      <point x="1127" y="-11"/>
      <point x="1127" y="33" type="curve" smooth="yes"/>
      <point x="1127" y="92"/>
      <point x="1072" y="92"/>
      <point x="1033" y="111" type="curve" smooth="yes"/>
      <point x="957" y="148"/>
      <point x="895" y="193"/>
      <point x="847" y="230" type="curve"/>
      <point x="901" y="318"/>
      <point x="928" y="431"/>
      <point x="934" y="563" type="curve"/>
      <point x="1054" y="563" type="line" smooth="yes"/>
      <point x="1084" y="563"/>
      <point x="1103" y="590"/>
      <point x="1103" y="621" type="curve" smooth="yes"/>
      <point x="1103" y="656"/>
      <point x="1089" y="686"/>
      <point x="1054" y="686" type="curve" smooth="yes"/>
      <point x="735" y="686" type="line" smooth="yes"/>
      <point x="700" y="686"/>
      <point x="683" y="656"/>
      <point x="683" y="621" type="curve" smooth="yes"/>
      <point x="683" y="590"/>
      <point x="703" y="563"/>
      <point x="736" y="563" type="curve" smooth="yes"/>
      <point x="812" y="563" type="line"/>
      <point x="806" y="469"/>
      <point x="794" y="378"/>
      <point x="752" y="300" type="curve"/>
      <point x="624" y="405"/>
      <point x="525" y="545"/>
      <point x="454" y="642" type="curve"/>
      <point x="550" y="714"/>
      <point x="622" y="795"/>
      <point x="622" y="961" type="curve" smooth="yes"/>
      <point x="622" y="1115"/>
      <point x="533" y="1225"/>
      <point x="389" y="1225" type="curve" smooth="yes"/>
      <point x="254" y="1225"/>
      <point x="169" y="1117"/>
      <point x="169" y="964" type="curve" smooth="yes"/>
      <point x="169" y="851"/>
      <point x="229" y="745"/>
      <point x="276" y="657" type="curve"/>
      <point x="160" y="589"/>
      <point x="84" y="519"/>
      <point x="87" y="361" type="curve" smooth="yes"/>
      <point x="91" y="131"/>
      <point x="268" y="-16"/>
      <point x="449" y="-16" type="curve" smooth="yes"/>
      <point x="569" y="-16"/>
      <point x="677" y="48"/>
      <point x="752" y="124" type="curve"/>
      <point x="827" y="68"/>
      <point x="906" y="19"/>
      <point x="995" y="-24" type="curve"/>
      <point x="1009" y="-31"/>
      <point x="1023" y="-34"/>
    </contour>
    <contour>
      <point x="478" y="112" type="curve" smooth="yes"/>
      <point x="355" y="112"/>
      <point x="254" y="206"/>
      <point x="250" y="373" type="curve" smooth="yes"/>
      <point x="248" y="468"/>
      <point x="281" y="517"/>
      <point x="336" y="563" type="curve"/>
      <point x="438" y="424"/>
      <point x="527" y="300"/>
      <point x="657" y="193" type="curve"/>
      <point x="603" y="143"/>
      <point x="546" y="112"/>
    </contour>
    <contour>
      <point x="392" y="729" type="curve"/>
      <point x="351" y="803"/>
      <point x="323" y="887"/>
      <point x="323" y="973" type="curve" smooth="yes"/>
      <point x="323" y="1040"/>
      <point x="337" y="1106"/>
      <point x="400" y="1106" type="curve" smooth="yes"/>
      <point x="466" y="1106"/>
      <point x="491" y="1029"/>
      <point x="491" y="955" type="curve" smooth="yes"/>
      <point x="491" y="847"/>
      <point x="459" y="783"/>
    </contour>
  </outline>
</glyph>
<glyph name="quotesingle" format="1">
  <advance width="365"/>
  <unicode hex="0027"/>
  <outline>
    <contour>
      <point x="183" y="702" type="curve" smooth="yes"/>
      <point x="199" y="702"/>
      <point x="221" y="714"/>
      <point x="224" y="738" type="curve"/>
      <point x="257" y="1091" type="line"/>
      <point x="257" y="1141"/>
      <point x="218" y="1167"/>
      <point x="180" y="1167" type="curve" smooth="yes"/>
      <point x="144" y="1167"/>
      <point x="107" y="1143"/>
      <point x="107" y="1093" type="curve"/>
      <point x="142" y="738" type="line"/>
      <point x="144" y="714"/>
      <point x="167" y="702"/>
    </contour>
  </outline>
</glyph>
<glyph name="parenleft" format="1">
  <advance width="496.0"/>
  <unicode hex="0028"/>
  <outline>
    <contour>
      <point x="369.0" y="-144.0" type="curve" smooth="yes"/>
      <point x="396.0" y="-144.0"/>
      <point x="422.0" y="-122.0"/>
      <point x="422.0" y="-93.0" type="curve" smooth="yes"/>
      <point x="422.0" y="-75.0"/>
      <point x="414.0" y="-65.0"/>
      <point x="406.0" y="-54.0" type="curve" smooth="yes"/>
      <point x="302.0" y="86.0"/>
      <point x="210.0" y="314.0"/>
      <point x="210.0" y="570.0" type="curve" smooth="yes"/>
      <point x="210.0" y="821.0"/>
      <point x="298.0" y="1051.0"/>
      <point x="405.0" y="1192.0" type="curve" smooth="yes"/>
      <point x="418.0" y="1209.0"/>
      <point x="422.0" y="1220.0"/>
      <point x="422.0" y="1233.0" type="curve" smooth="yes"/>
      <point x="422.0" y="1263.0"/>
      <point x="396.0" y="1284.0"/>
      <point x="369.0" y="1284.0" type="curve" smooth="yes"/>
      <point x="324.0" y="1284.0"/>
      <point x="273.0" y="1229.0"/>
      <point x="248.0" y="1185.0" type="curve" smooth="yes"/>
      <point x="161.0" y="1032.0"/>
      <point x="92.0" y="810.0"/>
      <point x="92.0" y="570.0" type="curve" smooth="yes"/>
      <point x="92.0" y="296.0"/>
      <point x="183.0" y="15.0"/>
      <point x="319.0" y="-117.0" type="curve" smooth="yes"/>
      <point x="337.0" y="-134.0"/>
      <point x="354.0" y="-144.0"/>
    </contour>
  </outline>
</glyph>
<glyph name="asterisk" format="1">
  <advance width="880.0"/>
  <unicode hex="002A"/>
  <outline>
    <contour>
      <point x="380.0" y="899.0" type="curve" smooth="yes"/>
      <point x="413.0" y="899.0"/>
      <point x="432.0" y="935.0"/>
      <point x="419.0" y="968.0" type="curve" smooth="yes"/>
      <point x="340.0" y="1171.0" type="line" smooth="yes"/>
      <point x="334.0" y="1186.0"/>
      <point x="318.0" y="1195.0"/>
      <point x="299.0" y="1195.0" type="curve" smooth="yes"/>
      <point x="246.0" y="1195.0"/>
      <point x="202.0" y="1142.0"/>
      <point x="222.0" y="1099.0" type="curve"/>
      <point x="344.0" y="923.0" type="line" smooth="yes"/>
      <point x="355.0" y="907.0"/>
      <point x="368.0" y="899.0"/>
    </contour>
    <contour>
      <point x="297.0" y="470.0" type="curve" smooth="yes"/>
      <point x="315.0" y="470.0"/>
      <point x="329.0" y="479.0"/>
      <point x="338.0" y="495.0" type="curve"/>
      <point x="417.0" y="697.0" type="line" smooth="yes"/>
      <point x="431.0" y="732.0"/>
      <point x="411.0" y="764.0"/>
      <point x="378.0" y="764.0" type="curve" smooth="yes"/>
      <point x="359.0" y="764.0"/>
      <point x="350.0" y="757.0"/>
      <point x="340.0" y="742.0" type="curve" smooth="yes"/>
      <point x="220.0" y="566.0" type="line"/>
      <point x="201.0" y="522.0"/>
      <point x="243.0" y="470.0"/>
    </contour>
    <contour>
      <point x="117.0" y="760.0" type="curve"/>
      <point x="319.0" y="786.0" type="line"/>
      <point x="346.0" y="788.0"/>
      <point x="361.0" y="806.0"/>
      <point x="361.0" y="833.0" type="curve" smooth="yes"/>
      <point x="361.0" y="859.0"/>
      <point x="346.0" y="878.0"/>
      <point x="319.0" y="880.0" type="curve"/>
      <point x="117.0" y="906.0" type="line"/>
      <point x="85.0" y="906.0"/>
      <point x="67.0" y="868.0"/>
      <point x="67.0" y="833.0" type="curve" smooth="yes"/>
      <point x="67.0" y="797.0"/>
      <point x="85.0" y="760.0"/>
    </contour>
    <contour>
      <point x="582.0" y="470.0" type="curve" smooth="yes"/>
      <point x="638.0" y="470.0"/>
      <point x="679.0" y="522.0"/>
      <point x="660.0" y="566.0" type="curve"/>
      <point x="538.0" y="742.0" type="line" smooth="yes"/>
      <point x="527.0" y="758.0"/>
      <point x="519.0" y="764.0"/>
      <point x="502.0" y="764.0" type="curve" smooth="yes"/>
      <point x="469.0" y="764.0"/>
      <point x="448.0" y="732.0"/>
      <point x="462.0" y="697.0" type="curve" smooth="yes"/>
      <point x="541.0" y="495.0" type="line"/>
      <point x="550.0" y="479.0"/>
      <point x="564.0" y="470.0"/>
    </contour>
    <contour>
      <point x="763.0" y="760.0" type="line"/>
      <point x="796.0" y="760.0"/>
      <point x="813.0" y="797.0"/>
      <point x="813.0" y="833.0" type="curve" smooth="yes"/>
      <point x="813.0" y="868.0"/>
      <point x="796.0" y="906.0"/>
      <point x="763.0" y="906.0" type="curve"/>
      <point x="560.0" y="880.0" type="line"/>
      <point x="533.0" y="878.0"/>
      <point x="519.0" y="857.0"/>
      <point x="519.0" y="833.0" type="curve" smooth="yes"/>
      <point x="519.0" y="808.0"/>
      <point x="533.0" y="788.0"/>
      <point x="560.0" y="786.0" type="curve"/>
    </contour>
    <contour>
      <point x="499.0" y="899.0" type="curve" smooth="yes"/>
      <point x="512.0" y="899.0"/>
      <point x="524.0" y="906.0"/>
      <point x="536.0" y="923.0" type="curve" smooth="yes"/>
      <point x="658.0" y="1099.0" type="line"/>
      <point x="679.0" y="1142.0"/>
      <point x="631.0" y="1195.0"/>
      <point x="581.0" y="1195.0" type="curve" smooth="yes"/>
      <point x="560.0" y="1195.0"/>
      <point x="545.0" y="1186.0"/>
      <point x="539.0" y="1171.0" type="curve" smooth="yes"/>
      <point x="460.0" y="968.0" type="line" smooth="yes"/>
      <point x="447.0" y="935.0"/>
      <point x="466.0" y="899.0"/>
    </contour>
  </outline>
</glyph>
<glyph name="plus" format="1">
  <advance width="758"/>
  <unicode hex="002B"/>
  <outline>
    <contour>
      <point x="379" y="136" type="curve" smooth="yes"/>
      <point x="408" y="136"/>
      <point x="428" y="161"/>
      <point x="428" y="189" type="curve" smooth="yes"/>
      <point x="428" y="448" type="line"/>
      <point x="655" y="448" type="line" smooth="yes"/>
      <point x="679" y="448"/>
      <point x="703" y="471"/>
      <point x="703" y="498" type="curve" smooth="yes"/>
      <point x="703" y="525"/>
      <point x="679" y="548"/>
      <point x="655" y="548" type="curve" smooth="yes"/>
      <point x="428" y="548" type="line"/>
      <point x="428" y="811" type="line" smooth="yes"/>
      <point x="428" y="840"/>
      <point x="408" y="865"/>
      <point x="379" y="865" type="curve" smooth="yes"/>
      <point x="351" y="865"/>
      <point x="329" y="841"/>
      <point x="329" y="811" type="curve" smooth="yes"/>
      <point x="329" y="548" type="line"/>
      <point x="101" y="548" type="line" smooth="yes"/>
      <point x="79" y="548"/>
      <point x="55" y="525"/>
      <point x="55" y="498" type="curve" smooth="yes"/>
      <point x="55" y="471"/>
      <point x="79" y="448"/>
      <point x="101" y="448" type="curve" smooth="yes"/>
      <point x="329" y="448" type="line"/>
      <point x="329" y="189" type="line" smooth="yes"/>
      <point x="329" y="160"/>
      <point x="351" y="136"/>
    </contour>
  </outline>
</glyph>
<glyph name="comma" format="1">
  <advance width="439.0"/>
  <unicode hex="002C"/>
  <outline>
    <contour>
      <point x="209.0" y="207.0" type="curve" smooth="yes"/>
      <point x="275.0" y="207.0"/>
      <point x="332.0" y="159.0"/>
      <point x="332.0" y="66.0" type="curve" smooth="yes"/>
      <point x="332.0" y="-69.0"/>
      <point x="267.0" y="-149.0"/>
      <point x="179.0" y="-200.0" type="curve" smooth="yes"/>
      <point x="167.0" y="-207.0"/>
      <point x="155.0" y="-210.0"/>
      <point x="145.0" y="-210.0" type="curve" smooth="yes"/>
      <point x="117.0" y="-210.0"/>
      <point x="97.0" y="-189.0"/>
      <point x="97.0" y="-167.0" type="curve" smooth="yes"/>
      <point x="97.0" y="-156.0"/>
      <point x="103.0" y="-144.0"/>
      <point x="117.0" y="-134.0" type="curve" smooth="yes"/>
      <point x="162.0" y="-101.0"/>
      <point x="219.0" y="-60.0"/>
      <point x="219.0" y="13.0" type="curve"/>
      <point x="155.0" y="13.0"/>
      <point x="109.0" y="44.0"/>
      <point x="109.0" y="109.0" type="curve" smooth="yes"/>
      <point x="109.0" y="174.0"/>
      <point x="156.0" y="207.0"/>
    </contour>
  </outline>
</glyph>
<glyph name="hyphen" format="1">
  <advance width="843"/>
  <unicode hex="002D"/>
  <outline>
    <contour>
      <point x="190" y="417" type="curve" smooth="yes"/>
      <point x="655" y="417" type="line" smooth="yes"/>
      <point x="687" y="417"/>
      <point x="723" y="449"/>
      <point x="723" y="488" type="curve" smooth="yes"/>
      <point x="723" y="526"/>
      <point x="686" y="559"/>
      <point x="655" y="559" type="curve" smooth="yes"/>
      <point x="190" y="559" type="line" smooth="yes"/>
      <point x="157" y="559"/>
      <point x="120" y="526"/>
      <point x="120" y="488" type="curve" smooth="yes"/>
      <point x="120" y="449"/>
      <point x="156" y="417"/>
    </contour>
  </outline>
</glyph>
<glyph name="period" format="1">
  <advance width="483"/>
  <unicode hex="002E"/>
  <outline>
    <contour>
      <point x="241" y="-16" type="curve" smooth="yes"/>
      <point x="160" y="-16"/>
      <point x="100" y="45"/>
      <point x="100" y="128" type="curve" smooth="yes"/>
      <point x="100" y="211"/>
      <point x="160" y="272"/>
      <point x="241" y="272" type="curve" smooth="yes"/>
      <point x="323" y="272"/>
      <point x="383" y="211"/>
      <point x="383" y="128" type="curve" smooth="yes"/>
      <point x="383" y="45"/>
      <point x="323" y="-16"/>
    </contour>
  </outline>
</glyph>
<glyph name="slash" format="1">
  <advance width="769.0"/>
  <unicode hex="002F"/>
  <outline>
    <contour>
      <point x="117.0" y="-238.0" type="curve" smooth="yes"/>
      <point x="142.0" y="-238.0"/>
      <point x="150.0" y="-226.0"/>
      <point x="158.0" y="-208.0" type="curve" smooth="yes"/>
      <point x="712.0" y="1101.0" type="line" smooth="yes"/>
      <point x="715.0" y="1108.0"/>
      <point x="715.0" y="1113.0"/>
      <point x="715.0" y="1119.0" type="curve" smooth="yes"/>
      <point x="715.0" y="1151.0"/>
      <point x="678.0" y="1174.0"/>
      <point x="651.0" y="1174.0" type="curve" smooth="yes"/>
      <point x="633.0" y="1174.0"/>
      <point x="620.0" y="1166.0"/>
      <point x="614.0" y="1149.0" type="curve"/>
      <point x="56.0" y="-163.0" type="line" smooth="yes"/>
      <point x="53.0" y="-170.0"/>
      <point x="51.0" y="-176.0"/>
      <point x="51.0" y="-183.0" type="curve" smooth="yes"/>
      <point x="51.0" y="-213.0"/>
      <point x="89.0" y="-238.0"/>
    </contour>
  </outline>
</glyph>
<glyph name="zero" format="1">
  <advance width="974.0"/>
  <unicode hex="0030"/>
  <outline>
    <contour>
      <point x="487.0" y="-25.0" type="curve" smooth="yes"/>
      <point x="785.0" y="-25.0"/>
      <point x="872.0" y="292.0"/>
      <point x="872.0" y="597.0" type="curve" smooth="yes"/>
      <point x="872.0" y="902.0"/>
      <point x="785.0" y="1221.0"/>
      <point x="487.0" y="1221.0" type="curve" smooth="yes"/>
      <point x="189.0" y="1221.0"/>
      <point x="102.0" y="903.0"/>
      <point x="102.0" y="597.0" type="curve" smooth="yes"/>
      <point x="102.0" y="291.0"/>
      <point x="190.0" y="-25.0"/>
    </contour>
    <contour>
      <point x="487.0" y="92.0" type="curve" smooth="yes"/>
      <point x="288.0" y="92.0"/>
      <point x="256.0" y="384.0"/>
      <point x="256.0" y="597.0" type="curve" smooth="yes"/>
      <point x="256.0" y="801.0"/>
      <point x="294.0" y="1101.0"/>
      <point x="487.0" y="1101.0" type="curve" smooth="yes"/>
      <point x="682.0" y="1101.0"/>
      <point x="718.0" y="807.0"/>
      <point x="718.0" y="597.0" type="curve" smooth="yes"/>
      <point x="718.0" y="390.0"/>
      <point x="685.0" y="92.0"/>
    </contour>
  </outline>
</glyph>
<glyph name="one" format="1">
  <advance width="678"/>
  <unicode hex="0031"/>
  <outline>
    <contour>
      <point x="121" y="0" type="curve" smooth="yes"/>
      <point x="556" y="0" type="line" smooth="yes"/>
      <point x="588" y="0"/>
      <point x="607" y="28"/>
      <point x="607" y="56" type="curve" smooth="yes"/>
      <point x="607" y="91"/>
      <point x="592" y="119"/>
      <point x="558" y="119" type="curve" smooth="yes"/>
      <point x="436" y="119" type="line"/>
      <point x="436" y="1156" type="line" smooth="yes"/>
      <point x="436" y="1195"/>
      <point x="422" y="1202"/>
      <point x="390" y="1202" type="curve"/>
      <point x="313" y="1195"/>
      <point x="236" y="1188"/>
      <point x="159" y="1181" type="curve" smooth="yes"/>
      <point x="130" y="1178"/>
      <point x="114" y="1153"/>
      <point x="114" y="1121" type="curve" smooth="yes"/>
      <point x="114" y="1086"/>
      <point x="133" y="1060"/>
      <point x="171" y="1060" type="curve"/>
      <point x="209" y="1063"/>
      <point x="248" y="1066"/>
      <point x="286" y="1069" type="curve"/>
      <point x="286" y="119" type="line"/>
      <point x="118" y="119" type="line" smooth="yes"/>
      <point x="83" y="119"/>
      <point x="67" y="92"/>
      <point x="67" y="58" type="curve" smooth="yes"/>
      <point x="67" y="25"/>
      <point x="83" y="0"/>
    </contour>
  </outline>
</glyph>
<glyph name="two" format="1">
  <advance width="932"/>
  <unicode hex="0032"/>
  <outline>
    <contour>
      <point x="97" y="0" type="curve"/>
      <point x="742" y="0" type="line" smooth="yes"/>
      <point x="772" y="0"/>
      <point x="787" y="20"/>
      <point x="796" y="54" type="curve"/>
      <point x="857" y="289" type="line"/>
      <point x="857" y="323"/>
      <point x="836" y="343"/>
      <point x="806" y="343" type="curve" smooth="yes"/>
      <point x="769" y="343"/>
      <point x="748" y="318"/>
      <point x="734" y="288" type="curve"/>
      <point x="660" y="141" type="line"/>
      <point x="238" y="141" type="line"/>
      <point x="343" y="462"/>
      <point x="770" y="603"/>
      <point x="770" y="933" type="curve" smooth="yes"/>
      <point x="770" y="1124"/>
      <point x="636" y="1244"/>
      <point x="434" y="1242" type="curve" smooth="yes"/>
      <point x="248" y="1241"/>
      <point x="107" y="1161"/>
      <point x="107" y="1029" type="curve" smooth="yes"/>
      <point x="107" y="966"/>
      <point x="134" y="917"/>
      <point x="190" y="917" type="curve" smooth="yes"/>
      <point x="238" y="917"/>
      <point x="256" y="985"/>
      <point x="266" y="1102" type="curve"/>
      <point x="211" y="1025" type="line"/>
      <point x="254" y="1067"/>
      <point x="297" y="1101"/>
      <point x="398" y="1101" type="curve" smooth="yes"/>
      <point x="482" y="1101"/>
      <point x="590" y="1053"/>
      <point x="590" y="937" type="curve" smooth="yes"/>
      <point x="590" y="685"/>
      <point x="91" y="422"/>
      <point x="91" y="103" type="curve"/>
      <point x="98" y="5"/>
      <point x="95" y="30"/>
    </contour>
  </outline>
</glyph>
<glyph name="three" format="1">
  <advance width="858.0"/>
  <unicode hex="0033"/>
  <outline>
    <contour>
      <point x="367.0" y="-17.0" type="curve" smooth="yes"/>
      <point x="593.0" y="-17.0"/>
      <point x="766.0" y="152.0"/>
      <point x="766.0" y="392.0" type="curve" smooth="yes"/>
      <point x="766.0" y="590.0"/>
      <point x="652.0" y="690.0"/>
      <point x="484.0" y="702.0" type="curve"/>
      <point x="613.0" y="775.0"/>
      <point x="700.0" y="825.0"/>
      <point x="700.0" y="993.0" type="curve" smooth="yes"/>
      <point x="700.0" y="1151.0"/>
      <point x="580.0" y="1240.0"/>
      <point x="431.0" y="1240.0" type="curve" smooth="yes"/>
      <point x="328.0" y="1240.0"/>
      <point x="122.0" y="1161.0"/>
      <point x="122.0" y="1056.0" type="curve" smooth="yes"/>
      <point x="122.0" y="1027.0"/>
      <point x="147.0" y="1006.0"/>
      <point x="173.0" y="1006.0" type="curve" smooth="yes"/>
      <point x="211.0" y="1006.0"/>
      <point x="328.0" y="1111.0"/>
      <point x="429.0" y="1111.0" type="curve" smooth="yes"/>
      <point x="490.0" y="1111.0"/>
      <point x="555.0" y="1053.0"/>
      <point x="555.0" y="974.0" type="curve" smooth="yes"/>
      <point x="555.0" y="827.0"/>
      <point x="353.0" y="769.0"/>
      <point x="299.0" y="703.0" type="curve" smooth="yes"/>
      <point x="287.0" y="688.0"/>
      <point x="280.0" y="678.0"/>
      <point x="280.0" y="665.0" type="curve" smooth="yes"/>
      <point x="280.0" y="625.0"/>
      <point x="307.0" y="600.0"/>
      <point x="344.0" y="600.0" type="curve" smooth="yes"/>
      <point x="380.0" y="600.0"/>
      <point x="395.0" y="609.0"/>
      <point x="426.0" y="609.0" type="curve" smooth="yes"/>
      <point x="531.0" y="609.0"/>
      <point x="593.0" y="523.0"/>
      <point x="593.0" y="398.0" type="curve" smooth="yes"/>
      <point x="593.0" y="238.0"/>
      <point x="499.0" y="114.0"/>
      <point x="362.0" y="114.0" type="curve" smooth="yes"/>
      <point x="262.0" y="114.0"/>
      <point x="159.0" y="176.0"/>
      <point x="117.0" y="176.0" type="curve" smooth="yes"/>
      <point x="83.0" y="176.0"/>
      <point x="57.0" y="155.0"/>
      <point x="57.0" y="122.0" type="curve" smooth="yes"/>
      <point x="57.0" y="18.0"/>
      <point x="273.0" y="-17.0"/>
    </contour>
  </outline>
</glyph>
<glyph name="four" format="1">
  <advance width="953.0"/>
  <unicode hex="0034"/>
  <outline>
    <contour>
      <point x="375.0" y="0.0" type="curve" smooth="yes"/>
      <point x="806.0" y="0.0" type="line" smooth="yes"/>
      <point x="839.0" y="0.0"/>
      <point x="858.0" y="30.0"/>
      <point x="858.0" y="58.0" type="curve" smooth="yes"/>
      <point x="858.0" y="92.0"/>
      <point x="844.0" y="120.0"/>
      <point x="808.0" y="120.0" type="curve" smooth="yes"/>
      <point x="659.0" y="120.0" type="line"/>
      <point x="659.0" y="371.0" type="line"/>
      <point x="847.0" y="371.0" type="line" smooth="yes"/>
      <point x="873.0" y="371.0"/>
      <point x="890.0" y="397.0"/>
      <point x="890.0" y="422.0" type="curve" smooth="yes"/>
      <point x="890.0" y="452.0"/>
      <point x="879.0" y="477.0"/>
      <point x="849.0" y="477.0" type="curve" smooth="yes"/>
      <point x="659.0" y="477.0" type="line"/>
      <point x="659.0" y="1134.0" type="line" smooth="yes"/>
      <point x="659.0" y="1163.0"/>
      <point x="662.0" y="1192.0"/>
      <point x="635.0" y="1192.0" type="curve" smooth="yes"/>
      <point x="624.0" y="1192.0"/>
      <point x="593.0" y="1183.0"/>
      <point x="578.0" y="1164.0" type="curve" smooth="yes"/>
      <point x="45.0" y="467.0" type="line"/>
      <point x="36.0" y="458.0"/>
      <point x="30.0" y="440.0"/>
      <point x="30.0" y="422.0" type="curve" smooth="yes"/>
      <point x="30.0" y="396.0"/>
      <point x="44.0" y="371.0"/>
      <point x="71.0" y="371.0" type="curve" smooth="yes"/>
      <point x="517.0" y="371.0" type="line"/>
      <point x="517.0" y="120.0" type="line"/>
      <point x="376.0" y="120.0" type="line" smooth="yes"/>
      <point x="338.0" y="120.0"/>
      <point x="324.0" y="92.0"/>
      <point x="324.0" y="58.0" type="curve" smooth="yes"/>
      <point x="324.0" y="30.0"/>
      <point x="343.0" y="0.0"/>
    </contour>
    <contour>
      <point x="185.0" y="477.0" type="line"/>
      <point x="517.0" y="943.0" type="line"/>
      <point x="517.0" y="477.0" type="line"/>
    </contour>
  </outline>
</glyph>
<glyph name="five" format="1">
  <advance width="878.0"/>
  <unicode hex="0035"/>
  <outline>
    <contour>
      <point x="290.0" y="-17.0" type="curve" smooth="yes"/>
      <point x="565.0" y="-17.0"/>
      <point x="799.0" y="173.0"/>
      <point x="799.0" y="462.0" type="curve" smooth="yes"/>
      <point x="799.0" y="690.0"/>
      <point x="670.0" y="819.0"/>
      <point x="448.0" y="819.0" type="curve" smooth="yes"/>
      <point x="371.0" y="819.0"/>
      <point x="286.0" y="782.0"/>
      <point x="261.0" y="731.0" type="curve"/>
      <point x="274.0" y="1070.0" type="line" smooth="yes"/>
      <point x="275.0" y="1093.0"/>
      <point x="292.0" y="1143.0"/>
      <point x="332.0" y="1143.0" type="curve" smooth="yes"/>
      <point x="648.0" y="1143.0" type="line" smooth="yes"/>
      <point x="704.0" y="1143.0"/>
      <point x="723.0" y="1248.0"/>
      <point x="723.0" y="1311.0" type="curve" smooth="yes"/>
      <point x="723.0" y="1338.0"/>
      <point x="704.0" y="1351.0"/>
      <point x="679.0" y="1351.0" type="curve" smooth="yes"/>
      <point x="657.0" y="1351.0"/>
      <point x="619.0" y="1327.0"/>
      <point x="603.0" y="1286.0" type="curve"/>
      <point x="313.0" y="1287.0" type="line" smooth="yes"/>
      <point x="251.0" y="1287.0"/>
      <point x="179.0" y="1288.0"/>
      <point x="179.0" y="1223.0" type="curve"/>
      <point x="138.0" y="638.0" type="line"/>
      <point x="137.0" y="619.0"/>
      <point x="135.0" y="601.0"/>
      <point x="133.0" y="583.0" type="curve"/>
      <point x="147.0" y="573.0"/>
      <point x="157.0" y="570.0"/>
      <point x="174.0" y="570.0" type="curve" smooth="yes"/>
      <point x="256.0" y="570.0"/>
      <point x="281.0" y="657.0"/>
      <point x="418.0" y="657.0" type="curve" smooth="yes"/>
      <point x="600.0" y="657.0"/>
      <point x="637.0" y="556.0"/>
      <point x="637.0" y="429.0" type="curve" smooth="yes"/>
      <point x="637.0" y="236.0"/>
      <point x="529.0" y="125.0"/>
      <point x="387.0" y="125.0" type="curve" smooth="yes"/>
      <point x="289.0" y="125.0"/>
      <point x="266.0" y="189.0"/>
      <point x="151.0" y="189.0" type="curve" smooth="yes"/>
      <point x="102.0" y="189.0"/>
      <point x="75.0" y="150.0"/>
      <point x="75.0" y="105.0" type="curve" smooth="yes"/>
      <point x="75.0" y="3.0"/>
      <point x="203.0" y="-17.0"/>
    </contour>
  </outline>
</glyph>
<glyph name="six" format="1">
  <advance width="960.0"/>
  <unicode hex="0036"/>
  <outline>
    <contour>
      <point x="504.0" y="-17.0" type="curve" smooth="yes"/>
      <point x="743.0" y="-17.0"/>
      <point x="905.0" y="137.0"/>
      <point x="905.0" y="378.0" type="curve" smooth="yes"/>
      <point x="905.0" y="618.0"/>
      <point x="763.0" y="785.0"/>
      <point x="525.0" y="785.0" type="curve" smooth="yes"/>
      <point x="409.0" y="785.0"/>
      <point x="321.0" y="733.0"/>
      <point x="260.0" y="669.0" type="curve"/>
      <point x="332.0" y="903.0"/>
      <point x="466.0" y="1087.0"/>
      <point x="630.0" y="1224.0" type="curve" smooth="yes"/>
      <point x="648.0" y="1239.0"/>
      <point x="657.0" y="1257.0"/>
      <point x="657.0" y="1280.0" type="curve" smooth="yes"/>
      <point x="657.0" y="1328.0"/>
      <point x="629.0" y="1346.0"/>
      <point x="582.0" y="1346.0" type="curve" smooth="yes"/>
      <point x="553.0" y="1346.0"/>
      <point x="530.0" y="1329.0"/>
      <point x="516.0" y="1315.0" type="curve"/>
      <point x="295.0" y="1111.0"/>
      <point x="91.0" y="854.0"/>
      <point x="91.0" y="451.0" type="curve" smooth="yes"/>
      <point x="91.0" y="170.0"/>
      <point x="221.0" y="-17.0"/>
    </contour>
    <contour>
      <point x="504.0" y="93.0" type="curve" smooth="yes"/>
      <point x="341.0" y="93.0"/>
      <point x="251.0" y="209.0"/>
      <point x="251.0" y="376.0" type="curve" smooth="yes"/>
      <point x="251.0" y="540.0"/>
      <point x="344.0" y="658.0"/>
      <point x="507.0" y="658.0" type="curve" smooth="yes"/>
      <point x="670.0" y="658.0"/>
      <point x="757.0" y="541.0"/>
      <point x="757.0" y="376.0" type="curve" smooth="yes"/>
      <point x="757.0" y="211.0"/>
      <point x="667.0" y="93.0"/>
    </contour>
  </outline>
</glyph>
<glyph name="seven" format="1">
  <advance width="868"/>
  <unicode hex="0037"/>
  <outline>
    <contour>
      <point x="391" y="-7" type="curve" smooth="yes"/>
      <point x="451" y="-7"/>
      <point x="479" y="33"/>
      <point x="479" y="96" type="curve" smooth="yes"/>
      <point x="479" y="578"/>
      <point x="731" y="789"/>
      <point x="825" y="1152" type="curve" smooth="yes"/>
      <point x="826" y="1155"/>
      <point x="825" y="1164"/>
      <point x="825" y="1170" type="curve" smooth="yes"/>
      <point x="825" y="1202"/>
      <point x="792" y="1223"/>
      <point x="765" y="1223" type="curve" smooth="yes"/>
      <point x="138" y="1223" type="line" smooth="yes"/>
      <point x="110" y="1223"/>
      <point x="100" y="1208"/>
      <point x="86" y="1168" type="curve"/>
      <point x="36" y="960" type="line"/>
      <point x="36" y="925"/>
      <point x="69" y="908"/>
      <point x="102" y="908" type="curve" smooth="yes"/>
      <point x="138" y="908"/>
      <point x="161" y="932"/>
      <point x="176" y="962" type="curve"/>
      <point x="205" y="1085" type="line"/>
      <point x="650" y="1085" type="line"/>
      <point x="507" y="786"/>
      <point x="302" y="540"/>
      <point x="302" y="98" type="curve" smooth="yes"/>
      <point x="302" y="35"/>
      <point x="329" y="-7"/>
    </contour>
  </outline>
</glyph>
<glyph name="eight" format="1">
  <advance width="905"/>
  <unicode hex="0038"/>
  <outline>
    <contour>
      <point x="458" y="-17" type="curve" smooth="yes"/>
      <point x="652" y="-17"/>
      <point x="809" y="77"/>
      <point x="809" y="292" type="curve" smooth="yes"/>
      <point x="809" y="488"/>
      <point x="695" y="557"/>
      <point x="575" y="627" type="curve"/>
      <point x="675" y="683"/>
      <point x="765" y="773"/>
      <point x="765" y="931" type="curve" smooth="yes"/>
      <point x="765" y="1114"/>
      <point x="599" y="1209"/>
      <point x="437" y="1209" type="curve" smooth="yes"/>
      <point x="267" y="1209"/>
      <point x="127" y="1099"/>
      <point x="127" y="914" type="curve" smooth="yes"/>
      <point x="127" y="759"/>
      <point x="172" y="685"/>
      <point x="276" y="614" type="curve"/>
      <point x="177" y="561"/>
      <point x="105" y="471"/>
      <point x="105" y="308" type="curve" smooth="yes"/>
      <point x="105" y="83"/>
      <point x="246" y="-17"/>
    </contour>
    <contour>
      <point x="463" y="101" type="curve" smooth="yes"/>
      <point x="338" y="101"/>
      <point x="245" y="161"/>
      <point x="245" y="300" type="curve" smooth="yes"/>
      <point x="245" y="434"/>
      <point x="288" y="508"/>
      <point x="370" y="561" type="curve"/>
      <point x="477" y="495"/>
      <point x="667" y="467"/>
      <point x="667" y="292" type="curve" smooth="yes"/>
      <point x="667" y="165"/>
      <point x="583" y="101"/>
    </contour>
    <contour>
      <point x="481" y="678" type="curve"/>
      <point x="408" y="724"/>
      <point x="266" y="784"/>
      <point x="266" y="924" type="curve" smooth="yes"/>
      <point x="266" y="1038"/>
      <point x="342" y="1101"/>
      <point x="445" y="1101" type="curve" smooth="yes"/>
      <point x="543" y="1101"/>
      <point x="621" y="1043"/>
      <point x="621" y="922" type="curve" smooth="yes"/>
      <point x="621" y="799"/>
      <point x="561" y="725"/>
    </contour>
  </outline>
</glyph>
<glyph name="nine" format="1">
  <advance width="911"/>
  <unicode hex="0039"/>
  <outline>
    <contour>
      <point x="359" y="-64" type="curve" smooth="yes"/>
      <point x="386" y="-64"/>
      <point x="408" y="-48"/>
      <point x="422" y="-35" type="curve" smooth="yes"/>
      <point x="621" y="164"/>
      <point x="818" y="396"/>
      <point x="818" y="771" type="curve" smooth="yes"/>
      <point x="818" y="1034"/>
      <point x="697" y="1208"/>
      <point x="433" y="1208" type="curve" smooth="yes"/>
      <point x="209" y="1208"/>
      <point x="63" y="1064"/>
      <point x="63" y="839" type="curve" smooth="yes"/>
      <point x="63" y="623"/>
      <point x="205" y="479"/>
      <point x="419" y="479" type="curve" smooth="yes"/>
      <point x="514" y="479"/>
      <point x="589" y="513"/>
      <point x="647" y="554" type="curve"/>
      <point x="619" y="388"/>
      <point x="512" y="265"/>
      <point x="416" y="166" type="curve" smooth="yes"/>
      <point x="375" y="123"/>
      <point x="289" y="72"/>
      <point x="289" y="5" type="curve" smooth="yes"/>
      <point x="289" y="-39"/>
      <point x="315" y="-64"/>
    </contour>
    <contour>
      <point x="433" y="591" type="curve" smooth="yes"/>
      <point x="284" y="591"/>
      <point x="196" y="690"/>
      <point x="196" y="841" type="curve" smooth="yes"/>
      <point x="196" y="995"/>
      <point x="281" y="1105"/>
      <point x="433" y="1105" type="curve" smooth="yes"/>
      <point x="584" y="1105"/>
      <point x="669" y="996"/>
      <point x="669" y="841" type="curve" smooth="yes"/>
      <point x="669" y="692"/>
      <point x="581" y="591"/>
    </contour>
  </outline>
</glyph>
<glyph name="colon" format="1">
  <advance width="558"/>
  <unicode hex="003A"/>
  <outline>
    <contour>
      <point x="279" y="600" type="curve" smooth="yes"/>
      <point x="370" y="600"/>
      <point x="439" y="667"/>
      <point x="439" y="760" type="curve" smooth="yes"/>
      <point x="439" y="850"/>
      <point x="370" y="919"/>
      <point x="279" y="919" type="curve" smooth="yes"/>
      <point x="188" y="919"/>
      <point x="119" y="851"/>
      <point x="119" y="760" type="curve" smooth="yes"/>
      <point x="119" y="667"/>
      <point x="186" y="600"/>
    </contour>
    <contour>
      <point x="279" y="-16" type="curve" smooth="yes"/>
      <point x="370" y="-16"/>
      <point x="439" y="52"/>
      <point x="439" y="143" type="curve" smooth="yes"/>
      <point x="439" y="234"/>
      <point x="370" y="303"/>
      <point x="279" y="303" type="curve" smooth="yes"/>
      <point x="188" y="303"/>
      <point x="119" y="236"/>
      <point x="119" y="143" type="curve" smooth="yes"/>
      <point x="119" y="52"/>
      <point x="186" y="-16"/>
    </contour>
  </outline>
</glyph>
<glyph name="semicolon" format="1">
  <advance width="536.0"/>
  <unicode hex="003B"/>
  <outline>
    <contour>
      <point x="167.0" y="-178.0" type="curve" smooth="yes"/>
      <point x="178.0" y="-178.0"/>
      <point x="190.0" y="-175.0"/>
      <point x="202.0" y="-168.0" type="curve" smooth="yes"/>
      <point x="308.0" y="-107.0"/>
      <point x="401.0" y="-14.0"/>
      <point x="401.0" y="144.0" type="curve" smooth="yes"/>
      <point x="401.0" y="253.0"/>
      <point x="332.0" y="308.0"/>
      <point x="252.0" y="308.0" type="curve" smooth="yes"/>
      <point x="189.0" y="308.0"/>
      <point x="128.0" y="270.0"/>
      <point x="128.0" y="193.0" type="curve" smooth="yes"/>
      <point x="128.0" y="117.0"/>
      <point x="187.0" y="82.0"/>
      <point x="266.0" y="82.0" type="curve"/>
      <point x="266.0" y="0.0"/>
      <point x="195.0" y="-51.0"/>
      <point x="137.0" y="-88.0" type="curve" smooth="yes"/>
      <point x="119.0" y="-99.0"/>
      <point x="114.0" y="-114.0"/>
      <point x="114.0" y="-128.0" type="curve" smooth="yes"/>
      <point x="114.0" y="-154.0"/>
      <point x="136.0" y="-178.0"/>
    </contour>
    <contour>
      <point x="269.0" y="600.0" type="curve" smooth="yes"/>
      <point x="361.0" y="600.0"/>
      <point x="429.0" y="667.0"/>
      <point x="429.0" y="759.0" type="curve" smooth="yes"/>
      <point x="429.0" y="849.0"/>
      <point x="361.0" y="918.0"/>
      <point x="269.0" y="918.0" type="curve" smooth="yes"/>
      <point x="178.0" y="918.0"/>
      <point x="109.0" y="851.0"/>
      <point x="109.0" y="759.0" type="curve" smooth="yes"/>
      <point x="109.0" y="667.0"/>
      <point x="177.0" y="600.0"/>
    </contour>
  </outline>
</glyph>
<glyph name="equal" format="1">
  <advance width="935"/>
  <unicode hex="003D"/>
  <outline>
    <contour>
      <point x="196" y="598" type="curve" smooth="yes"/>
      <point x="740" y="598" type="line" smooth="yes"/>
      <point x="775" y="598"/>
      <point x="809" y="629"/>
      <point x="809" y="667" type="curve" smooth="yes"/>
      <point x="809" y="705"/>
      <point x="775" y="737"/>
      <point x="740" y="737" type="curve" smooth="yes"/>
      <point x="196" y="737" type="line" smooth="yes"/>
      <point x="158" y="737"/>
      <point x="126" y="705"/>
      <point x="126" y="667" type="curve" smooth="yes"/>
      <point x="126" y="629"/>
      <point x="158" y="598"/>
    </contour>
    <contour>
      <point x="196" y="256" type="curve" smooth="yes"/>
      <point x="740" y="256" type="line" smooth="yes"/>
      <point x="775" y="256"/>
      <point x="809" y="287"/>
      <point x="809" y="325" type="curve" smooth="yes"/>
      <point x="809" y="363"/>
      <point x="775" y="394"/>
      <point x="740" y="394" type="curve" smooth="yes"/>
      <point x="196" y="394" type="line" smooth="yes"/>
      <point x="158" y="394"/>
      <point x="126" y="363"/>
      <point x="126" y="325" type="curve" smooth="yes"/>
      <point x="126" y="287"/>
      <point x="158" y="256"/>
    </contour>
  </outline>
</glyph>
<glyph name="greater" format="1">
  <advance width="1225"/>
  <unicode hex="003E"/>
  <outline>
    <contour>
      <point x="185" y="132" type="curve"/>
      <point x="1111" y="488" type="line"/>
      <point x="1147" y="503"/>
      <point x="1168" y="517"/>
      <point x="1168" y="550" type="curve" smooth="yes"/>
      <point x="1168" y="583"/>
      <point x="1143" y="600"/>
      <point x="1111" y="612" type="curve"/>
      <point x="204" y="968" type="line"/>
      <point x="156" y="968"/>
      <point x="127" y="930"/>
      <point x="127" y="892" type="curve" smooth="yes"/>
      <point x="127" y="863"/>
      <point x="146" y="834"/>
      <point x="189" y="817" type="curve" smooth="yes"/>
      <point x="897" y="532" type="line"/>
      <point x="185" y="262" type="line" smooth="yes"/>
      <point x="140" y="245"/>
      <point x="120" y="217"/>
      <point x="120" y="192" type="curve" smooth="yes"/>
      <point x="120" y="161"/>
      <point x="145" y="132"/>
    </contour>
  </outline>
</glyph>
<glyph name="question" format="1">
  <advance width="843"/>
  <unicode hex="003F"/>
  <outline>
    <contour>
      <point x="374" y="342" type="curve" smooth="yes"/>
      <point x="425" y="342"/>
      <point x="440" y="390"/>
      <point x="440" y="454" type="curve" smooth="yes"/>
      <point x="440" y="628"/>
      <point x="765" y="634"/>
      <point x="765" y="879" type="curve" smooth="yes"/>
      <point x="765" y="1089"/>
      <point x="601" y="1220"/>
      <point x="398" y="1220" type="curve" smooth="yes"/>
      <point x="232" y="1220"/>
      <point x="57" y="1142"/>
      <point x="57" y="976" type="curve" smooth="yes"/>
      <point x="57" y="919"/>
      <point x="96" y="870"/>
      <point x="154" y="870" type="curve" smooth="yes"/>
      <point x="264" y="870"/>
      <point x="263" y="970"/>
      <point x="271" y="1079" type="curve"/>
      <point x="320" y="1101"/>
      <point x="364" y="1111"/>
      <point x="403" y="1111" type="curve" smooth="yes"/>
      <point x="525" y="1111"/>
      <point x="592" y="1014"/>
      <point x="592" y="900" type="curve" smooth="yes"/>
      <point x="592" y="893"/>
      <point x="592" y="886"/>
      <point x="591" y="879" type="curve" smooth="yes"/>
      <point x="573" y="676"/>
      <point x="291" y="690"/>
      <point x="291" y="479" type="curve" smooth="yes"/>
      <point x="291" y="403"/>
      <point x="292" y="342"/>
    </contour>
    <contour>
      <point x="348" y="-9" type="curve" smooth="yes"/>
      <point x="423" y="-9"/>
      <point x="486" y="44"/>
      <point x="486" y="119" type="curve" smooth="yes"/>
      <point x="486" y="186"/>
      <point x="435" y="247"/>
      <point x="368" y="247" type="curve" smooth="yes"/>
      <point x="298" y="247"/>
      <point x="246" y="188"/>
      <point x="246" y="118" type="curve" smooth="yes"/>
      <point x="246" y="52"/>
      <point x="282" y="-9"/>
    </contour>
  </outline>
</glyph>
<glyph name="at" format="1">
  <advance width="1271.0"/>
  <unicode hex="0040"/>
  <outline>
    <contour>
      <point x="620.0" y="-116.0" type="curve" smooth="yes"/>
      <point x="965.0" y="-116.0"/>
      <point x="1135.0" y="53.0"/>
      <point x="1135.0" y="104.0" type="curve" smooth="yes"/>
      <point x="1135.0" y="120.0"/>
      <point x="1117.0" y="136.0"/>
      <point x="1104.0" y="136.0" type="curve" smooth="yes"/>
      <point x="1062.0" y="136.0"/>
      <point x="930.0" y="-34.0"/>
      <point x="640.0" y="-34.0" type="curve" smooth="yes"/>
      <point x="395.0" y="-34.0"/>
      <point x="176.0" y="145.0"/>
      <point x="176.0" y="426.0" type="curve" smooth="yes"/>
      <point x="176.0" y="747.0"/>
      <point x="406.0" y="1005.0"/>
      <point x="698.0" y="1005.0" type="curve" smooth="yes"/>
      <point x="931.0" y="1005.0"/>
      <point x="1097.0" y="858.0"/>
      <point x="1097.0" y="613.0" type="curve" smooth="yes"/>
      <point x="1097.0" y="451.0"/>
      <point x="1034.0" y="266.0"/>
      <point x="891.0" y="266.0" type="curve" smooth="yes"/>
      <point x="837.0" y="266.0"/>
      <point x="806.0" y="293.0"/>
      <point x="807.0" y="344.0" type="curve"/>
      <point x="875.0" y="633.0" type="line"/>
      <point x="836.0" y="717.0"/>
      <point x="721.0" y="776.0"/>
      <point x="647.0" y="776.0" type="curve" smooth="yes"/>
      <point x="487.0" y="776.0"/>
      <point x="366.0" y="597.0"/>
      <point x="366.0" y="427.0" type="curve" smooth="yes"/>
      <point x="366.0" y="281.0"/>
      <point x="432.0" y="179.0"/>
      <point x="574.0" y="179.0" type="curve" smooth="yes"/>
      <point x="665.0" y="179.0"/>
      <point x="720.0" y="233.0"/>
      <point x="753.0" y="287.0" type="curve"/>
      <point x="768.0" y="232.0"/>
      <point x="810.0" y="191.0"/>
      <point x="879.0" y="191.0" type="curve" smooth="yes"/>
      <point x="1084.0" y="191.0"/>
      <point x="1183.0" y="391.0"/>
      <point x="1183.0" y="617.0" type="curve" smooth="yes"/>
      <point x="1183.0" y="878.0"/>
      <point x="955.0" y="1092.0"/>
      <point x="681.0" y="1092.0" type="curve" smooth="yes"/>
      <point x="309.0" y="1092.0"/>
      <point x="84.0" y="728.0"/>
      <point x="84.0" y="427.0" type="curve" smooth="yes"/>
      <point x="84.0" y="111.0"/>
      <point x="343.0" y="-116.0"/>
    </contour>
    <contour>
      <point x="577.0" y="266.0" type="curve" smooth="yes"/>
      <point x="507.0" y="266.0"/>
      <point x="467.0" y="342.0"/>
      <point x="467.0" y="421.0" type="curve" smooth="yes"/>
      <point x="467.0" y="565.0"/>
      <point x="534.0" y="693.0"/>
      <point x="671.0" y="693.0" type="curve" smooth="yes"/>
      <point x="715.0" y="693.0"/>
      <point x="784.0" y="650.0"/>
      <point x="779.0" y="594.0" type="curve"/>
      <point x="744.0" y="417.0"/>
      <point x="738.0" y="266.0"/>
    </contour>
  </outline>
</glyph>
<glyph name="A" format="1">
  <advance width="1310.0"/>
  <unicode hex="0041"/>
  <outline>
    <contour>
      <point x="77.0" y="0.0" type="curve" smooth="yes"/>
      <point x="423.0" y="0.0" type="line" smooth="yes"/>
      <point x="452.0" y="0.0"/>
      <point x="469.0" y="28.0"/>
      <point x="469.0" y="58.0" type="curve" smooth="yes"/>
      <point x="469.0" y="92.0"/>
      <point x="457.0" y="122.0"/>
      <point x="425.0" y="122.0" type="curve" smooth="yes"/>
      <point x="278.0" y="122.0" type="line"/>
      <point x="302.0" y="80.0" type="line"/>
      <point x="431.0" y="434.0" type="line"/>
      <point x="375.0" y="392.0" type="line"/>
      <point x="911.0" y="392.0" type="line"/>
      <point x="856.0" y="434.0" type="line"/>
      <point x="977.0" y="80.0" type="line"/>
      <point x="1003.0" y="122.0" type="line"/>
      <point x="836.0" y="122.0" type="line" smooth="yes"/>
      <point x="804.0" y="122.0"/>
      <point x="792.0" y="92.0"/>
      <point x="792.0" y="58.0" type="curve" smooth="yes"/>
      <point x="792.0" y="28.0"/>
      <point x="809.0" y="0.0"/>
      <point x="838.0" y="0.0" type="curve" smooth="yes"/>
      <point x="1263.0" y="0.0" type="line" smooth="yes"/>
      <point x="1291.0" y="0.0"/>
      <point x="1308.0" y="28.0"/>
      <point x="1308.0" y="58.0" type="curve" smooth="yes"/>
      <point x="1308.0" y="91.0"/>
      <point x="1297.0" y="122.0"/>
      <point x="1264.0" y="122.0" type="curve" smooth="yes"/>
      <point x="1100.0" y="122.0" type="line"/>
      <point x="1156.0" y="80.0" type="line"/>
      <point x="749.0" y="1152.0" type="line" smooth="yes"/>
      <point x="736.0" y="1187.0"/>
      <point x="716.0" y="1218.0"/>
      <point x="676.0" y="1218.0" type="curve" smooth="yes"/>
      <point x="387.0" y="1218.0" type="line" smooth="yes"/>
      <point x="353.0" y="1218.0"/>
      <point x="341.0" y="1187.0"/>
      <point x="341.0" y="1154.0" type="curve" smooth="yes"/>
      <point x="341.0" y="1124.0"/>
      <point x="359.0" y="1096.0"/>
      <point x="387.0" y="1096.0" type="curve" smooth="yes"/>
      <point x="611.0" y="1096.0" type="line"/>
      <point x="595.0" y="1155.0" type="line"/>
      <point x="148.0" y="81.0" type="line"/>
      <point x="205.0" y="122.0" type="line"/>
      <point x="76.0" y="122.0" type="line" smooth="yes"/>
      <point x="43.0" y="122.0"/>
      <point x="31.0" y="92.0"/>
      <point x="31.0" y="58.0" type="curve" smooth="yes"/>
      <point x="31.0" y="28.0"/>
      <point x="49.0" y="0.0"/>
    </contour>
    <contour>
      <point x="442.0" y="457.0" type="line"/>
      <point x="665.0" y="1078.0" type="line"/>
      <point x="634.0" y="1078.0" type="line"/>
      <point x="848.0" y="457.0" type="line"/>
      <point x="873.0" y="499.0" type="line"/>
      <point x="416.0" y="499.0" type="line"/>
    </contour>
    <contour>
      <point x="1098.0" y="10" type="move" name="ogonek"/>
    </contour>
    <contour>
      <point x="676.0" y="1218" type="move" name="top"/>
    </contour>
  </outline>
</glyph>
<glyph name="B" format="1">
  <advance width="1323"/>
  <unicode hex="0042"/>
  <outline>
    <contour>
      <point x="106" y="0" type="curve" smooth="yes"/>
      <point x="769" y="0" type="line" smooth="yes"/>
      <point x="994" y="0"/>
      <point x="1239" y="102"/>
      <point x="1239" y="360" type="curve" smooth="yes"/>
      <point x="1239" y="564"/>
      <point x="1119" y="660"/>
      <point x="970" y="682" type="curve"/>
      <point x="1055" y="707"/>
      <point x="1125" y="784"/>
      <point x="1125" y="902" type="curve" smooth="yes"/>
      <point x="1125" y="1139"/>
      <point x="946" y="1209"/>
      <point x="736" y="1209" type="curve" smooth="yes"/>
      <point x="148" y="1209" type="line" smooth="yes"/>
      <point x="115" y="1209"/>
      <point x="103" y="1179"/>
      <point x="103" y="1144" type="curve" smooth="yes"/>
      <point x="103" y="1113"/>
      <point x="121" y="1085"/>
      <point x="151" y="1085" type="curve" smooth="yes"/>
      <point x="281" y="1085" type="line"/>
      <point x="281" y="124" type="line"/>
      <point x="105" y="124" type="line" smooth="yes"/>
      <point x="72" y="124"/>
      <point x="59" y="95"/>
      <point x="59" y="59" type="curve" smooth="yes"/>
      <point x="59" y="28"/>
      <point x="78" y="0"/>
    </contour>
    <contour>
      <point x="450" y="124" type="line"/>
      <point x="450" y="611" type="line"/>
      <point x="793" y="611" type="line" smooth="yes"/>
      <point x="893" y="611"/>
      <point x="1056" y="611"/>
      <point x="1056" y="375" type="curve" smooth="yes"/>
      <point x="1056" y="185"/>
      <point x="937" y="124"/>
      <point x="771" y="124" type="curve" smooth="yes"/>
    </contour>
    <contour>
      <point x="450" y="702" type="line"/>
      <point x="450" y="1085" type="line"/>
      <point x="748" y="1085" type="line" smooth="yes"/>
      <point x="861" y="1085"/>
      <point x="981" y="1056"/>
      <point x="981" y="894" type="curve" smooth="yes"/>
      <point x="981" y="757"/>
      <point x="887" y="702"/>
      <point x="793" y="702" type="curve" smooth="yes"/>
    </contour>
  </outline>
</glyph>
<glyph name="C" format="1">
  <advance width="1246"/>
  <unicode hex="0043"/>
  <outline>
    <contour>
      <point x="681" y="-17" type="curve" smooth="yes"/>
      <point x="939" y="-17"/>
      <point x="1166" y="178"/>
      <point x="1166" y="406" type="curve" smooth="yes"/>
      <point x="1166" y="448"/>
      <point x="1127" y="470"/>
      <point x="1093" y="470" type="curve" smooth="yes"/>
      <point x="1059" y="470"/>
      <point x="1022" y="455"/>
      <point x="1017" y="418" type="curve" smooth="yes"/>
      <point x="992" y="236"/>
      <point x="877" y="122"/>
      <point x="696" y="122" type="curve" smooth="yes"/>
      <point x="420" y="122"/>
      <point x="287" y="313"/>
      <point x="287" y="624" type="curve" smooth="yes"/>
      <point x="287" y="900"/>
      <point x="441" y="1101"/>
      <point x="696" y="1101" type="curve" smooth="yes"/>
      <point x="856" y="1101"/>
      <point x="937" y="1017"/>
      <point x="1012" y="902" type="curve"/>
      <point x="1031" y="879"/>
      <point x="1038" y="847"/>
      <point x="1068" y="847" type="curve" smooth="yes"/>
      <point x="1099" y="847"/>
      <point x="1126" y="866"/>
      <point x="1126" y="900" type="curve" smooth="yes"/>
      <point x="1126" y="1165" type="line" smooth="yes"/>
      <point x="1126" y="1199"/>
      <point x="1100" y="1218"/>
      <point x="1069" y="1218" type="curve" smooth="yes"/>
      <point x="1035" y="1218"/>
      <point x="1006" y="1203"/>
      <point x="1006" y="1166" type="curve" smooth="yes"/>
      <point x="1006" y="1092" type="line"/>
      <point x="917" y="1183"/>
      <point x="831" y="1235"/>
      <point x="697" y="1235" type="curve" smooth="yes"/>
      <point x="350" y="1235"/>
      <point x="91" y="994"/>
      <point x="91" y="632" type="curve" smooth="yes"/>
      <point x="91" y="236"/>
      <point x="343" y="-17"/>
    </contour>
    <contour>
      <point x="725" y="1" type="move" name="bottom"/>
    </contour>
    <contour>
      <point x="726" y="1218" type="move" name="top"/>
    </contour>
  </outline>
</glyph>
<glyph name="D" format="1">
  <advance width="1389"/>
  <unicode hex="0044"/>
  <outline>
    <contour>
      <point x="104" y="0" type="curve" smooth="yes"/>
      <point x="639" y="0" type="line" smooth="yes"/>
      <point x="1011" y="0"/>
      <point x="1297" y="212"/>
      <point x="1297" y="611" type="curve" smooth="yes"/>
      <point x="1297" y="1014"/>
      <point x="1025" y="1209"/>
      <point x="639" y="1209" type="curve" smooth="yes"/>
      <point x="159" y="1209" type="line" smooth="yes"/>
      <point x="130" y="1209"/>
      <point x="112" y="1180"/>
      <point x="112" y="1149" type="curve" smooth="yes"/>
      <point x="112" y="1114"/>
      <point x="124" y="1085"/>
      <point x="158" y="1085" type="curve" smooth="yes"/>
      <point x="281" y="1085" type="line"/>
      <point x="281" y="125" type="line"/>
      <point x="103" y="125" type="line" smooth="yes"/>
      <point x="70" y="125"/>
      <point x="57" y="95"/>
      <point x="57" y="59" type="curve" smooth="yes"/>
      <point x="57" y="28"/>
      <point x="75" y="0"/>
    </contour>
    <contour>
      <point x="451" y="125" type="line"/>
      <point x="451" y="1085" type="line"/>
      <point x="657" y="1085" type="line" smooth="yes"/>
      <point x="936" y="1085"/>
      <point x="1121" y="915"/>
      <point x="1121" y="611" type="curve" smooth="yes"/>
      <point x="1121" y="244"/>
      <point x="863" y="125"/>
      <point x="533" y="125" type="curve"/>
    </contour>
    <contour>
      <point x="761" y="604" type="move" name="center"/>
    </contour>
    <contour>
      <point x="761" y="1209" type="move" name="top"/>
    </contour>
  </outline>
</glyph>
<glyph name="E" format="1">
  <advance width="1305"/>
  <unicode hex="0045"/>
  <outline>
    <contour>
      <point x="95" y="0" type="curve" smooth="yes"/>
      <point x="1108" y="0" type="line" smooth="yes"/>
      <point x="1137" y="0"/>
      <point x="1147" y="21"/>
      <point x="1159" y="55" type="curve"/>
      <point x="1218" y="358" type="line"/>
      <point x="1218" y="391"/>
      <point x="1200" y="410"/>
      <point x="1170" y="410" type="curve" smooth="yes"/>
      <point x="1133" y="410"/>
      <point x="1111" y="386"/>
      <point x="1095" y="356" type="curve"/>
      <point x="1001" y="124" type="line"/>
      <point x="452" y="124" type="line"/>
      <point x="452" y="581" type="line"/>
      <point x="636" y="581" type="line"/>
      <point x="676" y="449" type="line" smooth="yes"/>
      <point x="684" y="423"/>
      <point x="705" y="401"/>
      <point x="732" y="401" type="curve" smooth="yes"/>
      <point x="763" y="401"/>
      <point x="779" y="425"/>
      <point x="779" y="458" type="curve"/>
      <point x="766" y="634" type="line"/>
      <point x="779" y="804" type="line"/>
      <point x="779" y="838"/>
      <point x="763" y="861"/>
      <point x="732" y="861" type="curve" smooth="yes"/>
      <point x="703" y="861"/>
      <point x="684" y="839"/>
      <point x="676" y="813" type="curve" smooth="yes"/>
      <point x="636" y="682" type="line"/>
      <point x="452" y="682" type="line"/>
      <point x="452" y="1085" type="line"/>
      <point x="1003" y="1085" type="line"/>
      <point x="1092" y="904" type="line" smooth="yes"/>
      <point x="1106" y="875"/>
      <point x="1131" y="851"/>
      <point x="1166" y="851" type="curve" smooth="yes"/>
      <point x="1195" y="851"/>
      <point x="1216" y="872"/>
      <point x="1216" y="902" type="curve"/>
      <point x="1128" y="1154" type="line"/>
      <point x="1116" y="1187"/>
      <point x="1106" y="1209"/>
      <point x="1076" y="1209" type="curve" smooth="yes"/>
      <point x="170" y="1209" type="line" smooth="yes"/>
      <point x="141" y="1209"/>
      <point x="123" y="1180"/>
      <point x="123" y="1150" type="curve" smooth="yes"/>
      <point x="123" y="1114"/>
      <point x="135" y="1085"/>
      <point x="169" y="1085" type="curve" smooth="yes"/>
      <point x="284" y="1085" type="line"/>
      <point x="284" y="124" type="line"/>
      <point x="93" y="124" type="line" smooth="yes"/>
      <point x="60" y="124"/>
      <point x="47" y="94"/>
      <point x="47" y="60" type="curve" smooth="yes"/>
      <point x="47" y="28"/>
      <point x="65" y="0"/>
    </contour>
    <contour>
      <point x="718" y="0" type="move" name="bottom"/>
    </contour>
    <contour>
      <point x="1238" y="7" type="move" name="ogonek"/>
    </contour>
    <contour>
      <point x="718" y="1209" type="move" name="top"/>
    </contour>
  </outline>
</glyph>
<glyph name="F" format="1">
  <advance width="1264.0"/>
  <unicode hex="0046"/>
  <outline>
    <contour>
      <point x="87.0" y="0.0" type="curve" smooth="yes"/>
      <point x="631.0" y="0.0" type="line" smooth="yes"/>
      <point x="661.0" y="0.0"/>
      <point x="680.0" y="28.0"/>
      <point x="680.0" y="59.0" type="curve" smooth="yes"/>
      <point x="680.0" y="95.0"/>
      <point x="666.0" y="124.0"/>
      <point x="632.0" y="124.0" type="curve" smooth="yes"/>
      <point x="480.0" y="124.0" type="line"/>
      <point x="480.0" y="553.0" type="line"/>
      <point x="666.0" y="553.0" type="line"/>
      <point x="706.0" y="422.0" type="line" smooth="yes"/>
      <point x="714.0" y="396.0"/>
      <point x="732.0" y="374.0"/>
      <point x="761.0" y="374.0" type="curve" smooth="yes"/>
      <point x="794.0" y="374.0"/>
      <point x="810.0" y="397.0"/>
      <point x="810.0" y="430.0" type="curve"/>
      <point x="798.0" y="607.0" type="line"/>
      <point x="810.0" y="777.0" type="line"/>
      <point x="810.0" y="811.0"/>
      <point x="794.0" y="834.0"/>
      <point x="761.0" y="834.0" type="curve" smooth="yes"/>
      <point x="732.0" y="834.0"/>
      <point x="714.0" y="812.0"/>
      <point x="706.0" y="786.0" type="curve" smooth="yes"/>
      <point x="666.0" y="655.0" type="line"/>
      <point x="480.0" y="655.0" type="line"/>
      <point x="480.0" y="1085.0" type="line"/>
      <point x="1035.0" y="1085.0" type="line"/>
      <point x="1106.0" y="904.0" type="line"/>
      <point x="1120.0" y="875.0"/>
      <point x="1143.0" y="851.0"/>
      <point x="1180.0" y="851.0" type="curve" smooth="yes"/>
      <point x="1210.0" y="851.0"/>
      <point x="1230.0" y="872.0"/>
      <point x="1230.0" y="903.0" type="curve"/>
      <point x="1160.0" y="1154.0" type="line"/>
      <point x="1147.0" y="1187.0"/>
      <point x="1139.0" y="1209.0"/>
      <point x="1108.0" y="1209.0" type="curve" smooth="yes"/>
      <point x="146.0" y="1209.0" type="line" smooth="yes"/>
      <point x="117.0" y="1209.0"/>
      <point x="99.0" y="1181.0"/>
      <point x="99.0" y="1150.0" type="curve" smooth="yes"/>
      <point x="99.0" y="1115.0"/>
      <point x="112.0" y="1085.0"/>
      <point x="146.0" y="1085.0" type="curve" smooth="yes"/>
      <point x="312.0" y="1085.0" type="line"/>
      <point x="312.0" y="124.0" type="line"/>
      <point x="86.0" y="124.0" type="line" smooth="yes"/>
      <point x="53.0" y="124.0"/>
      <point x="40.0" y="95.0"/>
      <point x="40.0" y="59.0" type="curve" smooth="yes"/>
      <point x="40.0" y="28.0"/>
      <point x="58.0" y="0.0"/>
    </contour>
  </outline>
</glyph>
<glyph name="G" format="1">
  <advance width="1382"/>
  <unicode hex="0047"/>
  <outline>
    <contour>
      <point x="701" y="-17" type="curve" smooth="yes"/>
      <point x="879" y="-17"/>
      <point x="1017" y="28"/>
      <point x="1101" y="141" type="curve"/>
      <point x="1101" y="53" type="line" smooth="yes"/>
      <point x="1101" y="20"/>
      <point x="1129" y="1"/>
      <point x="1158" y="1" type="curve" smooth="yes"/>
      <point x="1194" y="1"/>
      <point x="1223" y="16"/>
      <point x="1223" y="52" type="curve" smooth="yes"/>
      <point x="1223" y="495" type="line"/>
      <point x="1276" y="495" type="line" smooth="yes"/>
      <point x="1305" y="495"/>
      <point x="1323" y="523"/>
      <point x="1323" y="554" type="curve" smooth="yes"/>
      <point x="1323" y="590"/>
      <point x="1311" y="620"/>
      <point x="1277" y="620" type="curve" smooth="yes"/>
      <point x="1008" y="620" type="line" smooth="yes"/>
      <point x="975" y="620"/>
      <point x="963" y="590"/>
      <point x="963" y="554" type="curve" smooth="yes"/>
      <point x="963" y="524"/>
      <point x="979" y="495"/>
      <point x="1010" y="495" type="curve" smooth="yes"/>
      <point x="1108" y="495" type="line"/>
      <point x="1108" y="405" type="line" smooth="yes"/>
      <point x="1108" y="180"/>
      <point x="906" y="117"/>
      <point x="701" y="117" type="curve" smooth="yes"/>
      <point x="428" y="117"/>
      <point x="286" y="316"/>
      <point x="286" y="604" type="curve" smooth="yes"/>
      <point x="286" y="897"/>
      <point x="450" y="1101"/>
      <point x="718" y="1101" type="curve" smooth="yes"/>
      <point x="888" y="1101"/>
      <point x="990" y="1025"/>
      <point x="1086" y="901" type="curve" smooth="yes"/>
      <point x="1103" y="879"/>
      <point x="1110" y="847"/>
      <point x="1143" y="847" type="curve" smooth="yes"/>
      <point x="1173" y="847"/>
      <point x="1200" y="866"/>
      <point x="1200" y="899" type="curve" smooth="yes"/>
      <point x="1200" y="1165" type="line" smooth="yes"/>
      <point x="1200" y="1198"/>
      <point x="1173" y="1217"/>
      <point x="1144" y="1217" type="curve" smooth="yes"/>
      <point x="1109" y="1217"/>
      <point x="1081" y="1202"/>
      <point x="1081" y="1166" type="curve" smooth="yes"/>
      <point x="1081" y="1092" type="line"/>
      <point x="974" y="1184"/>
      <point x="875" y="1235"/>
      <point x="719" y="1235" type="curve" smooth="yes"/>
      <point x="354" y="1235"/>
      <point x="91" y="985"/>
      <point x="91" y="604" type="curve" smooth="yes"/>
      <point x="91" y="227"/>
      <point x="342" y="-17"/>
    </contour>
    <contour>
      <point x="730" y="1" type="move" name="bottom"/>
    </contour>
    <contour>
      <point x="730" y="1217" type="move" name="top"/>
    </contour>
  </outline>
</glyph>
<glyph name="H" format="1">
  <advance width="1439"/>
  <unicode hex="0048"/>
  <outline>
    <contour>
      <point x="122" y="0" type="curve" smooth="yes"/>
      <point x="584" y="0" type="line" smooth="yes"/>
      <point x="614" y="0"/>
      <point x="632" y="28"/>
      <point x="632" y="60" type="curve" smooth="yes"/>
      <point x="632" y="94"/>
      <point x="619" y="124"/>
      <point x="585" y="124" type="curve" smooth="yes"/>
      <point x="443" y="124" type="line"/>
      <point x="443" y="556" type="line"/>
      <point x="1008" y="556" type="line"/>
      <point x="1008" y="124" type="line"/>
      <point x="866" y="124" type="line" smooth="yes"/>
      <point x="832" y="124"/>
      <point x="819" y="94"/>
      <point x="819" y="60" type="curve" smooth="yes"/>
      <point x="819" y="28"/>
      <point x="837" y="0"/>
      <point x="866" y="0" type="curve" smooth="yes"/>
      <point x="1299" y="0" type="line" smooth="yes"/>
      <point x="1328" y="0"/>
      <point x="1346" y="28"/>
      <point x="1346" y="60" type="curve" smooth="yes"/>
      <point x="1346" y="94"/>
      <point x="1335" y="124"/>
      <point x="1300" y="124" type="curve" smooth="yes"/>
      <point x="1176" y="124" type="line"/>
      <point x="1176" y="1085" type="line"/>
      <point x="1300" y="1085" type="line" smooth="yes"/>
      <point x="1335" y="1085"/>
      <point x="1346" y="1116"/>
      <point x="1346" y="1150" type="curve" smooth="yes"/>
      <point x="1346" y="1181"/>
      <point x="1328" y="1210"/>
      <point x="1299" y="1210" type="curve" smooth="yes"/>
      <point x="866" y="1210" type="line" smooth="yes"/>
      <point x="837" y="1210"/>
      <point x="819" y="1181"/>
      <point x="819" y="1150" type="curve" smooth="yes"/>
      <point x="819" y="1115"/>
      <point x="833" y="1085"/>
      <point x="866" y="1085" type="curve" smooth="yes"/>
      <point x="1008" y="1085" type="line"/>
      <point x="1008" y="679" type="line"/>
      <point x="443" y="679" type="line"/>
      <point x="443" y="1085" type="line"/>
      <point x="585" y="1085" type="line" smooth="yes"/>
      <point x="618" y="1085"/>
      <point x="632" y="1115"/>
      <point x="632" y="1150" type="curve" smooth="yes"/>
      <point x="632" y="1181"/>
      <point x="614" y="1210"/>
      <point x="584" y="1210" type="curve" smooth="yes"/>
      <point x="136" y="1210" type="line" smooth="yes"/>
      <point x="107" y="1210"/>
      <point x="89" y="1181"/>
      <point x="89" y="1150" type="curve" smooth="yes"/>
      <point x="89" y="1115"/>
      <point x="102" y="1085"/>
      <point x="135" y="1085" type="curve" smooth="yes"/>
      <point x="273" y="1085" type="line"/>
      <point x="273" y="124" type="line"/>
      <point x="122" y="124" type="line" smooth="yes"/>
      <point x="88" y="124"/>
      <point x="75" y="94"/>
      <point x="75" y="60" type="curve" smooth="yes"/>
      <point x="75" y="28"/>
      <point x="93" y="0"/>
    </contour>
    <contour>
      <point x="711" y="605" type="move" name="center"/>
    </contour>
    <contour>
      <point x="711" y="1210" type="move" name="top"/>
    </contour>
  </outline>
</glyph>
<glyph name="I" format="1">
  <advance width="691.0"/>
  <unicode hex="0049"/>
  <outline>
    <contour>
      <point x="147.0" y="0.0" type="curve" smooth="yes"/>
      <point x="547.0" y="0.0" type="line" smooth="yes"/>
      <point x="577.0" y="0.0"/>
      <point x="594.0" y="32.0"/>
      <point x="594.0" y="62.0" type="curve" smooth="yes"/>
      <point x="594.0" y="98.0"/>
      <point x="582.0" y="124.0"/>
      <point x="549.0" y="124.0" type="curve" smooth="yes"/>
      <point x="430.0" y="124.0" type="line"/>
      <point x="430.0" y="1085.0" type="line"/>
      <point x="549.0" y="1085.0" type="line" smooth="yes"/>
      <point x="582.0" y="1085.0"/>
      <point x="594.0" y="1115.0"/>
      <point x="594.0" y="1150.0" type="curve" smooth="yes"/>
      <point x="594.0" y="1181.0"/>
      <point x="576.0" y="1209.0"/>
      <point x="547.0" y="1209.0" type="curve" smooth="yes"/>
      <point x="147.0" y="1209.0" type="line" smooth="yes"/>
      <point x="117.0" y="1209.0"/>
      <point x="101.0" y="1180.0"/>
      <point x="101.0" y="1150.0" type="curve" smooth="yes"/>
      <point x="101.0" y="1115.0"/>
      <point x="113.0" y="1085.0"/>
      <point x="146.0" y="1085.0" type="curve" smooth="yes"/>
      <point x="260.0" y="1085.0" type="line"/>
      <point x="260.0" y="124.0" type="line"/>
      <point x="146.0" y="124.0" type="line" smooth="yes"/>
      <point x="113.0" y="124.0"/>
      <point x="101.0" y="98.0"/>
      <point x="101.0" y="62.0" type="curve" smooth="yes"/>
      <point x="101.0" y="32.0"/>
      <point x="117.0" y="0.0"/>
    </contour>
    <contour>
      <point x="905.0" y="7" type="move" name="ogonek"/>
    </contour>
    <contour>
      <point x="347.0" y="1209" type="move" name="top"/>
    </contour>
  </outline>
</glyph>
<glyph name="J" format="1">
  <advance width="765"/>
  <unicode hex="004A"/>
  <outline>
    <contour>
      <point x="521" y="376" type="line" smooth="yes"/>
      <point x="521" y="106"/>
      <point x="413" y="-13"/>
      <point x="250" y="-13" type="curve" smooth="yes"/>
      <point x="141" y="-13"/>
      <point x="53" y="49"/>
      <point x="53" y="149" type="curve" smooth="yes"/>
      <point x="53" y="236" type="line" smooth="yes"/>
      <point x="53" y="280"/>
      <point x="67" y="311"/>
      <point x="130" y="311" type="curve" smooth="yes"/>
      <point x="171" y="311"/>
      <point x="210" y="291"/>
      <point x="210" y="250" type="curve" smooth="yes"/>
      <point x="210" y="168" type="line"/>
      <point x="210" y="127"/>
      <point x="232" y="109"/>
      <point x="259" y="109" type="curve" smooth="yes"/>
      <point x="306" y="109"/>
      <point x="368" y="169"/>
      <point x="368" y="359" type="curve" smooth="yes"/>
      <point x="368" y="1085" type="line"/>
      <point x="223" y="1085" type="line" smooth="yes"/>
      <point x="193" y="1085"/>
      <point x="182" y="1113"/>
      <point x="182" y="1145" type="curve" smooth="yes"/>
      <point x="182" y="1173"/>
      <point x="198" y="1199"/>
      <point x="225" y="1199" type="curve" smooth="yes"/>
      <point x="674" y="1199" type="line" smooth="yes"/>
      <point x="699" y="1199"/>
      <point x="715" y="1173"/>
      <point x="715" y="1145" type="curve" smooth="yes"/>
      <point x="715" y="1112"/>
      <point x="704" y="1085"/>
      <point x="675" y="1085" type="curve" smooth="yes"/>
      <point x="521" y="1085" type="line"/>
    </contour>
    <contour>
      <point x="569" y="1199" type="move" name="top"/>
    </contour>
  </outline>
</glyph>
<glyph name="K" format="1">
  <advance width="1399"/>
  <unicode hex="004B"/>
  <outline>
    <contour>
      <point x="131" y="0" type="curve" smooth="yes"/>
      <point x="601" y="0" type="line" smooth="yes"/>
      <point x="631" y="0"/>
      <point x="649" y="28"/>
      <point x="649" y="59" type="curve" smooth="yes"/>
      <point x="649" y="94"/>
      <point x="635" y="124"/>
      <point x="602" y="124" type="curve" smooth="yes"/>
      <point x="436" y="124" type="line"/>
      <point x="436" y="467" type="line"/>
      <point x="654" y="642" type="line"/>
      <point x="1070" y="124" type="line"/>
      <point x="952" y="124" type="line" smooth="yes"/>
      <point x="919" y="124"/>
      <point x="907" y="94"/>
      <point x="907" y="59" type="curve" smooth="yes"/>
      <point x="907" y="29"/>
      <point x="923" y="0"/>
      <point x="953" y="0" type="curve" smooth="yes"/>
      <point x="1345" y="0" type="line" smooth="yes"/>
      <point x="1374" y="0"/>
      <point x="1393" y="28"/>
      <point x="1393" y="59" type="curve" smooth="yes"/>
      <point x="1393" y="94"/>
      <point x="1379" y="124"/>
      <point x="1347" y="124" type="curve" smooth="yes"/>
      <point x="1267" y="124" type="line"/>
      <point x="758" y="716" type="line"/>
      <point x="1140" y="1084" type="line"/>
      <point x="1232" y="1084" type="line" smooth="yes"/>
      <point x="1266" y="1084"/>
      <point x="1278" y="1115"/>
      <point x="1278" y="1149" type="curve" smooth="yes"/>
      <point x="1278" y="1179"/>
      <point x="1261" y="1208"/>
      <point x="1231" y="1208" type="curve" smooth="yes"/>
      <point x="892" y="1208" type="line" smooth="yes"/>
      <point x="862" y="1208"/>
      <point x="845" y="1179"/>
      <point x="845" y="1149" type="curve" smooth="yes"/>
      <point x="845" y="1109"/>
      <point x="862" y="1094"/>
      <point x="890" y="1094" type="curve" smooth="yes"/>
      <point x="923" y="1094" type="line" smooth="yes"/>
      <point x="936" y="1094"/>
      <point x="945" y="1089"/>
      <point x="945" y="1078" type="curve" smooth="yes"/>
      <point x="945" y="1070"/>
      <point x="938" y="1061"/>
      <point x="934" y="1057" type="curve"/>
      <point x="437" y="593" type="line"/>
      <point x="437" y="1084" type="line"/>
      <point x="550" y="1084" type="line" smooth="yes"/>
      <point x="584" y="1084"/>
      <point x="596" y="1115"/>
      <point x="596" y="1149" type="curve" smooth="yes"/>
      <point x="596" y="1180"/>
      <point x="578" y="1208"/>
      <point x="549" y="1208" type="curve" smooth="yes"/>
      <point x="131" y="1208" type="line" smooth="yes"/>
      <point x="102" y="1208"/>
      <point x="84" y="1180"/>
      <point x="84" y="1149" type="curve" smooth="yes"/>
      <point x="84" y="1114"/>
      <point x="97" y="1084"/>
      <point x="130" y="1084" type="curve" smooth="yes"/>
      <point x="267" y="1084" type="line"/>
      <point x="267" y="124" type="line"/>
      <point x="130" y="124" type="line" smooth="yes"/>
      <point x="97" y="124"/>
      <point x="84" y="94"/>
      <point x="84" y="59" type="curve" smooth="yes"/>
      <point x="84" y="28"/>
      <point x="102" y="0"/>
    </contour>
    <contour>
      <point x="713" y="0" type="move" name="bottom"/>
    </contour>
    <contour>
      <point x="713" y="1208" type="move" name="top"/>
    </contour>
  </outline>
</glyph>
<glyph name="L" format="1">
  <advance width="1272"/>
  <unicode hex="004C"/>
  <outline>
    <contour>
      <point x="108" y="0" type="curve" smooth="yes"/>
      <point x="1153" y="0" type="line" smooth="yes"/>
      <point x="1170" y="0"/>
      <point x="1181" y="21"/>
      <point x="1183" y="48" type="curve" smooth="yes"/>
      <point x="1211" y="400" type="line"/>
      <point x="1211" y="437"/>
      <point x="1182" y="456"/>
      <point x="1149" y="456" type="curve" smooth="yes"/>
      <point x="1115" y="456"/>
      <point x="1097" y="443"/>
      <point x="1095" y="412" type="curve" smooth="yes"/>
      <point x="1080" y="214" type="line"/>
      <point x="1073" y="139"/>
      <point x="999" y="124"/>
      <point x="910" y="124" type="curve" smooth="yes"/>
      <point x="450" y="124" type="line"/>
      <point x="450" y="1085" type="line"/>
      <point x="593" y="1085" type="line" smooth="yes"/>
      <point x="626" y="1085"/>
      <point x="639" y="1114"/>
      <point x="639" y="1150" type="curve" smooth="yes"/>
      <point x="639" y="1181"/>
      <point x="621" y="1209"/>
      <point x="592" y="1209" type="curve" smooth="yes"/>
      <point x="148" y="1209" type="line" smooth="yes"/>
      <point x="119" y="1209"/>
      <point x="101" y="1181"/>
      <point x="101" y="1150" type="curve" smooth="yes"/>
      <point x="101" y="1115"/>
      <point x="114" y="1085"/>
      <point x="147" y="1085" type="curve" smooth="yes"/>
      <point x="280" y="1085" type="line"/>
      <point x="280" y="124" type="line"/>
      <point x="107" y="124" type="line" smooth="yes"/>
      <point x="74" y="124"/>
      <point x="61" y="95"/>
      <point x="61" y="59" type="curve" smooth="yes"/>
      <point x="61" y="28"/>
      <point x="79" y="0"/>
    </contour>
    <contour>
      <point x="688" y="0" type="move" name="bottom"/>
    </contour>
    <contour>
      <point x="688" y="1209" type="move" name="top"/>
    </contour>
  </outline>
</glyph>
<glyph name="M" format="1">
  <advance width="1790"/>
  <unicode hex="004D"/>
  <outline>
    <contour>
      <point x="125" y="0" type="curve" smooth="yes"/>
      <point x="557" y="0" type="line" smooth="yes"/>
      <point x="586" y="0"/>
      <point x="604" y="29"/>
      <point x="604" y="59" type="curve" smooth="yes"/>
      <point x="604" y="94"/>
      <point x="590" y="124"/>
      <point x="557" y="124" type="curve" smooth="yes"/>
      <point x="420" y="124" type="line"/>
      <point x="420" y="882" type="line"/>
      <point x="821" y="65" type="line" smooth="yes"/>
      <point x="830" y="47"/>
      <point x="850" y="26"/>
      <point x="879" y="26" type="curve" smooth="yes"/>
      <point x="912" y="26"/>
      <point x="933" y="47"/>
      <point x="940" y="72" type="curve"/>
      <point x="1375" y="872" type="line"/>
      <point x="1375" y="124" type="line"/>
      <point x="1262" y="124" type="line" smooth="yes"/>
      <point x="1227" y="124"/>
      <point x="1214" y="93"/>
      <point x="1214" y="59" type="curve" smooth="yes"/>
      <point x="1214" y="28"/>
      <point x="1232" y="0"/>
      <point x="1262" y="0" type="curve" smooth="yes"/>
      <point x="1660" y="0" type="line" smooth="yes"/>
      <point x="1690" y="0"/>
      <point x="1707" y="28"/>
      <point x="1707" y="59" type="curve" smooth="yes"/>
      <point x="1707" y="94"/>
      <point x="1695" y="124"/>
      <point x="1662" y="124" type="curve" smooth="yes"/>
      <point x="1527" y="124" type="line"/>
      <point x="1527" y="1085" type="line"/>
      <point x="1648" y="1085" type="line" smooth="yes"/>
      <point x="1681" y="1085"/>
      <point x="1694" y="1115"/>
      <point x="1694" y="1150" type="curve" smooth="yes"/>
      <point x="1694" y="1182"/>
      <point x="1676" y="1210"/>
      <point x="1647" y="1210" type="curve" smooth="yes"/>
      <point x="1433" y="1210" type="line" smooth="yes"/>
      <point x="1412" y="1210"/>
      <point x="1399" y="1195"/>
      <point x="1391" y="1180" type="curve" smooth="yes"/>
      <point x="878" y="232" type="line"/>
      <point x="406" y="1174" type="line" smooth="yes"/>
      <point x="397" y="1192"/>
      <point x="386" y="1210"/>
      <point x="364" y="1210" type="curve" smooth="yes"/>
      <point x="137" y="1210" type="line" smooth="yes"/>
      <point x="108" y="1210"/>
      <point x="90" y="1182"/>
      <point x="90" y="1150" type="curve" smooth="yes"/>
      <point x="90" y="1115"/>
      <point x="103" y="1085"/>
      <point x="136" y="1085" type="curve" smooth="yes"/>
      <point x="272" y="1085" type="line"/>
      <point x="272" y="124" type="line"/>
      <point x="123" y="124" type="line" smooth="yes"/>
      <point x="89" y="124"/>
      <point x="76" y="93"/>
      <point x="76" y="59" type="curve" smooth="yes"/>
      <point x="76" y="28"/>
      <point x="95" y="0"/>
    </contour>
  </outline>
</glyph>
<glyph name="N" format="1">
  <advance width="1482.0"/>
  <unicode hex="004E"/>
  <outline>
    <contour>
      <point x="1173.0" y="-26.0" type="curve" smooth="yes"/>
      <point x="1207.0" y="-26.0"/>
      <point x="1235.0" y="2.0"/>
      <point x="1235.0" y="38.0" type="curve" smooth="yes"/>
      <point x="1235.0" y="1086.0" type="line"/>
      <point x="1376.0" y="1086.0" type="line" smooth="yes"/>
      <point x="1409.0" y="1086.0"/>
      <point x="1422.0" y="1116.0"/>
      <point x="1422.0" y="1151.0" type="curve" smooth="yes"/>
      <point x="1422.0" y="1181.0"/>
      <point x="1404.0" y="1210.0"/>
      <point x="1374.0" y="1210.0" type="curve" smooth="yes"/>
      <point x="981.0" y="1210.0" type="line" smooth="yes"/>
      <point x="952.0" y="1210.0"/>
      <point x="934.0" y="1181.0"/>
      <point x="934.0" y="1151.0" type="curve" smooth="yes"/>
      <point x="934.0" y="1116.0"/>
      <point x="948.0" y="1086.0"/>
      <point x="981.0" y="1086.0" type="curve" smooth="yes"/>
      <point x="1088.0" y="1086.0" type="line"/>
      <point x="1088.0" y="301.0" type="line"/>
      <point x="488.0" y="1186.0" type="line"/>
      <point x="480.0" y="1204.0"/>
      <point x="470.0" y="1210.0"/>
      <point x="451.0" y="1210.0" type="curve" smooth="yes"/>
      <point x="144.0" y="1210.0" type="line" smooth="yes"/>
      <point x="114.0" y="1210.0"/>
      <point x="95.0" y="1181.0"/>
      <point x="95.0" y="1151.0" type="curve" smooth="yes"/>
      <point x="95.0" y="1116.0"/>
      <point x="109.0" y="1086.0"/>
      <point x="142.0" y="1086.0" type="curve" smooth="yes"/>
      <point x="264.0" y="1086.0" type="line"/>
      <point x="264.0" y="125.0" type="line"/>
      <point x="133.0" y="125.0" type="line" smooth="yes"/>
      <point x="99.0" y="125.0"/>
      <point x="86.0" y="94.0"/>
      <point x="86.0" y="60.0" type="curve" smooth="yes"/>
      <point x="86.0" y="29.0"/>
      <point x="105.0" y="0.0"/>
      <point x="135.0" y="0.0" type="curve" smooth="yes"/>
      <point x="521.0" y="0.0" type="line" smooth="yes"/>
      <point x="550.0" y="0.0"/>
      <point x="568.0" y="29.0"/>
      <point x="568.0" y="60.0" type="curve" smooth="yes"/>
      <point x="568.0" y="95.0"/>
      <point x="555.0" y="125.0"/>
      <point x="522.0" y="125.0" type="curve" smooth="yes"/>
      <point x="415.0" y="125.0" type="line"/>
      <point x="415.0" y="1028.0" type="line"/>
      <point x="1113.0" y="12.0" type="line" smooth="yes"/>
      <point x="1124.0" y="-4.0"/>
      <point x="1137.0" y="-26.0"/>
    </contour>
    <contour>
      <point x="750.0" y="-11" type="move" name="bottom"/>
    </contour>
    <contour>
      <point x="750.0" y="1210" type="move" name="top"/>
    </contour>
  </outline>
</glyph>
<glyph name="O" format="1">
  <advance width="1335"/>
  <unicode hex="004F"/>
  <outline>
    <contour>
      <point x="668" y="-25" type="curve" smooth="yes"/>
      <point x="1015" y="-25"/>
      <point x="1243" y="222"/>
      <point x="1243" y="600" type="curve" smooth="yes"/>
      <point x="1243" y="981"/>
      <point x="1015" y="1236"/>
      <point x="668" y="1236" type="curve" smooth="yes"/>
      <point x="320" y="1236"/>
      <point x="92" y="981"/>
      <point x="92" y="600" type="curve" smooth="yes"/>
      <point x="92" y="222"/>
      <point x="320" y="-25"/>
    </contour>
    <contour>
      <point x="668" y="110" type="curve" smooth="yes"/>
      <point x="404" y="110"/>
      <point x="278" y="351"/>
      <point x="278" y="595" type="curve" smooth="yes"/>
      <point x="278" y="842"/>
      <point x="402" y="1101"/>
      <point x="668" y="1101" type="curve"/>
      <point x="933" y="1101"/>
      <point x="1058" y="842"/>
      <point x="1058" y="595" type="curve" smooth="yes"/>
      <point x="1058" y="352"/>
      <point x="932" y="110"/>
    </contour>
    <contour>
      <point x="671" y="1219" type="move" name="top"/>
    </contour>
  </outline>
</glyph>
<glyph name="P" format="1">
  <advance width="1227.0"/>
  <unicode hex="0050"/>
  <outline>
    <contour>
      <point x="115.0" y="0.0" type="curve" smooth="yes"/>
      <point x="613.0" y="0.0" type="line" smooth="yes"/>
      <point x="642.0" y="0.0"/>
      <point x="660.0" y="28.0"/>
      <point x="660.0" y="59.0" type="curve" smooth="yes"/>
      <point x="660.0" y="95.0"/>
      <point x="647.0" y="124.0"/>
      <point x="614.0" y="124.0" type="curve" smooth="yes"/>
      <point x="455.0" y="124.0" type="line"/>
      <point x="455.0" y="512.0" type="line"/>
      <point x="603.0" y="512.0" type="line" smooth="yes"/>
      <point x="854.0" y="512.0"/>
      <point x="1171.0" y="512.0"/>
      <point x="1171.0" y="852.0" type="curve" smooth="yes"/>
      <point x="1171.0" y="1203.0"/>
      <point x="848.0" y="1209.0"/>
      <point x="580.0" y="1209.0" type="curve" smooth="yes"/>
      <point x="129.0" y="1209.0" type="line" smooth="yes"/>
      <point x="99.0" y="1209.0"/>
      <point x="82.0" y="1180.0"/>
      <point x="82.0" y="1150.0" type="curve" smooth="yes"/>
      <point x="82.0" y="1115.0"/>
      <point x="95.0" y="1085.0"/>
      <point x="128.0" y="1085.0" type="curve" smooth="yes"/>
      <point x="286.0" y="1085.0" type="line"/>
      <point x="286.0" y="124.0" type="line"/>
      <point x="114.0" y="124.0" type="line" smooth="yes"/>
      <point x="81.0" y="124.0"/>
      <point x="68.0" y="95.0"/>
      <point x="68.0" y="59.0" type="curve" smooth="yes"/>
      <point x="68.0" y="28.0"/>
      <point x="86.0" y="0.0"/>
    </contour>
    <contour>
      <point x="455.0" y="627.0" type="line"/>
      <point x="455.0" y="1085.0" type="line"/>
      <point x="598.0" y="1085.0" type="line" smooth="yes"/>
      <point x="778.0" y="1085.0"/>
      <point x="999.0" y="1085.0"/>
      <point x="999.0" y="863.0" type="curve" smooth="yes"/>
      <point x="999.0" y="629.0"/>
      <point x="804.0" y="627.0"/>
      <point x="637.0" y="627.0" type="curve" smooth="yes"/>
    </contour>
  </outline>
</glyph>
<glyph name="Q" format="1">
  <advance width="1335.0"/>
  <unicode hex="0051"/>
  <outline>
    <contour>
      <point x="668.0" y="-25.0" type="curve" smooth="yes"/>
      <point x="1015.0" y="-25.0"/>
      <point x="1243.0" y="222.0"/>
      <point x="1243.0" y="600.0" type="curve" smooth="yes"/>
      <point x="1243.0" y="981.0"/>
      <point x="1015.0" y="1236.0"/>
      <point x="668.0" y="1236.0" type="curve" smooth="yes"/>
      <point x="320.0" y="1236.0"/>
      <point x="92.0" y="981.0"/>
      <point x="92.0" y="600.0" type="curve" smooth="yes"/>
      <point x="92.0" y="222.0"/>
      <point x="320.0" y="-25.0"/>
    </contour>
    <contour>
      <point x="1029.0" y="-246.0" type="curve" smooth="yes"/>
      <point x="1093.0" y="-246.0"/>
      <point x="1276.0" y="-197.0"/>
      <point x="1276.0" y="-112.0" type="curve" smooth="yes"/>
      <point x="1276.0" y="-73.0"/>
      <point x="1236.0" y="-36.0"/>
      <point x="1196.0" y="-36.0" type="curve" smooth="yes"/>
      <point x="1188.0" y="-36.0"/>
      <point x="1178.0" y="-39.0"/>
      <point x="1171.0" y="-45.0" type="curve" smooth="yes"/>
      <point x="1122.0" y="-84.0"/>
      <point x="1082.0" y="-106.0"/>
      <point x="1045.0" y="-106.0" type="curve" smooth="yes"/>
      <point x="1028.0" y="-106.0"/>
      <point x="1007.0" y="-103.0"/>
      <point x="989.0" y="-91.0" type="curve"/>
      <point x="778.0" y="36.0" type="line"/>
      <point x="612.0" y="14.0" type="line"/>
      <point x="756.0" y="-16.0"/>
      <point x="840.0" y="-246.0"/>
    </contour>
    <contour>
      <point x="668.0" y="110.0" type="curve" smooth="yes"/>
      <point x="404.0" y="110.0"/>
      <point x="278.0" y="351.0"/>
      <point x="278.0" y="595.0" type="curve" smooth="yes"/>
      <point x="278.0" y="842.0"/>
      <point x="402.0" y="1101.0"/>
      <point x="668.0" y="1101.0" type="curve"/>
      <point x="933.0" y="1101.0"/>
      <point x="1058.0" y="842.0"/>
      <point x="1058.0" y="595.0" type="curve" smooth="yes"/>
      <point x="1058.0" y="352.0"/>
      <point x="932.0" y="110.0"/>
    </contour>
  </outline>
</glyph>
<glyph name="R" format="1">
  <advance width="1286.0"/>
  <unicode hex="0052"/>
  <outline>
    <contour>
      <point x="119.0" y="0.0" type="curve" smooth="yes"/>
      <point x="608.0" y="0.0" type="line" smooth="yes"/>
      <point x="637.0" y="0.0"/>
      <point x="655.0" y="29.0"/>
      <point x="655.0" y="59.0" type="curve" smooth="yes"/>
      <point x="655.0" y="94.0"/>
      <point x="643.0" y="125.0"/>
      <point x="610.0" y="125.0" type="curve" smooth="yes"/>
      <point x="439.0" y="125.0" type="line"/>
      <point x="439.0" y="539.0" type="line"/>
      <point x="579.0" y="539.0" type="line" smooth="yes"/>
      <point x="782.0" y="539.0"/>
      <point x="832.0" y="432.0"/>
      <point x="859.0" y="323.0" type="curve" smooth="yes"/>
      <point x="909.0" y="125.0" type="line"/>
      <point x="814.0" y="125.0" type="line" smooth="yes"/>
      <point x="781.0" y="125.0"/>
      <point x="768.0" y="94.0"/>
      <point x="768.0" y="59.0" type="curve" smooth="yes"/>
      <point x="768.0" y="28.0"/>
      <point x="786.0" y="0.0"/>
      <point x="815.0" y="0.0" type="curve" smooth="yes"/>
      <point x="1181.0" y="0.0" type="line" smooth="yes"/>
      <point x="1216.0" y="0.0"/>
      <point x="1252.0" y="4.0"/>
      <point x="1252.0" y="59.0" type="curve" smooth="yes"/>
      <point x="1252.0" y="112.0"/>
      <point x="1229.0" y="125.0"/>
      <point x="1180.0" y="125.0" type="curve" smooth="yes"/>
      <point x="1081.0" y="125.0" type="line"/>
      <point x="1000.0" y="379.0" type="line" smooth="yes"/>
      <point x="970.0" y="474.0"/>
      <point x="912.0" y="544.0"/>
      <point x="758.0" y="576.0" type="curve"/>
      <point x="948.0" y="608.0"/>
      <point x="1104.0" y="689.0"/>
      <point x="1104.0" y="881.0" type="curve" smooth="yes"/>
      <point x="1104.0" y="1210.0"/>
      <point x="768.0" y="1210.0"/>
      <point x="552.0" y="1210.0" type="curve" smooth="yes"/>
      <point x="146.0" y="1210.0" type="line" smooth="yes"/>
      <point x="116.0" y="1210.0"/>
      <point x="98.0" y="1180.0"/>
      <point x="98.0" y="1150.0" type="curve" smooth="yes"/>
      <point x="98.0" y="1116.0"/>
      <point x="111.0" y="1085.0"/>
      <point x="145.0" y="1085.0" type="curve" smooth="yes"/>
      <point x="269.0" y="1085.0" type="line"/>
      <point x="269.0" y="125.0" type="line"/>
      <point x="118.0" y="125.0" type="line" smooth="yes"/>
      <point x="85.0" y="125.0"/>
      <point x="72.0" y="95.0"/>
      <point x="72.0" y="59.0" type="curve" smooth="yes"/>
      <point x="72.0" y="28.0"/>
      <point x="90.0" y="0.0"/>
    </contour>
    <contour>
      <point x="439.0" y="665.0" type="line"/>
      <point x="439.0" y="1085.0" type="line"/>
      <point x="526.0" y="1085.0" type="line" smooth="yes"/>
      <point x="692.0" y="1085.0"/>
      <point x="927.0" y="1085.0"/>
      <point x="927.0" y="874.0" type="curve" smooth="yes"/>
      <point x="927.0" y="665.0"/>
      <point x="738.0" y="665.0"/>
      <point x="563.0" y="665.0" type="curve" smooth="yes"/>
    </contour>
    <contour>
      <point x="725.0" y="0" type="move" name="bottom"/>
    </contour>
    <contour>
      <point x="725.0" y="1210" type="move" name="top"/>
    </contour>
  </outline>
</glyph>
<glyph name="S" format="1">
  <advance width="1050.0"/>
  <unicode hex="0053"/>
  <outline>
    <contour>
      <point x="176.0" y="-17.0" type="curve" smooth="yes"/>
      <point x="206.0" y="-17.0"/>
      <point x="236.0" y="-7.0"/>
      <point x="237.0" y="68.0" type="curve"/>
      <point x="328.0" y="4.0"/>
      <point x="402.0" y="-17.0"/>
      <point x="507.0" y="-17.0" type="curve" smooth="yes"/>
      <point x="728.0" y="-17.0"/>
      <point x="944.0" y="75.0"/>
      <point x="944.0" y="337.0" type="curve" smooth="yes"/>
      <point x="944.0" y="555.0"/>
      <point x="794.0" y="636.0"/>
      <point x="664.0" y="672.0" type="curve" smooth="yes"/>
      <point x="467.0" y="727.0" type="line" smooth="yes"/>
      <point x="414.0" y="742.0"/>
      <point x="312.0" y="768.0"/>
      <point x="312.0" y="910.0" type="curve" smooth="yes"/>
      <point x="312.0" y="1002.0"/>
      <point x="355.0" y="1101.0"/>
      <point x="552.0" y="1101.0" type="curve" smooth="yes"/>
      <point x="674.0" y="1101.0"/>
      <point x="771.0" y="1063.0"/>
      <point x="783.0" y="956.0" type="curve"/>
      <point x="783.0" y="888.0" type="line"/>
      <point x="783.0" y="848.0"/>
      <point x="811.0" y="832.0"/>
      <point x="843.0" y="832.0" type="curve" smooth="yes"/>
      <point x="880.0" y="832.0"/>
      <point x="906.0" y="848.0"/>
      <point x="906.0" y="888.0" type="curve"/>
      <point x="906.0" y="1164.0" type="line"/>
      <point x="906.0" y="1193.0"/>
      <point x="874.0" y="1211.0"/>
      <point x="849.0" y="1211.0" type="curve" smooth="yes"/>
      <point x="812.0" y="1211.0"/>
      <point x="784.0" y="1171.0"/>
      <point x="784.0" y="1133.0" type="curve"/>
      <point x="723.0" y="1189.0"/>
      <point x="629.0" y="1211.0"/>
      <point x="538.0" y="1211.0" type="curve" smooth="yes"/>
      <point x="327.0" y="1211.0"/>
      <point x="155.0" y="1093.0"/>
      <point x="155.0" y="877.0" type="curve" smooth="yes"/>
      <point x="155.0" y="705.0"/>
      <point x="263.0" y="611.0"/>
      <point x="416.0" y="575.0" type="curve"/>
      <point x="640.0" y="507.0" type="line" smooth="yes"/>
      <point x="710.0" y="486.0"/>
      <point x="800.0" y="451.0"/>
      <point x="800.0" y="326.0" type="curve" smooth="yes"/>
      <point x="800.0" y="146.0"/>
      <point x="612.0" y="106.0"/>
      <point x="498.0" y="106.0" type="curve" smooth="yes"/>
      <point x="300.0" y="106.0"/>
      <point x="232.0" y="228.0"/>
      <point x="232.0" y="286.0" type="curve" smooth="yes"/>
      <point x="232.0" y="373.0" type="line"/>
      <point x="232.0" y="416.0"/>
      <point x="204.0" y="429.0"/>
      <point x="172.0" y="429.0" type="curve" smooth="yes"/>
      <point x="136.0" y="429.0"/>
      <point x="109.0" y="416.0"/>
      <point x="109.0" y="373.0" type="curve"/>
      <point x="109.0" y="39.0" type="line" smooth="yes"/>
      <point x="109.0" y="-2.0"/>
      <point x="140.0" y="-17.0"/>
    </contour>
    <contour>
      <point x="737.0" y="-8" type="move" name="bottom"/>
    </contour>
    <contour>
      <point x="737.0" y="1194" type="move" name="top"/>
    </contour>
  </outline>
</glyph>
<glyph name="T" format="1">
  <advance width="1169"/>
  <unicode hex="0054"/>
  <outline>
    <contour>
      <point x="343" y="0" type="curve" smooth="yes"/>
      <point x="811" y="0" type="line" smooth="yes"/>
      <point x="842" y="0"/>
      <point x="858" y="29"/>
      <point x="858" y="59" type="curve" smooth="yes"/>
      <point x="858" y="95"/>
      <point x="846" y="124"/>
      <point x="813" y="124" type="curve" smooth="yes"/>
      <point x="661" y="124" type="line"/>
      <point x="661" y="1085" type="line"/>
      <point x="988" y="1085" type="line"/>
      <point x="1010" y="882" type="line" smooth="yes"/>
      <point x="1014" y="847"/>
      <point x="1033" y="835"/>
      <point x="1067" y="835" type="curve" smooth="yes"/>
      <point x="1097" y="835"/>
      <point x="1110" y="858"/>
      <point x="1110" y="891" type="curve"/>
      <point x="1098" y="1154" type="line" smooth="yes"/>
      <point x="1096" y="1190"/>
      <point x="1086" y="1209"/>
      <point x="1059" y="1209" type="curve" smooth="yes"/>
      <point x="112" y="1209" type="line" smooth="yes"/>
      <point x="83" y="1209"/>
      <point x="75" y="1191"/>
      <point x="73" y="1154" type="curve" smooth="yes"/>
      <point x="60" y="891" type="line"/>
      <point x="60" y="858"/>
      <point x="73" y="835"/>
      <point x="103" y="835" type="curve" smooth="yes"/>
      <point x="137" y="835"/>
      <point x="156" y="846"/>
      <point x="160" y="882" type="curve" smooth="yes"/>
      <point x="182" y="1085" type="line"/>
      <point x="493" y="1085" type="line"/>
      <point x="493" y="124" type="line"/>
      <point x="341" y="124" type="line" smooth="yes"/>
      <point x="308" y="124"/>
      <point x="296" y="94"/>
      <point x="296" y="59" type="curve" smooth="yes"/>
      <point x="296" y="28"/>
      <point x="314" y="0"/>
    </contour>
    <contour>
      <point x="585" y="0" type="move" name="bottom"/>
    </contour>
    <contour>
      <point x="585" y="604" type="move" name="center"/>
    </contour>
    <contour>
      <point x="585" y="1209" type="move" name="top"/>
    </contour>
  </outline>
</glyph>
<glyph name="U" format="1">
  <advance width="1299.0"/>
  <unicode hex="0055"/>
  <outline>
    <contour>
      <point x="667.0" y="-17.0" type="curve" smooth="yes"/>
      <point x="909.0" y="-17.0"/>
      <point x="1074.0" y="164.0"/>
      <point x="1074.0" y="425.0" type="curve" smooth="yes"/>
      <point x="1074.0" y="1085.0" type="line"/>
      <point x="1186.0" y="1085.0" type="line" smooth="yes"/>
      <point x="1215.0" y="1085.0"/>
      <point x="1225.0" y="1114.0"/>
      <point x="1225.0" y="1150.0" type="curve" smooth="yes"/>
      <point x="1225.0" y="1181.0"/>
      <point x="1209.0" y="1209.0"/>
      <point x="1184.0" y="1209.0" type="curve" smooth="yes"/>
      <point x="817.0" y="1209.0" type="line" smooth="yes"/>
      <point x="786.0" y="1209.0"/>
      <point x="768.0" y="1181.0"/>
      <point x="768.0" y="1150.0" type="curve" smooth="yes"/>
      <point x="768.0" y="1115.0"/>
      <point x="781.0" y="1085.0"/>
      <point x="814.0" y="1085.0" type="curve" smooth="yes"/>
      <point x="940.0" y="1085.0" type="line"/>
      <point x="940.0" y="425.0" type="line" smooth="yes"/>
      <point x="940.0" y="240.0"/>
      <point x="833.0" y="109.0"/>
      <point x="667.0" y="109.0" type="curve" smooth="yes"/>
      <point x="484.0" y="109.0"/>
      <point x="381.0" y="225.0"/>
      <point x="381.0" y="426.0" type="curve" smooth="yes"/>
      <point x="381.0" y="1085.0" type="line"/>
      <point x="504.0" y="1085.0" type="line" smooth="yes"/>
      <point x="537.0" y="1085.0"/>
      <point x="549.0" y="1115.0"/>
      <point x="549.0" y="1150.0" type="curve" smooth="yes"/>
      <point x="549.0" y="1181.0"/>
      <point x="532.0" y="1209.0"/>
      <point x="503.0" y="1209.0" type="curve" smooth="yes"/>
      <point x="128.0" y="1209.0" type="line" smooth="yes"/>
      <point x="99.0" y="1209.0"/>
      <point x="81.0" y="1181.0"/>
      <point x="81.0" y="1150.0" type="curve" smooth="yes"/>
      <point x="81.0" y="1115.0"/>
      <point x="94.0" y="1085.0"/>
      <point x="128.0" y="1085.0" type="curve" smooth="yes"/>
      <point x="211.0" y="1085.0" type="line"/>
      <point x="211.0" y="426.0" type="line" smooth="yes"/>
      <point x="211.0" y="147.0"/>
      <point x="399.0" y="-17.0"/>
    </contour>
    <contour>
      <point x="1168.0" y="8" type="move" name="ogonek"/>
    </contour>
    <contour>
      <point x="648.0" y="1209" type="move" name="top"/>
    </contour>
  </outline>
</glyph>
<glyph name="V" format="1">
  <advance width="1250"/>
  <unicode hex="0056"/>
  <outline>
    <contour>
      <point x="632" y="-36" type="curve" smooth="yes"/>
      <point x="667" y="-36"/>
      <point x="678" y="-15"/>
      <point x="693" y="22" type="curve"/>
      <point x="1065" y="1085" type="line"/>
      <point x="1183" y="1085" type="line" smooth="yes"/>
      <point x="1216" y="1085"/>
      <point x="1229" y="1115"/>
      <point x="1229" y="1150" type="curve" smooth="yes"/>
      <point x="1229" y="1180"/>
      <point x="1211" y="1209"/>
      <point x="1181" y="1209" type="curve" smooth="yes"/>
      <point x="822" y="1209" type="line" smooth="yes"/>
      <point x="793" y="1209"/>
      <point x="775" y="1181"/>
      <point x="775" y="1150" type="curve" smooth="yes"/>
      <point x="775" y="1116"/>
      <point x="786" y="1085"/>
      <point x="820" y="1085" type="curve" smooth="yes"/>
      <point x="920" y="1085" type="line"/>
      <point x="655" y="235" type="line"/>
      <point x="378" y="1085" type="line"/>
      <point x="476" y="1085" type="line" smooth="yes"/>
      <point x="509" y="1085"/>
      <point x="522" y="1115"/>
      <point x="522" y="1150" type="curve" smooth="yes"/>
      <point x="522" y="1181"/>
      <point x="504" y="1209"/>
      <point x="475" y="1209" type="curve" smooth="yes"/>
      <point x="55" y="1209" type="line" smooth="yes"/>
      <point x="26" y="1209"/>
      <point x="9" y="1181"/>
      <point x="9" y="1150" type="curve" smooth="yes"/>
      <point x="9" y="1115"/>
      <point x="21" y="1085"/>
      <point x="55" y="1085" type="curve" smooth="yes"/>
      <point x="203" y="1085" type="line"/>
      <point x="573" y="22" type="line" smooth="yes"/>
      <point x="584" y="-9"/>
      <point x="597" y="-36"/>
    </contour>
  </outline>
</glyph>
<glyph name="W" format="1">
  <advance width="1613.0"/>
  <unicode hex="0057"/>
  <outline>
    <contour>
      <point x="530.0" y="-17.0" type="curve" smooth="yes"/>
      <point x="564.0" y="-17.0"/>
      <point x="602.0" y="2.0"/>
      <point x="611.0" y="29.0" type="curve"/>
      <point x="806.0" y="802.0" type="line"/>
      <point x="973.0" y="35.0" type="line"/>
      <point x="977.0" y="1.0"/>
      <point x="1004.0" y="-17.0"/>
      <point x="1042.0" y="-17.0" type="curve" smooth="yes"/>
      <point x="1076.0" y="-17.0"/>
      <point x="1108.0" y="4.0"/>
      <point x="1119.0" y="29.0" type="curve"/>
      <point x="1439.0" y="1085.0" type="line"/>
      <point x="1559.0" y="1085.0" type="line" smooth="yes"/>
      <point x="1588.0" y="1085.0"/>
      <point x="1606.0" y="1114.0"/>
      <point x="1606.0" y="1145.0" type="curve" smooth="yes"/>
      <point x="1606.0" y="1180.0"/>
      <point x="1594.0" y="1209.0"/>
      <point x="1561.0" y="1209.0" type="curve" smooth="yes"/>
      <point x="1224.0" y="1209.0" type="line" smooth="yes"/>
      <point x="1191.0" y="1209.0"/>
      <point x="1178.0" y="1180.0"/>
      <point x="1178.0" y="1145.0" type="curve" smooth="yes"/>
      <point x="1178.0" y="1115.0"/>
      <point x="1195.0" y="1085.0"/>
      <point x="1225.0" y="1085.0" type="curve" smooth="yes"/>
      <point x="1295.0" y="1085.0" type="line"/>
      <point x="1064.0" y="284.0" type="line"/>
      <point x="872.0" y="1110.0" type="line" smooth="yes"/>
      <point x="868.0" y="1128.0"/>
      <point x="860.0" y="1145.0"/>
      <point x="825.0" y="1145.0" type="curve" smooth="yes"/>
      <point x="790.0" y="1145.0"/>
      <point x="783.0" y="1126.0"/>
      <point x="778.0" y="1109.0" type="curve" smooth="yes"/>
      <point x="550.0" y="270.0" type="line"/>
      <point x="351.0" y="1085.0" type="line"/>
      <point x="396.0" y="1085.0" type="line" smooth="yes"/>
      <point x="426.0" y="1085.0"/>
      <point x="444.0" y="1114.0"/>
      <point x="444.0" y="1145.0" type="curve" smooth="yes"/>
      <point x="444.0" y="1179.0"/>
      <point x="431.0" y="1209.0"/>
      <point x="397.0" y="1209.0" type="curve" smooth="yes"/>
      <point x="66.0" y="1209.0" type="line" smooth="yes"/>
      <point x="33.0" y="1209.0"/>
      <point x="21.0" y="1180.0"/>
      <point x="21.0" y="1145.0" type="curve" smooth="yes"/>
      <point x="21.0" y="1114.0"/>
      <point x="38.0" y="1085.0"/>
      <point x="67.0" y="1085.0" type="curve" smooth="yes"/>
      <point x="181.0" y="1085.0" type="line"/>
      <point x="457.0" y="38.0" type="line"/>
      <point x="464.0" y="1.0"/>
      <point x="488.0" y="-17.0"/>
    </contour>
    <contour>
      <point x="805.0" y="1209" type="move" name="top"/>
    </contour>
  </outline>
</glyph>
<glyph name="X" format="1">
  <advance width="1382"/>
  <unicode hex="0058"/>
  <outline>
    <contour>
      <point x="79" y="0" type="curve" smooth="yes"/>
      <point x="531" y="0" type="line" smooth="yes"/>
      <point x="561" y="0"/>
      <point x="581" y="28"/>
      <point x="581" y="59" type="curve" smooth="yes"/>
      <point x="581" y="94"/>
      <point x="566" y="124"/>
      <point x="532" y="124" type="curve" smooth="yes"/>
      <point x="367" y="124" type="line"/>
      <point x="685" y="516" type="line"/>
      <point x="1004" y="124" type="line"/>
      <point x="815" y="124" type="line" smooth="yes"/>
      <point x="782" y="124"/>
      <point x="769" y="95"/>
      <point x="769" y="59" type="curve" smooth="yes"/>
      <point x="769" y="28"/>
      <point x="787" y="0"/>
      <point x="816" y="0" type="curve" smooth="yes"/>
      <point x="1290" y="0" type="line" smooth="yes"/>
      <point x="1319" y="0"/>
      <point x="1340" y="28"/>
      <point x="1340" y="59" type="curve" smooth="yes"/>
      <point x="1340" y="95"/>
      <point x="1324" y="124"/>
      <point x="1291" y="124" type="curve" smooth="yes"/>
      <point x="1211" y="124" type="line"/>
      <point x="788" y="632" type="line"/>
      <point x="1157" y="1085" type="line"/>
      <point x="1275" y="1085" type="line" smooth="yes"/>
      <point x="1309" y="1085"/>
      <point x="1324" y="1116"/>
      <point x="1324" y="1150" type="curve" smooth="yes"/>
      <point x="1324" y="1181"/>
      <point x="1303" y="1209"/>
      <point x="1273" y="1209" type="curve" smooth="yes"/>
      <point x="874" y="1209" type="line" smooth="yes"/>
      <point x="845" y="1209"/>
      <point x="824" y="1181"/>
      <point x="824" y="1150" type="curve" smooth="yes"/>
      <point x="824" y="1115"/>
      <point x="840" y="1085"/>
      <point x="873" y="1085" type="curve" smooth="yes"/>
      <point x="997" y="1085" type="line"/>
      <point x="709" y="725" type="line"/>
      <point x="420" y="1085" type="line"/>
      <point x="529" y="1085" type="line" smooth="yes"/>
      <point x="562" y="1085"/>
      <point x="578" y="1115"/>
      <point x="578" y="1150" type="curve" smooth="yes"/>
      <point x="578" y="1181"/>
      <point x="558" y="1209"/>
      <point x="528" y="1209" type="curve" smooth="yes"/>
      <point x="126" y="1209" type="line" smooth="yes"/>
      <point x="96" y="1209"/>
      <point x="75" y="1181"/>
      <point x="75" y="1150" type="curve" smooth="yes"/>
      <point x="75" y="1116"/>
      <point x="90" y="1085"/>
      <point x="124" y="1085" type="curve" smooth="yes"/>
      <point x="214" y="1085" type="line"/>
      <point x="605" y="610" type="line"/>
      <point x="208" y="124" type="line"/>
      <point x="78" y="124" type="line" smooth="yes"/>
      <point x="45" y="124"/>
      <point x="30" y="94"/>
      <point x="30" y="59" type="curve" smooth="yes"/>
      <point x="30" y="28"/>
      <point x="50" y="0"/>
    </contour>
  </outline>
</glyph>
<glyph name="Y" format="1">
  <advance width="1206.0"/>
  <unicode hex="0059"/>
  <outline>
    <contour>
      <point x="377.0" y="0.0" type="curve" smooth="yes"/>
      <point x="813.0" y="0.0" type="line" smooth="yes"/>
      <point x="843.0" y="0.0"/>
      <point x="860.0" y="28.0"/>
      <point x="860.0" y="60.0" type="curve" smooth="yes"/>
      <point x="860.0" y="95.0"/>
      <point x="848.0" y="125.0"/>
      <point x="814.0" y="125.0" type="curve" smooth="yes"/>
      <point x="694.0" y="125.0" type="line"/>
      <point x="694.0" y="515.0" type="line"/>
      <point x="1022.0" y="1095.0" type="line"/>
      <point x="1125.0" y="1095.0" type="line" smooth="yes"/>
      <point x="1158.0" y="1095.0"/>
      <point x="1171.0" y="1125.0"/>
      <point x="1171.0" y="1160.0" type="curve" smooth="yes"/>
      <point x="1171.0" y="1191.0"/>
      <point x="1153.0" y="1220.0"/>
      <point x="1123.0" y="1220.0" type="curve" smooth="yes"/>
      <point x="782.0" y="1220.0" type="line" smooth="yes"/>
      <point x="751.0" y="1220.0"/>
      <point x="733.0" y="1191.0"/>
      <point x="733.0" y="1160.0" type="curve" smooth="yes"/>
      <point x="733.0" y="1126.0"/>
      <point x="746.0" y="1095.0"/>
      <point x="780.0" y="1095.0" type="curve" smooth="yes"/>
      <point x="886.0" y="1095.0" type="line"/>
      <point x="641.0" y="634.0" type="line"/>
      <point x="395.0" y="1095.0" type="line"/>
      <point x="474.0" y="1095.0" type="line" smooth="yes"/>
      <point x="507.0" y="1095.0"/>
      <point x="520.0" y="1126.0"/>
      <point x="520.0" y="1160.0" type="curve" smooth="yes"/>
      <point x="520.0" y="1191.0"/>
      <point x="502.0" y="1220.0"/>
      <point x="472.0" y="1220.0" type="curve" smooth="yes"/>
      <point x="63.0" y="1220.0" type="line" smooth="yes"/>
      <point x="33.0" y="1220.0"/>
      <point x="15.0" y="1191.0"/>
      <point x="15.0" y="1160.0" type="curve" smooth="yes"/>
      <point x="15.0" y="1125.0"/>
      <point x="28.0" y="1095.0"/>
      <point x="61.0" y="1095.0" type="curve" smooth="yes"/>
      <point x="217.0" y="1095.0" type="line"/>
      <point x="523.0" y="526.0" type="line"/>
      <point x="523.0" y="125.0" type="line"/>
      <point x="376.0" y="125.0" type="line" smooth="yes"/>
      <point x="342.0" y="125.0"/>
      <point x="329.0" y="95.0"/>
      <point x="329.0" y="60.0" type="curve" smooth="yes"/>
      <point x="329.0" y="28.0"/>
      <point x="348.0" y="0.0"/>
    </contour>
    <contour>
      <point x="544.0" y="1220" type="move" name="top"/>
    </contour>
  </outline>
</glyph>
<glyph name="Z" format="1">
  <advance width="1159"/>
  <unicode hex="005A"/>
  <outline>
    <contour>
      <point x="128" y="0" type="curve" smooth="yes"/>
      <point x="997" y="0" type="line" smooth="yes"/>
      <point x="1027" y="0"/>
      <point x="1039" y="21"/>
      <point x="1051" y="55" type="curve"/>
      <point x="1095" y="387" type="line"/>
      <point x="1095" y="419"/>
      <point x="1074" y="440"/>
      <point x="1045" y="440" type="curve" smooth="yes"/>
      <point x="1011" y="440"/>
      <point x="984" y="417"/>
      <point x="974" y="386" type="curve"/>
      <point x="909" y="124" type="line"/>
      <point x="288" y="124" type="line"/>
      <point x="1002" y="1104" type="line"/>
      <point x="1010" y="1114"/>
      <point x="1012" y="1132"/>
      <point x="1012" y="1150" type="curve" smooth="yes"/>
      <point x="1012" y="1181"/>
      <point x="994" y="1209"/>
      <point x="965" y="1209" type="curve" smooth="yes"/>
      <point x="196" y="1209" type="line" smooth="yes"/>
      <point x="143" y="1209"/>
      <point x="129" y="1179"/>
      <point x="129" y="1153" type="curve"/>
      <point x="129" y="874" type="line" smooth="yes"/>
      <point x="129" y="844"/>
      <point x="149" y="822"/>
      <point x="176" y="822" type="curve" smooth="yes"/>
      <point x="206" y="822"/>
      <point x="220" y="848"/>
      <point x="232" y="876" type="curve"/>
      <point x="261" y="1085" type="line"/>
      <point x="781" y="1085" type="line"/>
      <point x="108" y="151" type="line" smooth="yes"/>
      <point x="88" y="123"/>
      <point x="79" y="98"/>
      <point x="79" y="72" type="curve" smooth="yes"/>
      <point x="79" y="37"/>
      <point x="103" y="0"/>
    </contour>
    <contour>
      <point x="711" y="1209" type="move" name="top"/>
    </contour>
  </outline>
</glyph>
<glyph name="bracketleft" format="1">
  <advance width="553.0"/>
  <unicode hex="005B"/>
  <outline>
    <contour>
      <point x="224.0" y="-148.0" type="curve" smooth="yes"/>
      <point x="434.0" y="-148.0" type="line" smooth="yes"/>
      <point x="466.0" y="-148.0"/>
      <point x="497.0" y="-120.0"/>
      <point x="497.0" y="-88.0" type="curve" smooth="yes"/>
      <point x="497.0" y="-56.0"/>
      <point x="467.0" y="-29.0"/>
      <point x="434.0" y="-29.0" type="curve" smooth="yes"/>
      <point x="295.0" y="-29.0" type="line"/>
      <point x="295.0" y="1248.0" type="line"/>
      <point x="434.0" y="1248.0" type="line" smooth="yes"/>
      <point x="467.0" y="1248.0"/>
      <point x="497.0" y="1274.0"/>
      <point x="497.0" y="1307.0" type="curve" smooth="yes"/>
      <point x="497.0" y="1339.0"/>
      <point x="466.0" y="1367.0"/>
      <point x="434.0" y="1367.0" type="curve" smooth="yes"/>
      <point x="224.0" y="1367.0" type="line" smooth="yes"/>
      <point x="196.0" y="1367.0"/>
      <point x="168.0" y="1341.0"/>
      <point x="168.0" y="1309.0" type="curve"/>
      <point x="196.0" y="609.0" type="line"/>
      <point x="168.0" y="-91.0" type="line"/>
      <point x="168.0" y="-124.0"/>
      <point x="195.0" y="-148.0"/>
    </contour>
  </outline>
</glyph>
<glyph name="asciicircum" format="1">
  <advance width="751.0"/>
  <unicode hex="005E"/>
  <outline>
    <contour>
      <point x="151.0" y="391.0" type="curve" smooth="yes"/>
      <point x="178.0" y="391.0"/>
      <point x="195.0" y="409.0"/>
      <point x="205.0" y="429.0" type="curve"/>
      <point x="402.0" y="857.0" type="line"/>
      <point x="584.0" y="425.0" type="line" smooth="yes"/>
      <point x="591.0" y="409.0"/>
      <point x="604.0" y="395.0"/>
      <point x="623.0" y="395.0" type="curve" smooth="yes"/>
      <point x="645.0" y="395.0"/>
      <point x="666.0" y="415.0"/>
      <point x="666.0" y="440.0" type="curve" smooth="yes"/>
      <point x="666.0" y="447.0"/>
      <point x="664.0" y="456.0"/>
      <point x="661.0" y="463.0" type="curve" smooth="yes"/>
      <point x="450.0" y="967.0" type="line" smooth="yes"/>
      <point x="439.0" y="993.0"/>
      <point x="419.0" y="1029.0"/>
      <point x="380.0" y="1029.0" type="curve" smooth="yes"/>
      <point x="335.0" y="1029.0"/>
      <point x="315.0" y="988.0"/>
      <point x="303.0" y="961.0" type="curve" smooth="yes"/>
      <point x="91.0" y="480.0" type="line" smooth="yes"/>
      <point x="86.0" y="469.0"/>
      <point x="85.0" y="457.0"/>
      <point x="85.0" y="452.0" type="curve" smooth="yes"/>
      <point x="85.0" y="417.0"/>
      <point x="119.0" y="391.0"/>
    </contour>
  </outline>
</glyph>
<glyph name="underscore" format="1">
  <advance width="1067.0"/>
  <unicode hex="005F"/>
  <outline>
    <contour>
      <point x="190.0" y="1.0" type="curve" smooth="yes"/>
      <point x="877.0" y="1.0" type="line" smooth="yes"/>
      <point x="921.0" y="1.0"/>
      <point x="957.0" y="36.0"/>
      <point x="957.0" y="82.0" type="curve" smooth="yes"/>
      <point x="957.0" y="125.0"/>
      <point x="921.0" y="161.0"/>
      <point x="877.0" y="161.0" type="curve" smooth="yes"/>
      <point x="190.0" y="161.0" type="line" smooth="yes"/>
      <point x="145.0" y="161.0"/>
      <point x="110.0" y="125.0"/>
      <point x="110.0" y="82.0" type="curve" smooth="yes"/>
      <point x="110.0" y="36.0"/>
      <point x="145.0" y="1.0"/>
    </contour>
  </outline>
</glyph>
<glyph name="grave" format="1">
  <advance width="385.0"/>
  <unicode hex="0060"/>
  <outline>
    <contour>
      <point x="385.0" y="1011.0" type="curve" smooth="yes"/>
      <point x="385.0" y="993.0"/>
      <point x="370.0" y="974.0"/>
      <point x="353.0" y="974.0" type="curve" smooth="yes"/>
      <point x="349.0" y="974.0"/>
      <point x="345.0" y="976.0"/>
      <point x="341.0" y="979.0" type="curve" smooth="yes"/>
      <point x="243.0" y="1067.0"/>
      <point x="124.0" y="1127.0"/>
      <point x="17.0" y="1198.0" type="curve" smooth="yes"/>
      <point x="5.0" y="1206.0"/>
      <point x="0.0" y="1217.0"/>
      <point x="0.0" y="1230.0" type="curve" smooth="yes"/>
      <point x="0.0" y="1259.0"/>
      <point x="28.0" y="1290.0"/>
      <point x="55.0" y="1290.0" type="curve" smooth="yes"/>
      <point x="64.0" y="1290.0"/>
      <point x="74.0" y="1286.0"/>
      <point x="81.0" y="1279.0" type="curve" smooth="yes"/>
      <point x="167.0" y="1193.0"/>
      <point x="271.0" y="1105.0"/>
      <point x="375.0" y="1032.0" type="curve" smooth="yes"/>
      <point x="381.0" y="1027.0"/>
      <point x="385.0" y="1020.0"/>
    </contour>
    <contour>
      <point x="268" y="974" type="move" name="_top"/>
    </contour>
  </outline>
</glyph>
<glyph name="a" format="1">
  <advance width="918.0"/>
  <unicode hex="0061"/>
  <outline>
    <contour>
      <point x="325.0" y="-16.0" type="curve" smooth="yes"/>
      <point x="434.0" y="-16.0"/>
      <point x="539.0" y="21.0"/>
      <point x="606.0" y="103.0" type="curve"/>
      <point x="621.0" y="26.0"/>
      <point x="656.0" y="-14.0"/>
      <point x="737.0" y="-14.0" type="curve" smooth="yes"/>
      <point x="790.0" y="-14.0"/>
      <point x="926.0" y="47.0"/>
      <point x="926.0" y="125.0" type="curve" smooth="yes"/>
      <point x="926.0" y="150.0"/>
      <point x="908.0" y="186.0"/>
      <point x="877.0" y="186.0" type="curve" smooth="yes"/>
      <point x="843.0" y="186.0"/>
      <point x="783.0" y="110.0"/>
      <point x="748.0" y="110.0" type="curve" smooth="yes"/>
      <point x="727.0" y="110.0"/>
      <point x="726.0" y="139.0"/>
      <point x="726.0" y="160.0" type="curve" smooth="yes"/>
      <point x="726.0" y="479.0" type="line" smooth="yes"/>
      <point x="726.0" y="688.0"/>
      <point x="684.0" y="852.0"/>
      <point x="454.0" y="852.0" type="curve" smooth="yes"/>
      <point x="266.0" y="852.0"/>
      <point x="136.0" y="763.0"/>
      <point x="136.0" y="640.0" type="curve" smooth="yes"/>
      <point x="136.0" y="585.0"/>
      <point x="162.0" y="543.0"/>
      <point x="216.0" y="543.0" type="curve" smooth="yes"/>
      <point x="284.0" y="543.0"/>
      <point x="295.0" y="626.0"/>
      <point x="300.0" y="744.0" type="curve"/>
      <point x="204.0" y="646.0" type="line"/>
      <point x="291.0" y="701.0"/>
      <point x="322.0" y="732.0"/>
      <point x="455.0" y="732.0" type="curve" smooth="yes"/>
      <point x="546.0" y="732.0"/>
      <point x="581.0" y="687.0"/>
      <point x="584.0" y="503.0" type="curve"/>
      <point x="584.0" y="479.0" type="line"/>
      <point x="585.0" y="515.0" type="line"/>
      <point x="376.0" y="495.0"/>
      <point x="89.0" y="479.0"/>
      <point x="89.0" y="223.0" type="curve" smooth="yes"/>
      <point x="89.0" y="80.0"/>
      <point x="196.0" y="-16.0"/>
    </contour>
    <contour>
      <point x="381.0" y="108.0" type="curve" smooth="yes"/>
      <point x="308.0" y="108.0"/>
      <point x="245.0" y="146.0"/>
      <point x="245.0" y="227.0" type="curve" smooth="yes"/>
      <point x="245.0" y="389.0"/>
      <point x="491.0" y="393.0"/>
      <point x="584.0" y="409.0" type="curve"/>
      <point x="584.0" y="201.0" type="line"/>
      <point x="527.0" y="149.0"/>
      <point x="465.0" y="108.0"/>
    </contour>
  </outline>
</glyph>
<glyph name="b" format="1">
  <advance width="969"/>
  <unicode hex="0062"/>
  <outline>
    <contour>
      <point x="518" y="-17" type="curve" smooth="yes"/>
      <point x="748" y="-17"/>
      <point x="885" y="165"/>
      <point x="885" y="419" type="curve" smooth="yes"/>
      <point x="885" y="667"/>
      <point x="744" y="853"/>
      <point x="522" y="853" type="curve" smooth="yes"/>
      <point x="416" y="853"/>
      <point x="351" y="807"/>
      <point x="294" y="743" type="curve"/>
      <point x="294" y="1214" type="line" smooth="yes"/>
      <point x="294" y="1234"/>
      <point x="274" y="1248"/>
      <point x="261" y="1248" type="curve" smooth="yes"/>
      <point x="256" y="1248"/>
      <point x="255" y="1247"/>
      <point x="254" y="1247" type="curve" smooth="yes"/>
      <point x="-22" y="1167" type="line" smooth="yes"/>
      <point x="-48" y="1159"/>
      <point x="-79" y="1152"/>
      <point x="-79" y="1110" type="curve" smooth="yes"/>
      <point x="-79" y="1080"/>
      <point x="-49" y="1048"/>
      <point x="-22" y="1048" type="curve" smooth="yes"/>
      <point x="-19" y="1048"/>
      <point x="-23" y="1049"/>
      <point x="-20" y="1049" type="curve"/>
      <point x="146" y="1094" type="line"/>
      <point x="146" y="85" type="line" smooth="yes"/>
      <point x="146" y="49"/>
      <point x="152" y="-5"/>
      <point x="210" y="-5" type="curve" smooth="yes"/>
      <point x="268" y="-5"/>
      <point x="276" y="49"/>
      <point x="276" y="109" type="curve"/>
      <point x="330" y="40"/>
      <point x="414" y="-17"/>
    </contour>
    <contour>
      <point x="506" y="105" type="curve" smooth="yes"/>
      <point x="406" y="105"/>
      <point x="338" y="159"/>
      <point x="294" y="233" type="curve"/>
      <point x="294" y="632" type="line"/>
      <point x="345" y="693"/>
      <point x="416" y="731"/>
      <point x="518" y="731" type="curve" smooth="yes"/>
      <point x="653" y="731"/>
      <point x="723" y="585"/>
      <point x="723" y="419" type="curve" smooth="yes"/>
      <point x="723" y="250"/>
      <point x="650" y="105"/>
    </contour>
  </outline>
</glyph>
<glyph name="c" format="1">
  <advance width="880.0"/>
  <unicode hex="0063"/>
  <outline>
    <contour>
      <point x="508.0" y="-16.0" type="curve" smooth="yes"/>
      <point x="599.0" y="-16.0"/>
      <point x="740.0" y="32.0"/>
      <point x="790.0" y="112.0" type="curve" smooth="yes"/>
      <point x="807.0" y="139.0"/>
      <point x="813.0" y="158.0"/>
      <point x="813.0" y="181.0" type="curve" smooth="yes"/>
      <point x="813.0" y="216.0"/>
      <point x="781.0" y="237.0"/>
      <point x="741.0" y="237.0" type="curve" smooth="yes"/>
      <point x="727.0" y="237.0"/>
      <point x="711.0" y="230.0"/>
      <point x="699.0" y="218.0" type="curve" smooth="yes"/>
      <point x="640.0" y="159.0"/>
      <point x="563.0" y="127.0"/>
      <point x="499.0" y="127.0" type="curve" smooth="yes"/>
      <point x="374.0" y="127.0"/>
      <point x="245.0" y="224.0"/>
      <point x="245.0" y="429.0" type="curve" smooth="yes"/>
      <point x="245.0" y="618.0"/>
      <point x="372.0" y="731.0"/>
      <point x="523.0" y="731.0" type="curve" smooth="yes"/>
      <point x="553.0" y="731.0"/>
      <point x="590.0" y="726.0"/>
      <point x="625.0" y="714.0" type="curve"/>
      <point x="643.0" y="637.0"/>
      <point x="650.0" y="531.0"/>
      <point x="721.0" y="531.0" type="curve" smooth="yes"/>
      <point x="769.0" y="531.0"/>
      <point x="788.0" y="575.0"/>
      <point x="788.0" y="631.0" type="curve" smooth="yes"/>
      <point x="788.0" y="811.0"/>
      <point x="636.0" y="853.0"/>
      <point x="521.0" y="853.0" type="curve" smooth="yes"/>
      <point x="285.0" y="853.0"/>
      <point x="82.0" y="702.0"/>
      <point x="82.0" y="429.0" type="curve" smooth="yes"/>
      <point x="82.0" y="150.0"/>
      <point x="260.0" y="-16.0"/>
    </contour>
    <contour>
      <point x="722.0" y="2" type="move" name="bottom"/>
    </contour>
    <contour>
      <point x="760.0" y="834" type="move" name="top"/>
    </contour>
  </outline>
</glyph>
<glyph name="d" format="1">
  <advance width="1008.0"/>
  <unicode hex="0064"/>
  <outline>
    <contour>
      <point x="450.0" y="-18.0" type="curve" smooth="yes"/>
      <point x="547.0" y="-18.0"/>
      <point x="625.0" y="42.0"/>
      <point x="670.0" y="106.0" type="curve"/>
      <point x="670.0" y="56.0" type="line" smooth="yes"/>
      <point x="670.0" y="25.0"/>
      <point x="671.0" y="-7.0"/>
      <point x="705.0" y="-7.0" type="curve" smooth="yes"/>
      <point x="710.0" y="-7.0"/>
      <point x="928.0" y="23.0"/>
      <point x="945.0" y="28.0" type="curve" smooth="yes"/>
      <point x="971.0" y="36.0"/>
      <point x="988.0" y="56.0"/>
      <point x="988.0" y="90.0" type="curve" smooth="yes"/>
      <point x="988.0" y="123.0"/>
      <point x="961.0" y="141.0"/>
      <point x="923.0" y="141.0" type="curve"/>
      <point x="823.0" y="126.0" type="line"/>
      <point x="823.0" y="1212.0" type="line" smooth="yes"/>
      <point x="823.0" y="1233.0"/>
      <point x="806.0" y="1246.0"/>
      <point x="791.0" y="1246.0" type="curve" smooth="yes"/>
      <point x="777.0" y="1246.0"/>
      <point x="753.0" y="1238.0"/>
      <point x="508.0" y="1166.0" type="curve" smooth="yes"/>
      <point x="476.0" y="1157.0"/>
      <point x="449.0" y="1149.0"/>
      <point x="449.0" y="1108.0" type="curve" smooth="yes"/>
      <point x="449.0" y="1078.0"/>
      <point x="478.0" y="1047.0"/>
      <point x="507.0" y="1047.0" type="curve"/>
      <point x="535.0" y="1047.0"/>
      <point x="618.0" y="1076.0"/>
      <point x="674.0" y="1091.0" type="curve"/>
      <point x="674.0" y="757.0" type="line"/>
      <point x="616.0" y="811.0"/>
      <point x="543.0" y="852.0"/>
      <point x="445.0" y="852.0" type="curve" smooth="yes"/>
      <point x="222.0" y="852.0"/>
      <point x="84.0" y="660.0"/>
      <point x="84.0" y="417.0" type="curve" smooth="yes"/>
      <point x="84.0" y="165.0"/>
      <point x="217.0" y="-18.0"/>
    </contour>
    <contour>
      <point x="461.0" y="103.0" type="curve" smooth="yes"/>
      <point x="319.0" y="103.0"/>
      <point x="245.0" y="252.0"/>
      <point x="245.0" y="417.0" type="curve" smooth="yes"/>
      <point x="245.0" y="580.0"/>
      <point x="316.0" y="730.0"/>
      <point x="451.0" y="730.0" type="curve" smooth="yes"/>
      <point x="547.0" y="730.0"/>
      <point x="623.0" y="692.0"/>
      <point x="674.0" y="632.0" type="curve"/>
      <point x="674.0" y="232.0" type="line"/>
      <point x="630.0" y="160.0"/>
      <point x="558.0" y="103.0"/>
    </contour>
    <contour>
      <point x="859.0" y="580" type="move" name="center"/>
    </contour>
  </outline>
</glyph>
<glyph name="e" format="1">
  <advance width="884"/>
  <unicode hex="0065"/>
  <outline>
    <contour>
      <point x="476" y="-17" type="curve" smooth="yes"/>
      <point x="587" y="-17"/>
      <point x="796" y="56"/>
      <point x="796" y="174" type="curve" smooth="yes"/>
      <point x="796" y="213"/>
      <point x="765" y="237"/>
      <point x="727" y="237" type="curve" smooth="yes"/>
      <point x="713" y="237"/>
      <point x="695" y="232"/>
      <point x="683" y="220" type="curve"/>
      <point x="633" y="162"/>
      <point x="599" y="111"/>
      <point x="485" y="111" type="curve" smooth="yes"/>
      <point x="333" y="111"/>
      <point x="217" y="221"/>
      <point x="237" y="428" type="curve"/>
      <point x="194" y="390" type="line"/>
      <point x="681" y="406" type="line"/>
      <point x="746" y="413"/>
      <point x="794" y="414"/>
      <point x="794" y="483" type="curve" smooth="yes"/>
      <point x="794" y="688"/>
      <point x="644" y="830"/>
      <point x="459" y="830" type="curve" smooth="yes"/>
      <point x="217" y="830"/>
      <point x="84" y="657"/>
      <point x="84" y="402" type="curve" smooth="yes"/>
      <point x="84" y="145"/>
      <point x="247" y="-17"/>
    </contour>
    <contour>
      <point x="230" y="457" type="line"/>
      <point x="228" y="610"/>
      <point x="312" y="711"/>
      <point x="461" y="711" type="curve" smooth="yes"/>
      <point x="557" y="711"/>
      <point x="653" y="623"/>
      <point x="653" y="493" type="curve"/>
      <point x="688" y="519" type="line"/>
      <point x="211" y="508" type="line"/>
    </contour>
    <contour>
      <point x="465" y="21" type="move" name="bottom"/>
    </contour>
    <contour>
      <point x="980" y="28" type="move" name="ogonek"/>
    </contour>
    <contour>
      <point x="465" y="830" type="move" name="top"/>
    </contour>
  </outline>
</glyph>
<glyph name="f" format="1">
  <advance width="610.0"/>
  <unicode hex="0066"/>
  <outline>
    <contour>
      <point x="114.0" y="0.0" type="curve" smooth="yes"/>
      <point x="492.0" y="0.0" type="line" smooth="yes"/>
      <point x="524.0" y="0.0"/>
      <point x="544.0" y="29.0"/>
      <point x="544.0" y="61.0" type="curve" smooth="yes"/>
      <point x="544.0" y="97.0"/>
      <point x="529.0" y="127.0"/>
      <point x="493.0" y="127.0" type="curve" smooth="yes"/>
      <point x="385.0" y="127.0" type="line"/>
      <point x="384.0" y="684.0" type="line"/>
      <point x="479.0" y="684.0" type="line" smooth="yes"/>
      <point x="512.0" y="684.0"/>
      <point x="532.0" y="713.0"/>
      <point x="532.0" y="745.0" type="curve" smooth="yes"/>
      <point x="532.0" y="781.0"/>
      <point x="516.0" y="811.0"/>
      <point x="480.0" y="811.0" type="curve" smooth="yes"/>
      <point x="385.0" y="811.0" type="line"/>
      <point x="382.0" y="890.0" type="line"/>
      <point x="382.0" y="1048.0"/>
      <point x="414.0" y="1112.0"/>
      <point x="528.0" y="1125.0" type="curve"/>
      <point x="528.0" y="1075.0" type="line" smooth="yes"/>
      <point x="528.0" y="1038.0"/>
      <point x="559.0" y="1020.0"/>
      <point x="593.0" y="1020.0" type="curve" smooth="yes"/>
      <point x="630.0" y="1020.0"/>
      <point x="653.0" y="1039.0"/>
      <point x="653.0" y="1080.0" type="curve" smooth="yes"/>
      <point x="653.0" y="1204.0" type="line" smooth="yes"/>
      <point x="653.0" y="1238.0"/>
      <point x="626.0" y="1258.0"/>
      <point x="598.0" y="1258.0" type="curve" smooth="yes"/>
      <point x="369.0" y="1258.0"/>
      <point x="236.0" y="1143.0"/>
      <point x="236.0" y="887.0" type="curve" smooth="yes"/>
      <point x="236.0" y="811.0" type="line"/>
      <point x="135.0" y="811.0" type="line" smooth="yes"/>
      <point x="98.0" y="811.0"/>
      <point x="82.0" y="781.0"/>
      <point x="82.0" y="746.0" type="curve" smooth="yes"/>
      <point x="82.0" y="709.0"/>
      <point x="101.0" y="684.0"/>
      <point x="139.0" y="684.0" type="curve" smooth="yes"/>
      <point x="236.0" y="684.0" type="line"/>
      <point x="236.0" y="127.0" type="line"/>
      <point x="111.0" y="127.0" type="line" smooth="yes"/>
      <point x="73.0" y="127.0"/>
      <point x="57.0" y="97.0"/>
      <point x="57.0" y="62.0" type="curve" smooth="yes"/>
      <point x="57.0" y="25.0"/>
      <point x="76.0" y="0.0"/>
    </contour>
  </outline>
</glyph>
<glyph name="g" format="1">
  <advance width="904.0"/>
  <unicode hex="0067"/>
  <outline>
    <contour>
      <point x="412.0" y="-350.0" type="curve" smooth="yes"/>
      <point x="608.0" y="-350.0"/>
      <point x="804.0" y="-337.0"/>
      <point x="804.0" y="-128.0" type="curve" smooth="yes"/>
      <point x="804.0" y="121.0"/>
      <point x="567.0" y="121.0"/>
      <point x="408.0" y="121.0" type="curve" smooth="yes"/>
      <point x="359.0" y="121.0" type="line" smooth="yes"/>
      <point x="323.0" y="121.0"/>
      <point x="243.0" y="127.0"/>
      <point x="243.0" y="174.0" type="curve" smooth="yes"/>
      <point x="243.0" y="235.0"/>
      <point x="296.0" y="243.0"/>
      <point x="339.0" y="243.0" type="curve" smooth="yes"/>
      <point x="367.0" y="243.0"/>
      <point x="394.0" y="242.0"/>
      <point x="414.0" y="242.0" type="curve" smooth="yes"/>
      <point x="599.0" y="242.0"/>
      <point x="748.0" y="331.0"/>
      <point x="748.0" y="513.0" type="curve" smooth="yes"/>
      <point x="748.0" y="577.0"/>
      <point x="725.0" y="638.0"/>
      <point x="704.0" y="684.0" type="curve"/>
      <point x="801.0" y="760.0" type="line"/>
      <point x="885.0" y="760.0"/>
      <point x="915.0" y="794.0"/>
      <point x="915.0" y="826.0" type="curve" smooth="yes"/>
      <point x="915.0" y="873.0"/>
      <point x="867.0" y="887.0"/>
      <point x="828.0" y="887.0" type="curve" smooth="yes"/>
      <point x="795.0" y="887.0"/>
      <point x="748.0" y="882.0"/>
      <point x="715.0" y="839.0" type="curve" smooth="yes"/>
      <point x="645.0" y="748.0" type="line"/>
      <point x="591.0" y="796.0"/>
      <point x="513.0" y="826.0"/>
      <point x="411.0" y="826.0" type="curve" smooth="yes"/>
      <point x="236.0" y="826.0"/>
      <point x="90.0" y="723.0"/>
      <point x="90.0" y="540.0" type="curve" smooth="yes"/>
      <point x="90.0" y="422.0"/>
      <point x="139.0" y="367.0"/>
      <point x="207.0" y="312.0" type="curve"/>
      <point x="144.0" y="295.0"/>
      <point x="118.0" y="260.0"/>
      <point x="118.0" y="183.0" type="curve" smooth="yes"/>
      <point x="118.0" y="120.0"/>
      <point x="164.0" y="82.0"/>
      <point x="195.0" y="62.0" type="curve"/>
      <point x="127.0" y="28.0"/>
      <point x="93.0" y="-28.0"/>
      <point x="93.0" y="-129.0" type="curve" smooth="yes"/>
      <point x="93.0" y="-291.0"/>
      <point x="264.0" y="-350.0"/>
    </contour>
    <contour>
      <point x="409.0" y="-233.0" type="curve" smooth="yes"/>
      <point x="315.0" y="-233.0"/>
      <point x="205.0" y="-200.0"/>
      <point x="205.0" y="-104.0" type="curve" smooth="yes"/>
      <point x="205.0" y="-47.0"/>
      <point x="235.0" y="-8.0"/>
      <point x="258.0" y="21.0" type="curve"/>
      <point x="349.0" y="3.0"/>
      <point x="386.0" y="0.0"/>
      <point x="430.0" y="0.0" type="curve" smooth="yes"/>
      <point x="443.0" y="0.0"/>
      <point x="460.0" y="1.0"/>
      <point x="484.0" y="1.0" type="curve" smooth="yes"/>
      <point x="557.0" y="1.0"/>
      <point x="669.0" y="-11.0"/>
      <point x="669.0" y="-114.0" type="curve" smooth="yes"/>
      <point x="669.0" y="-230.0"/>
      <point x="542.0" y="-233.0"/>
    </contour>
    <contour>
      <point x="418.0" y="339.0" type="curve" smooth="yes"/>
      <point x="310.0" y="339.0"/>
      <point x="234.0" y="399.0"/>
      <point x="234.0" y="523.0" type="curve" smooth="yes"/>
      <point x="234.0" y="659.0"/>
      <point x="307.0" y="731.0"/>
      <point x="422.0" y="731.0" type="curve" smooth="yes"/>
      <point x="544.0" y="731.0"/>
      <point x="594.0" y="657.0"/>
      <point x="594.0" y="527.0" type="curve" smooth="yes"/>
      <point x="594.0" y="387.0"/>
      <point x="529.0" y="339.0"/>
    </contour>
    <contour>
      <point x="726.0" y="807" type="move" name="top"/>
    </contour>
  </outline>
</glyph>
<glyph name="h" format="1">
  <advance width="1019"/>
  <unicode hex="0068"/>
  <outline>
    <contour>
      <point x="111" y="0" type="curve" smooth="yes"/>
      <point x="440" y="0" type="line" smooth="yes"/>
      <point x="469" y="0"/>
      <point x="486" y="29"/>
      <point x="486" y="60" type="curve" smooth="yes"/>
      <point x="486" y="94"/>
      <point x="474" y="126"/>
      <point x="442" y="126" type="curve" smooth="yes"/>
      <point x="326" y="126" type="line"/>
      <point x="336" y="96" type="line"/>
      <point x="336" y="574" type="line"/>
      <point x="378" y="653"/>
      <point x="451" y="731"/>
      <point x="543" y="731" type="curve" smooth="yes"/>
      <point x="641" y="731"/>
      <point x="689" y="662"/>
      <point x="689" y="548" type="curve" smooth="yes"/>
      <point x="689" y="81" type="line"/>
      <point x="730" y="126" type="line"/>
      <point x="621" y="126" type="line" smooth="yes"/>
      <point x="586" y="126"/>
      <point x="573" y="94"/>
      <point x="573" y="60" type="curve" smooth="yes"/>
      <point x="573" y="29"/>
      <point x="592" y="0"/>
      <point x="621" y="0" type="curve" smooth="yes"/>
      <point x="936" y="0" type="line" smooth="yes"/>
      <point x="967" y="0"/>
      <point x="985" y="29"/>
      <point x="985" y="60" type="curve" smooth="yes"/>
      <point x="985" y="100"/>
      <point x="975" y="126"/>
      <point x="944" y="126" type="curve" smooth="yes"/>
      <point x="796" y="126" type="line"/>
      <point x="836" y="81" type="line"/>
      <point x="836" y="561" type="line" smooth="yes"/>
      <point x="836" y="741"/>
      <point x="725" y="853"/>
      <point x="569" y="853" type="curve" smooth="yes"/>
      <point x="468" y="853"/>
      <point x="390" y="788"/>
      <point x="336" y="721" type="curve"/>
      <point x="336" y="1215" type="line" smooth="yes"/>
      <point x="336" y="1236"/>
      <point x="319" y="1249"/>
      <point x="304" y="1249" type="curve" smooth="yes"/>
      <point x="289" y="1249"/>
      <point x="269" y="1238"/>
      <point x="23" y="1169" type="curve" smooth="yes"/>
      <point x="-10" y="1160"/>
      <point x="-37" y="1152"/>
      <point x="-37" y="1111" type="curve" smooth="yes"/>
      <point x="-37" y="1081"/>
      <point x="-7" y="1050"/>
      <point x="21" y="1050" type="curve" smooth="yes"/>
      <point x="50" y="1050"/>
      <point x="132" y="1079"/>
      <point x="188" y="1094" type="curve"/>
      <point x="188" y="96" type="line"/>
      <point x="202" y="126" type="line"/>
      <point x="111" y="126" type="line" smooth="yes"/>
      <point x="77" y="126"/>
      <point x="64" y="95"/>
      <point x="64" y="60" type="curve" smooth="yes"/>
      <point x="64" y="29"/>
      <point x="83" y="0"/>
    </contour>
    <contour>
      <point x="604" y="388" type="move" name="center"/>
    </contour>
    <contour>
      <point x="570" y="1160" type="move" name="top"/>
    </contour>
  </outline>
</glyph>
<glyph name="i" format="1">
  <advance width="679.0"/>
  <unicode hex="0069"/>
  <outline>
    <contour>
      <point x="118.0" y="0.0" type="curve" smooth="yes"/>
      <point x="603.0" y="0.0" type="line" smooth="yes"/>
      <point x="635.0" y="0.0"/>
      <point x="655.0" y="31.0"/>
      <point x="655.0" y="63.0" type="curve" smooth="yes"/>
      <point x="655.0" y="99.0"/>
      <point x="640.0" y="127.0"/>
      <point x="604.0" y="127.0" type="curve" smooth="yes"/>
      <point x="461.0" y="127.0" type="line"/>
      <point x="461.0" y="836.0" type="line" smooth="yes"/>
      <point x="461.0" y="857.0"/>
      <point x="447.0" y="869.0"/>
      <point x="427.0" y="869.0" type="curve" smooth="yes"/>
      <point x="411.0" y="869.0"/>
      <point x="423.0" y="867.0"/>
      <point x="133.0" y="785.0" type="curve" smooth="yes"/>
      <point x="107.0" y="778.0"/>
      <point x="93.0" y="754.0"/>
      <point x="93.0" y="723.0" type="curve" smooth="yes"/>
      <point x="93.0" y="693.0"/>
      <point x="126.0" y="665.0"/>
      <point x="153.0" y="665.0" type="curve" smooth="yes"/>
      <point x="175.0" y="665.0"/>
      <point x="171.0" y="669.0"/>
      <point x="386.0" y="745.0" type="curve"/>
      <point x="309.0" y="764.0" type="line"/>
      <point x="309.0" y="127.0" type="line"/>
      <point x="112.0" y="127.0" type="line" smooth="yes"/>
      <point x="76.0" y="127.0"/>
      <point x="60.0" y="97.0"/>
      <point x="60.0" y="63.0" type="curve" smooth="yes"/>
      <point x="60.0" y="25.0"/>
      <point x="79.0" y="0.0"/>
    </contour>
    <contour>
      <point x="385.0" y="1045.0" type="curve" smooth="yes"/>
      <point x="444.0" y="1045.0"/>
      <point x="493.0" y="1095.0"/>
      <point x="493.0" y="1156.0" type="curve" smooth="yes"/>
      <point x="493.0" y="1217.0"/>
      <point x="444.0" y="1267.0"/>
      <point x="385.0" y="1267.0" type="curve" smooth="yes"/>
      <point x="325.0" y="1267.0"/>
      <point x="276.0" y="1217.0"/>
      <point x="276.0" y="1156.0" type="curve" smooth="yes"/>
      <point x="276.0" y="1095.0"/>
      <point x="325.0" y="1045.0"/>
    </contour>
  </outline>
</glyph>
<glyph name="j" format="1">
  <advance width="469"/>
  <unicode hex="006A"/>
  <outline>
    <contour>
      <point x="105" y="-310" type="curve" smooth="yes"/>
      <point x="334" y="-310"/>
      <point x="322" y="-95"/>
      <point x="322" y="120" type="curve" smooth="yes"/>
      <point x="322" y="843" type="line" smooth="yes"/>
      <point x="322" y="865"/>
      <point x="309" y="875"/>
      <point x="289" y="875" type="curve"/>
      <point x="141" y="875" type="line" smooth="yes"/>
      <point x="98" y="875"/>
      <point x="80" y="841"/>
      <point x="80" y="802" type="curve" smooth="yes"/>
      <point x="80" y="759"/>
      <point x="101" y="731"/>
      <point x="148" y="731" type="curve" smooth="yes"/>
      <point x="177" y="731" type="line"/>
      <point x="177" y="120" type="line" smooth="yes"/>
      <point x="177" y="-67"/>
      <point x="198" y="-188"/>
      <point x="96" y="-188" type="curve" smooth="yes"/>
      <point x="66" y="-188"/>
      <point x="52" y="-216"/>
      <point x="52" y="-250" type="curve" smooth="yes"/>
      <point x="52" y="-286"/>
      <point x="67" y="-310"/>
    </contour>
    <contour>
      <point x="214" y="1059" type="curve" smooth="yes"/>
      <point x="267" y="1059"/>
      <point x="311" y="1103"/>
      <point x="311" y="1158" type="curve" smooth="yes"/>
      <point x="311" y="1215"/>
      <point x="267" y="1260"/>
      <point x="214" y="1260" type="curve" smooth="yes"/>
      <point x="162" y="1260"/>
      <point x="119" y="1215"/>
      <point x="119" y="1158" type="curve" smooth="yes"/>
      <point x="119" y="1103"/>
      <point x="162" y="1059"/>
    </contour>
  </outline>
</glyph>
<glyph name="k" format="1">
  <advance width="1053"/>
  <unicode hex="006B"/>
  <outline>
    <contour>
      <point x="116" y="0" type="curve" smooth="yes"/>
      <point x="460" y="0" type="line" smooth="yes"/>
      <point x="493" y="0"/>
      <point x="512" y="29"/>
      <point x="512" y="66" type="curve" smooth="yes"/>
      <point x="512" y="99"/>
      <point x="498" y="128"/>
      <point x="461" y="128" type="curve" smooth="yes"/>
      <point x="349" y="128" type="line"/>
      <point x="349" y="342" type="line"/>
      <point x="472" y="423" type="line"/>
      <point x="647" y="128" type="line"/>
      <point x="629" y="128" type="line" smooth="yes"/>
      <point x="587" y="128"/>
      <point x="571" y="100"/>
      <point x="571" y="66" type="curve" smooth="yes"/>
      <point x="571" y="29"/>
      <point x="587" y="0"/>
      <point x="624" y="0" type="curve" smooth="yes"/>
      <point x="972" y="0" type="line" smooth="yes"/>
      <point x="1005" y="0"/>
      <point x="1024" y="29"/>
      <point x="1024" y="66" type="curve" smooth="yes"/>
      <point x="1024" y="99"/>
      <point x="1010" y="128"/>
      <point x="973" y="128" type="curve" smooth="yes"/>
      <point x="807" y="128" type="line"/>
      <point x="573" y="486" type="line"/>
      <point x="806" y="692" type="line"/>
      <point x="913" y="692" type="line" smooth="yes"/>
      <point x="950" y="692"/>
      <point x="964" y="721"/>
      <point x="964" y="758" type="curve" smooth="yes"/>
      <point x="964" y="796"/>
      <point x="943" y="821"/>
      <point x="910" y="821" type="curve" smooth="yes"/>
      <point x="600" y="821" type="line" smooth="yes"/>
      <point x="560" y="821"/>
      <point x="540" y="796"/>
      <point x="540" y="758" type="curve" smooth="yes"/>
      <point x="540" y="721"/>
      <point x="558" y="692"/>
      <point x="595" y="692" type="curve" smooth="yes"/>
      <point x="657" y="692" type="line"/>
      <point x="349" y="454" type="line"/>
      <point x="349" y="1236" type="line" smooth="yes"/>
      <point x="349" y="1258"/>
      <point x="330" y="1272"/>
      <point x="313" y="1272" type="curve" smooth="yes"/>
      <point x="303" y="1272"/>
      <point x="297" y="1270"/>
      <point x="34" y="1189" type="curve" smooth="yes"/>
      <point x="3" y="1180"/>
      <point x="-23" y="1173"/>
      <point x="-23" y="1131" type="curve" smooth="yes"/>
      <point x="-23" y="1101"/>
      <point x="7" y="1061"/>
      <point x="35" y="1068" type="curve" smooth="yes"/>
      <point x="60" y="1074"/>
      <point x="77" y="1080"/>
      <point x="197" y="1115" type="curve"/>
      <point x="197" y="128" type="line"/>
      <point x="113" y="128" type="line" smooth="yes"/>
      <point x="76" y="128"/>
      <point x="59" y="100"/>
      <point x="59" y="64" type="curve" smooth="yes"/>
      <point x="59" y="26"/>
      <point x="78" y="0"/>
    </contour>
    <contour>
      <point x="979" y="0" type="move" name="bottom"/>
    </contour>
  </outline>
</glyph>
<glyph name="l" format="1">
  <advance width="545"/>
  <unicode hex="006C"/>
  <outline>
    <contour>
      <point x="115" y="0" type="curve" smooth="yes"/>
      <point x="449" y="0" type="line" smooth="yes"/>
      <point x="481" y="0"/>
      <point x="500" y="29"/>
      <point x="500" y="61" type="curve" smooth="yes"/>
      <point x="500" y="96"/>
      <point x="486" y="126"/>
      <point x="449" y="126" type="curve" smooth="yes"/>
      <point x="343" y="126" type="line"/>
      <point x="343" y="1210" type="line" smooth="yes"/>
      <point x="343" y="1231"/>
      <point x="325" y="1245"/>
      <point x="309" y="1245" type="curve" smooth="yes"/>
      <point x="306" y="1245"/>
      <point x="302" y="1244"/>
      <point x="301" y="1243" type="curve" smooth="yes"/>
      <point x="94" y="1165" type="line" smooth="yes"/>
      <point x="66" y="1154"/>
      <point x="37" y="1149"/>
      <point x="37" y="1106" type="curve" smooth="yes"/>
      <point x="37" y="1077"/>
      <point x="66" y="1045"/>
      <point x="94" y="1045" type="curve" smooth="yes"/>
      <point x="99" y="1045"/>
      <point x="96" y="1047"/>
      <point x="195" y="1090" type="curve"/>
      <point x="195" y="126" type="line"/>
      <point x="113" y="126" type="line" smooth="yes"/>
      <point x="76" y="126"/>
      <point x="59" y="97"/>
      <point x="59" y="62" type="curve" smooth="yes"/>
      <point x="59" y="25"/>
      <point x="78" y="0"/>
    </contour>
    <contour>
      <point x="710" y="0" type="move" name="bottom"/>
    </contour>
    <contour>
      <point x="275" y="1210" type="move" name="top"/>
    </contour>
    <contour>
      <point x="352" y="832" type="move" name="topright"/>
    </contour>
  </outline>
</glyph>
<glyph name="m" format="1">
  <advance width="1786"/>
  <unicode hex="006D"/>
  <outline>
    <contour>
      <point x="139" y="0" type="curve" smooth="yes"/>
      <point x="515" y="0" type="line" smooth="yes"/>
      <point x="555" y="0"/>
      <point x="577" y="30"/>
      <point x="577" y="60" type="curve" smooth="yes"/>
      <point x="577" y="96"/>
      <point x="558" y="126"/>
      <point x="517" y="126" type="curve" smooth="yes"/>
      <point x="387" y="126" type="line"/>
      <point x="387" y="534" type="line"/>
      <point x="423" y="644"/>
      <point x="541" y="731"/>
      <point x="689" y="731" type="curve" smooth="yes"/>
      <point x="794" y="731"/>
      <point x="856" y="662"/>
      <point x="856" y="547" type="curve" smooth="yes"/>
      <point x="856" y="62" type="line"/>
      <point x="999" y="62" type="line"/>
      <point x="999" y="527" type="line"/>
      <point x="1035" y="636"/>
      <point x="1155" y="731"/>
      <point x="1298" y="731" type="curve" smooth="yes"/>
      <point x="1404" y="731"/>
      <point x="1461" y="662"/>
      <point x="1461" y="547" type="curve" smooth="yes"/>
      <point x="1461" y="62" type="line"/>
      <point x="1605" y="62" type="line"/>
      <point x="1605" y="560" type="line" smooth="yes"/>
      <point x="1605" y="739"/>
      <point x="1477" y="854"/>
      <point x="1309" y="854" type="curve" smooth="yes"/>
      <point x="1161" y="854"/>
      <point x="1044" y="765"/>
      <point x="978" y="671" type="curve"/>
      <point x="936" y="779"/>
      <point x="833" y="854"/>
      <point x="702" y="854" type="curve" smooth="yes"/>
      <point x="558" y="854"/>
      <point x="434" y="781"/>
      <point x="376" y="684" type="curve"/>
      <point x="364" y="820" type="line"/>
      <point x="362" y="841"/>
      <point x="348" y="854"/>
      <point x="319" y="854" type="curve" smooth="yes"/>
      <point x="308" y="854"/>
      <point x="319" y="851"/>
      <point x="103" y="795" type="curve"/>
      <point x="73" y="787"/>
      <point x="59" y="767"/>
      <point x="59" y="734" type="curve" smooth="yes"/>
      <point x="59" y="705"/>
      <point x="86" y="677"/>
      <point x="117" y="677" type="curve" smooth="yes"/>
      <point x="123" y="677"/>
      <point x="133" y="678"/>
      <point x="242" y="703" type="curve"/>
      <point x="242" y="126" type="line"/>
      <point x="134" y="126" type="line" smooth="yes"/>
      <point x="95" y="126"/>
      <point x="76" y="96"/>
      <point x="76" y="62" type="curve" smooth="yes"/>
      <point x="76" y="25"/>
      <point x="97" y="0"/>
    </contour>
    <contour>
      <point x="793" y="0" type="curve" smooth="yes"/>
      <point x="1079" y="0" type="line" smooth="yes"/>
      <point x="1116" y="0"/>
      <point x="1136" y="29"/>
      <point x="1136" y="60" type="curve" smooth="yes"/>
      <point x="1136" y="96"/>
      <point x="1119" y="126"/>
      <point x="1082" y="126" type="curve" smooth="yes"/>
      <point x="789" y="126" type="line"/>
      <point x="751" y="126"/>
      <point x="733" y="97"/>
      <point x="733" y="62" type="curve" smooth="yes"/>
      <point x="733" y="25"/>
      <point x="753" y="0"/>
    </contour>
    <contour>
      <point x="1398" y="0" type="curve" smooth="yes"/>
      <point x="1661" y="0" type="line" smooth="yes"/>
      <point x="1698" y="0"/>
      <point x="1717" y="29"/>
      <point x="1717" y="60" type="curve" smooth="yes"/>
      <point x="1717" y="96"/>
      <point x="1701" y="126"/>
      <point x="1663" y="126" type="curve" smooth="yes"/>
      <point x="1394" y="126" type="line" smooth="yes"/>
      <point x="1356" y="126"/>
      <point x="1337" y="97"/>
      <point x="1337" y="62" type="curve" smooth="yes"/>
      <point x="1337" y="25"/>
      <point x="1358" y="0"/>
    </contour>
  </outline>
</glyph>
<glyph name="n" format="1">
  <advance width="1080"/>
  <unicode hex="006E"/>
  <outline>
    <contour>
      <point x="148" y="0" type="curve" smooth="yes"/>
      <point x="459" y="0" type="line" smooth="yes"/>
      <point x="490" y="0"/>
      <point x="508" y="30"/>
      <point x="508" y="63" type="curve" smooth="yes"/>
      <point x="508" y="96"/>
      <point x="494" y="126"/>
      <point x="461" y="126" type="curve" smooth="yes"/>
      <point x="366" y="126" type="line"/>
      <point x="366" y="508" type="line" smooth="yes"/>
      <point x="366" y="636"/>
      <point x="498" y="731"/>
      <point x="593" y="731" type="curve" smooth="yes"/>
      <point x="696" y="731"/>
      <point x="747" y="662"/>
      <point x="747" y="547" type="curve" smooth="yes"/>
      <point x="747" y="126" type="line"/>
      <point x="646" y="126" type="line" smooth="yes"/>
      <point x="610" y="126"/>
      <point x="594" y="96"/>
      <point x="594" y="63" type="curve" smooth="yes"/>
      <point x="594" y="26"/>
      <point x="611" y="0"/>
      <point x="651" y="0" type="curve" smooth="yes"/>
      <point x="966" y="0" type="line" smooth="yes"/>
      <point x="999" y="0"/>
      <point x="1019" y="30"/>
      <point x="1019" y="63" type="curve" smooth="yes"/>
      <point x="1019" y="96"/>
      <point x="1003" y="126"/>
      <point x="968" y="126" type="curve" smooth="yes"/>
      <point x="893" y="126" type="line"/>
      <point x="893" y="560" type="line" smooth="yes"/>
      <point x="893" y="741"/>
      <point x="783" y="853"/>
      <point x="627" y="853" type="curve" smooth="yes"/>
      <point x="508" y="853"/>
      <point x="393" y="772"/>
      <point x="351" y="684" type="curve"/>
      <point x="333" y="819" type="line"/>
      <point x="330" y="839"/>
      <point x="317" y="853"/>
      <point x="301" y="853" type="curve" smooth="yes"/>
      <point x="294" y="853"/>
      <point x="284" y="850"/>
      <point x="101" y="794" type="curve"/>
      <point x="76" y="786"/>
      <point x="62" y="765"/>
      <point x="62" y="734" type="curve" smooth="yes"/>
      <point x="62" y="705"/>
      <point x="94" y="677"/>
      <point x="121" y="677" type="curve" smooth="yes"/>
      <point x="126" y="677"/>
      <point x="136" y="679"/>
      <point x="218" y="703" type="curve"/>
      <point x="218" y="126" type="line"/>
      <point x="144" y="126" type="line" smooth="yes"/>
      <point x="107" y="126"/>
      <point x="91" y="98"/>
      <point x="91" y="63" type="curve" smooth="yes"/>
      <point x="91" y="26"/>
      <point x="109" y="0"/>
    </contour>
    <contour>
      <point x="687" y="0" type="move" name="bottom"/>
    </contour>
    <contour>
      <point x="627" y="853" type="move" name="top"/>
    </contour>
  </outline>
</glyph>
<glyph name="o" format="1">
  <advance width="981.0"/>
  <unicode hex="006F"/>
  <outline>
    <contour>
      <point x="496.0" y="-25.0" type="curve" smooth="yes"/>
      <point x="737.0" y="-25.0"/>
      <point x="898.0" y="150.0"/>
      <point x="898.0" y="415.0" type="curve" smooth="yes"/>
      <point x="898.0" y="680.0"/>
      <point x="738.0" y="854.0"/>
      <point x="496.0" y="854.0" type="curve" smooth="yes"/>
      <point x="251.0" y="854.0"/>
      <point x="83.0" y="685.0"/>
      <point x="83.0" y="415.0" type="curve" smooth="yes"/>
      <point x="83.0" y="146.0"/>
      <point x="249.0" y="-25.0"/>
    </contour>
    <contour>
      <point x="496.0" y="98.0" type="curve" smooth="yes"/>
      <point x="336.0" y="98.0"/>
      <point x="244.0" y="229.0"/>
      <point x="244.0" y="415.0" type="curve" smooth="yes"/>
      <point x="244.0" y="599.0"/>
      <point x="336.0" y="731.0"/>
      <point x="496.0" y="731.0" type="curve" smooth="yes"/>
      <point x="651.0" y="731.0"/>
      <point x="738.0" y="597.0"/>
      <point x="738.0" y="415.0" type="curve" smooth="yes"/>
      <point x="738.0" y="234.0"/>
      <point x="651.0" y="98.0"/>
    </contour>
    <contour>
      <point x="490.0" y="834" type="move" name="top"/>
    </contour>
  </outline>
</glyph>
<glyph name="p" format="1">
  <advance width="1018"/>
  <unicode hex="0070"/>
  <outline>
    <contour>
      <point x="127" y="-370" type="curve" smooth="yes"/>
      <point x="442" y="-370" type="line" smooth="yes"/>
      <point x="471" y="-370"/>
      <point x="490" y="-343"/>
      <point x="490" y="-313" type="curve" smooth="yes"/>
      <point x="490" y="-278"/>
      <point x="477" y="-248"/>
      <point x="442" y="-248" type="curve" smooth="yes"/>
      <point x="341" y="-248" type="line"/>
      <point x="341" y="103" type="line"/>
      <point x="397" y="48"/>
      <point x="470" y="10"/>
      <point x="568" y="10" type="curve" smooth="yes"/>
      <point x="790" y="10"/>
      <point x="933" y="183"/>
      <point x="933" y="430" type="curve" smooth="yes"/>
      <point x="933" y="674"/>
      <point x="804" y="849"/>
      <point x="583" y="849" type="curve" smooth="yes"/>
      <point x="460" y="849"/>
      <point x="358" y="780"/>
      <point x="325" y="686" type="curve"/>
      <point x="309" y="816" type="line"/>
      <point x="309" y="836"/>
      <point x="293" y="849"/>
      <point x="279" y="849" type="curve" smooth="yes"/>
      <point x="274" y="849"/>
      <point x="273" y="847"/>
      <point x="88" y="792" type="curve"/>
      <point x="64" y="784"/>
      <point x="50" y="765"/>
      <point x="50" y="734" type="curve" smooth="yes"/>
      <point x="50" y="706"/>
      <point x="81" y="679"/>
      <point x="107" y="679" type="curve" smooth="yes"/>
      <point x="111" y="679"/>
      <point x="116" y="680"/>
      <point x="199" y="704" type="curve"/>
      <point x="199" y="-248" type="line"/>
      <point x="123" y="-248" type="line" smooth="yes"/>
      <point x="88" y="-248"/>
      <point x="71" y="-277"/>
      <point x="71" y="-311" type="curve" smooth="yes"/>
      <point x="71" y="-346"/>
      <point x="89" y="-370"/>
    </contour>
    <contour>
      <point x="570" y="128" type="curve" smooth="yes"/>
      <point x="469" y="128"/>
      <point x="392" y="164"/>
      <point x="341" y="223" type="curve"/>
      <point x="341" y="608" type="line"/>
      <point x="390" y="681"/>
      <point x="466" y="731"/>
      <point x="572" y="731" type="curve" smooth="yes"/>
      <point x="709" y="731"/>
      <point x="778" y="594"/>
      <point x="778" y="430" type="curve" smooth="yes"/>
      <point x="778" y="267"/>
      <point x="706" y="128"/>
    </contour>
  </outline>
</glyph>
<glyph name="q" format="1">
  <advance width="914.0"/>
  <unicode hex="0071"/>
  <outline>
    <contour>
      <point x="525.0" y="-370.0" type="curve" smooth="yes"/>
      <point x="840.0" y="-370.0" type="line" smooth="yes"/>
      <point x="878.0" y="-370.0"/>
      <point x="896.0" y="-346.0"/>
      <point x="896.0" y="-311.0" type="curve" smooth="yes"/>
      <point x="896.0" y="-277.0"/>
      <point x="880.0" y="-248.0"/>
      <point x="845.0" y="-248.0" type="curve" smooth="yes"/>
      <point x="768.0" y="-248.0" type="line"/>
      <point x="768.0" y="738.0" type="line" smooth="yes"/>
      <point x="768.0" y="774.0"/>
      <point x="756.0" y="810.0"/>
      <point x="723.0" y="810.0" type="curve" smooth="yes"/>
      <point x="659.0" y="810.0"/>
      <point x="657.0" y="778.0"/>
      <point x="648.0" y="722.0" type="curve"/>
      <point x="598.0" y="788.0"/>
      <point x="515.0" y="848.0"/>
      <point x="418.0" y="848.0" type="curve" smooth="yes"/>
      <point x="206.0" y="848.0"/>
      <point x="85.0" y="670.0"/>
      <point x="85.0" y="429.0" type="curve" smooth="yes"/>
      <point x="85.0" y="190.0"/>
      <point x="217.0" y="10.0"/>
      <point x="435.0" y="10.0" type="curve" smooth="yes"/>
      <point x="520.0" y="10.0"/>
      <point x="580.0" y="49.0"/>
      <point x="626.0" y="103.0" type="curve"/>
      <point x="626.0" y="-248.0" type="line"/>
      <point x="524.0" y="-248.0" type="line" smooth="yes"/>
      <point x="490.0" y="-248.0"/>
      <point x="478.0" y="-279.0"/>
      <point x="478.0" y="-313.0" type="curve" smooth="yes"/>
      <point x="478.0" y="-343.0"/>
      <point x="495.0" y="-370.0"/>
    </contour>
    <contour>
      <point x="433.0" y="128.0" type="curve" smooth="yes"/>
      <point x="305.0" y="128.0"/>
      <point x="240.0" y="271.0"/>
      <point x="240.0" y="429.0" type="curve" smooth="yes"/>
      <point x="240.0" y="586.0"/>
      <point x="300.0" y="731.0"/>
      <point x="429.0" y="731.0" type="curve" smooth="yes"/>
      <point x="523.0" y="731.0"/>
      <point x="585.0" y="679.0"/>
      <point x="626.0" y="608.0" type="curve"/>
      <point x="626.0" y="223.0" type="line"/>
      <point x="583.0" y="166.0"/>
      <point x="522.0" y="128.0"/>
    </contour>
  </outline>
</glyph>
<glyph name="r" format="1">
  <advance width="758"/>
  <unicode hex="0072"/>
  <outline>
    <contour>
      <point x="121" y="0" type="curve" smooth="yes"/>
      <point x="511" y="0" type="line" smooth="yes"/>
      <point x="543" y="0"/>
      <point x="563" y="29"/>
      <point x="563" y="60" type="curve" smooth="yes"/>
      <point x="563" y="97"/>
      <point x="548" y="128"/>
      <point x="513" y="128" type="curve" smooth="yes"/>
      <point x="382" y="128" type="line"/>
      <point x="382" y="599" type="line"/>
      <point x="422" y="670"/>
      <point x="490" y="728"/>
      <point x="577" y="728" type="curve"/>
      <point x="577" y="649" type="line" smooth="yes"/>
      <point x="577" y="610"/>
      <point x="605" y="593"/>
      <point x="642" y="593" type="curve" smooth="yes"/>
      <point x="677" y="593"/>
      <point x="701" y="612"/>
      <point x="701" y="653" type="curve" smooth="yes"/>
      <point x="701" y="807" type="line" smooth="yes"/>
      <point x="701" y="841"/>
      <point x="673" y="860"/>
      <point x="655" y="860" type="curve" smooth="yes"/>
      <point x="463" y="860"/>
      <point x="353" y="761"/>
      <point x="282" y="617" type="curve"/>
      <point x="372" y="645" type="line"/>
      <point x="348" y="827" type="line"/>
      <point x="349" y="847"/>
      <point x="329" y="860"/>
      <point x="315" y="860" type="curve" smooth="yes"/>
      <point x="300" y="860"/>
      <point x="318" y="860"/>
      <point x="118" y="801" type="curve"/>
      <point x="89" y="793"/>
      <point x="76" y="772"/>
      <point x="76" y="740" type="curve" smooth="yes"/>
      <point x="76" y="711"/>
      <point x="109" y="682"/>
      <point x="136" y="682" type="curve" smooth="yes"/>
      <point x="139" y="682"/>
      <point x="145" y="684"/>
      <point x="233" y="709" type="curve"/>
      <point x="233" y="128" type="line"/>
      <point x="118" y="128" type="line" smooth="yes"/>
      <point x="79" y="128"/>
      <point x="63" y="97"/>
      <point x="63" y="62" type="curve" smooth="yes"/>
      <point x="63" y="25"/>
      <point x="82" y="0"/>
    </contour>
    <contour>
      <point x="740" y="0" type="move" name="bottom"/>
    </contour>
    <contour>
      <point x="740" y="840" type="move" name="top"/>
    </contour>
  </outline>
</glyph>
<glyph name="s" format="1">
  <advance width="822.0"/>
  <unicode hex="0073"/>
  <outline>
    <contour>
      <point x="482.0" y="-17.0" type="curve" smooth="yes"/>
      <point x="637.0" y="-17.0"/>
      <point x="735.0" y="63.0"/>
      <point x="735.0" y="212.0" type="curve" smooth="yes"/>
      <point x="735.0" y="376.0"/>
      <point x="616.0" y="420.0"/>
      <point x="503.0" y="466.0" type="curve" smooth="yes"/>
      <point x="366.0" y="522.0" type="line"/>
      <point x="293.0" y="543.0"/>
      <point x="258.0" y="573.0"/>
      <point x="258.0" y="627.0" type="curve" smooth="yes"/>
      <point x="258.0" y="698.0"/>
      <point x="320.0" y="731.0"/>
      <point x="384.0" y="731.0" type="curve" smooth="yes"/>
      <point x="464.0" y="731.0"/>
      <point x="617.0" y="680.0"/>
      <point x="607.0" y="580.0" type="curve"/>
      <point x="607.0" y="546.0"/>
      <point x="611.0" y="526.0"/>
      <point x="641.0" y="526.0" type="curve" smooth="yes"/>
      <point x="668.0" y="526.0"/>
      <point x="695.0" y="543.0"/>
      <point x="695.0" y="574.0" type="curve"/>
      <point x="698.0" y="775.0" type="line" smooth="yes"/>
      <point x="699.0" y="813.0"/>
      <point x="673.0" y="830.0"/>
      <point x="641.0" y="830.0" type="curve" smooth="yes"/>
      <point x="603.0" y="830.0"/>
      <point x="586.0" y="807.0"/>
      <point x="586.0" y="782.0" type="curve" smooth="yes"/>
      <point x="586.0" y="723.0" type="line"/>
      <point x="551.0" y="790.0"/>
      <point x="469.0" y="828.0"/>
      <point x="374.0" y="828.0" type="curve" smooth="yes"/>
      <point x="257.0" y="828.0"/>
      <point x="122.0" y="771.0"/>
      <point x="122.0" y="613.0" type="curve" smooth="yes"/>
      <point x="122.0" y="466.0"/>
      <point x="238.0" y="423.0"/>
      <point x="327.0" y="389.0" type="curve" smooth="yes"/>
      <point x="475.0" y="333.0" type="line" smooth="yes"/>
      <point x="537.0" y="310.0"/>
      <point x="591.0" y="287.0"/>
      <point x="591.0" y="203.0" type="curve" smooth="yes"/>
      <point x="591.0" y="114.0"/>
      <point x="529.0" y="87.0"/>
      <point x="455.0" y="87.0" type="curve" smooth="yes"/>
      <point x="354.0" y="87.0"/>
      <point x="207.0" y="137.0"/>
      <point x="201.0" y="277.0" type="curve" smooth="yes"/>
      <point x="200.0" y="294.0"/>
      <point x="203.0" y="332.0"/>
      <point x="151.0" y="332.0" type="curve" smooth="yes"/>
      <point x="119.0" y="332.0"/>
      <point x="94.0" y="317.0"/>
      <point x="94.0" y="288.0" type="curve"/>
      <point x="94.0" y="53.0" type="line" smooth="yes"/>
      <point x="94.0" y="16.0"/>
      <point x="122.0" y="2.0"/>
      <point x="157.0" y="2.0" type="curve" smooth="yes"/>
      <point x="189.0" y="2.0"/>
      <point x="214.0" y="13.0"/>
      <point x="215.0" y="73.0" type="curve"/>
      <point x="215.0" y="75.0" type="line"/>
      <point x="259.0" y="13.0"/>
      <point x="387.0" y="-17.0"/>
    </contour>
    <contour>
      <point x="669.0" y="-5" type="move" name="bottom"/>
    </contour>
    <contour>
      <point x="669.0" y="802" type="move" name="top"/>
    </contour>
  </outline>
</glyph>
<glyph name="t" format="1">
  <advance width="581"/>
  <unicode hex="0074"/>
  <outline>
    <contour>
      <point x="358" y="-17" type="curve" smooth="yes"/>
      <point x="435" y="-17"/>
      <point x="538" y="36"/>
      <point x="538" y="122" type="curve" smooth="yes"/>
      <point x="538" y="152"/>
      <point x="518" y="177"/>
      <point x="488" y="177" type="curve" smooth="yes"/>
      <point x="428" y="177"/>
      <point x="461" y="99"/>
      <point x="392" y="99" type="curve" smooth="yes"/>
      <point x="357" y="99"/>
      <point x="334" y="128"/>
      <point x="334" y="204" type="curve" smooth="yes"/>
      <point x="334" y="692" type="line"/>
      <point x="447" y="692" type="line" smooth="yes"/>
      <point x="479" y="692"/>
      <point x="498" y="721"/>
      <point x="498" y="752" type="curve" smooth="yes"/>
      <point x="498" y="788"/>
      <point x="484" y="819"/>
      <point x="448" y="819" type="curve" smooth="yes"/>
      <point x="334" y="819" type="line"/>
      <point x="333" y="1055" type="line"/>
      <point x="333" y="1086"/>
      <point x="292" y="1104"/>
      <point x="274" y="1104" type="curve" smooth="yes"/>
      <point x="192" y="1104"/>
      <point x="190" y="909"/>
      <point x="190" y="819" type="curve"/>
      <point x="100" y="819" type="line" smooth="yes"/>
      <point x="62" y="819"/>
      <point x="46" y="788"/>
      <point x="46" y="754" type="curve" smooth="yes"/>
      <point x="46" y="717"/>
      <point x="65" y="692"/>
      <point x="103" y="692" type="curve" smooth="yes"/>
      <point x="190" y="692" type="line"/>
      <point x="190" y="181" type="line" smooth="yes"/>
      <point x="190" y="75"/>
      <point x="268" y="-17"/>
    </contour>
    <contour>
      <point x="764" y="2" type="move" name="bottom"/>
    </contour>
    <contour>
      <point x="764" y="421" type="move" name="center"/>
    </contour>
  </outline>
</glyph>
<glyph name="u" format="1">
  <advance width="1029.0"/>
  <unicode hex="0075"/>
  <outline>
    <contour>
      <point x="423.0" y="-16.0" type="curve" smooth="yes"/>
      <point x="536.0" y="-16.0"/>
      <point x="647.0" y="50.0"/>
      <point x="696.0" y="133.0" type="curve"/>
      <point x="708.0" y="62.0" type="line" smooth="yes"/>
      <point x="716.0" y="15.0"/>
      <point x="730.0" y="-1.0"/>
      <point x="756.0" y="-1.0" type="curve"/>
      <point x="934.0" y="20.0" type="line"/>
      <point x="959.0" y="27.0"/>
      <point x="970.0" y="50.0"/>
      <point x="970.0" y="81.0" type="curve" smooth="yes"/>
      <point x="970.0" y="112.0"/>
      <point x="953.0" y="138.0"/>
      <point x="924.0" y="138.0" type="curve" smooth="yes"/>
      <point x="839.0" y="138.0" type="line"/>
      <point x="839.0" y="820.0" type="line" smooth="yes"/>
      <point x="839.0" y="843.0"/>
      <point x="826.0" y="856.0"/>
      <point x="805.0" y="856.0" type="curve" smooth="yes"/>
      <point x="796.0" y="856.0"/>
      <point x="793.0" y="854.0"/>
      <point x="571.0" y="797.0" type="curve" smooth="yes"/>
      <point x="545.0" y="790.0"/>
      <point x="532.0" y="766.0"/>
      <point x="532.0" y="736.0" type="curve" smooth="yes"/>
      <point x="532.0" y="707.0"/>
      <point x="563.0" y="679.0"/>
      <point x="589.0" y="679.0" type="curve" smooth="yes"/>
      <point x="600.0" y="679.0"/>
      <point x="602.0" y="682.0"/>
      <point x="690.0" y="706.0" type="curve"/>
      <point x="690.0" y="256.0" type="line"/>
      <point x="657.0" y="175.0"/>
      <point x="570.0" y="106.0"/>
      <point x="455.0" y="106.0" type="curve" smooth="yes"/>
      <point x="373.0" y="106.0"/>
      <point x="334.0" y="185.0"/>
      <point x="334.0" y="290.0" type="curve" smooth="yes"/>
      <point x="334.0" y="820.0" type="line" smooth="yes"/>
      <point x="334.0" y="843.0"/>
      <point x="321.0" y="856.0"/>
      <point x="300.0" y="856.0" type="curve" smooth="yes"/>
      <point x="292.0" y="856.0"/>
      <point x="288.0" y="854.0"/>
      <point x="67.0" y="797.0" type="curve" smooth="yes"/>
      <point x="43.0" y="791.0"/>
      <point x="28.0" y="770.0"/>
      <point x="28.0" y="736.0" type="curve" smooth="yes"/>
      <point x="28.0" y="707.0"/>
      <point x="60.0" y="679.0"/>
      <point x="85.0" y="679.0" type="curve" smooth="yes"/>
      <point x="93.0" y="679.0"/>
      <point x="87.0" y="679.0"/>
      <point x="186.0" y="706.0" type="curve"/>
      <point x="186.0" y="277.0" type="line" smooth="yes"/>
      <point x="186.0" y="104.0"/>
      <point x="274.0" y="-16.0"/>
    </contour>
    <contour>
      <point x="1243.0" y="9" type="move" name="ogonek"/>
    </contour>
    <contour>
      <point x="713.0" y="835" type="move" name="top"/>
    </contour>
  </outline>
</glyph>
<glyph name="v" format="1">
  <advance width="985.0"/>
  <unicode hex="0076"/>
  <outline>
    <contour>
      <point x="494.0" y="0.0" type="curve" smooth="yes"/>
      <point x="543.0" y="0.0"/>
      <point x="559.0" y="44.0"/>
      <point x="578.0" y="85.0" type="curve"/>
      <point x="824.0" y="692.0" type="line"/>
      <point x="912.0" y="692.0" type="line" smooth="yes"/>
      <point x="945.0" y="692.0"/>
      <point x="965.0" y="722.0"/>
      <point x="965.0" y="758.0" type="curve" smooth="yes"/>
      <point x="965.0" y="795.0"/>
      <point x="945.0" y="820.0"/>
      <point x="907.0" y="820.0" type="curve" smooth="yes"/>
      <point x="640.0" y="820.0" type="line" smooth="yes"/>
      <point x="610.0" y="820.0"/>
      <point x="588.0" y="791.0"/>
      <point x="588.0" y="759.0" type="curve" smooth="yes"/>
      <point x="588.0" y="724.0"/>
      <point x="605.0" y="692.0"/>
      <point x="640.0" y="692.0" type="curve" smooth="yes"/>
      <point x="697.0" y="692.0" type="line"/>
      <point x="516.0" y="197.0" type="line"/>
      <point x="319.0" y="692.0" type="line"/>
      <point x="386.0" y="692.0" type="line" smooth="yes"/>
      <point x="420.0" y="692.0"/>
      <point x="437.0" y="723.0"/>
      <point x="437.0" y="759.0" type="curve" smooth="yes"/>
      <point x="437.0" y="791.0"/>
      <point x="415.0" y="820.0"/>
      <point x="385.0" y="820.0" type="curve" smooth="yes"/>
      <point x="77.0" y="820.0" type="line" smooth="yes"/>
      <point x="40.0" y="820.0"/>
      <point x="20.0" y="795.0"/>
      <point x="20.0" y="758.0" type="curve" smooth="yes"/>
      <point x="20.0" y="722.0"/>
      <point x="40.0" y="692.0"/>
      <point x="74.0" y="692.0" type="curve" smooth="yes"/>
      <point x="145.0" y="692.0" type="line"/>
      <point x="416.0" y="89.0" type="line" smooth="yes"/>
      <point x="436.0" y="44.0"/>
      <point x="452.0" y="0.0"/>
    </contour>
  </outline>
</glyph>
<glyph name="w" format="1">
  <advance width="1435.0"/>
  <unicode hex="0077"/>
  <outline>
    <contour>
      <point x="498.0" y="-10.0" type="curve" smooth="yes"/>
      <point x="524.0" y="-10.0"/>
      <point x="548.0" y="18.0"/>
      <point x="571.0" y="74.0" type="curve"/>
      <point x="721.0" y="436.0" type="line"/>
      <point x="894.0" y="68.0" type="line"/>
      <point x="913.0" y="17.0"/>
      <point x="935.0" y="-10.0"/>
      <point x="956.0" y="-10.0" type="curve" smooth="yes"/>
      <point x="981.0" y="-10.0"/>
      <point x="1001.0" y="22.0"/>
      <point x="1024.0" y="74.0" type="curve" smooth="yes"/>
      <point x="1296.0" y="692.0" type="line"/>
      <point x="1365.0" y="692.0" type="line" smooth="yes"/>
      <point x="1400.0" y="692.0"/>
      <point x="1420.0" y="723.0"/>
      <point x="1420.0" y="759.0" type="curve" smooth="yes"/>
      <point x="1420.0" y="797.0"/>
      <point x="1399.0" y="823.0"/>
      <point x="1362.0" y="823.0" type="curve" smooth="yes"/>
      <point x="1121.0" y="823.0" type="line" smooth="yes"/>
      <point x="1090.0" y="823.0"/>
      <point x="1068.0" y="793.0"/>
      <point x="1068.0" y="761.0" type="curve" smooth="yes"/>
      <point x="1068.0" y="724.0"/>
      <point x="1084.0" y="692.0"/>
      <point x="1120.0" y="692.0" type="curve" smooth="yes"/>
      <point x="1189.0" y="692.0" type="line"/>
      <point x="974.0" y="208.0" type="line"/>
      <point x="769.0" y="692.0" type="line"/>
      <point x="879.0" y="692.0" type="line" smooth="yes"/>
      <point x="915.0" y="692.0"/>
      <point x="931.0" y="724.0"/>
      <point x="931.0" y="761.0" type="curve" smooth="yes"/>
      <point x="931.0" y="793.0"/>
      <point x="909.0" y="823.0"/>
      <point x="877.0" y="823.0" type="curve" smooth="yes"/>
      <point x="561.0" y="823.0" type="line" smooth="yes"/>
      <point x="524.0" y="823.0"/>
      <point x="503.0" y="797.0"/>
      <point x="503.0" y="759.0" type="curve" smooth="yes"/>
      <point x="503.0" y="723.0"/>
      <point x="521.0" y="692.0"/>
      <point x="556.0" y="692.0" type="curve" smooth="yes"/>
      <point x="599.0" y="692.0" type="line"/>
      <point x="662.0" y="558.0" type="line"/>
      <point x="522.0" y="208.0" type="line"/>
      <point x="288.0" y="692.0" type="line"/>
      <point x="344.0" y="692.0" type="line" smooth="yes"/>
      <point x="378.0" y="692.0"/>
      <point x="396.0" y="724.0"/>
      <point x="396.0" y="761.0" type="curve" smooth="yes"/>
      <point x="396.0" y="793.0"/>
      <point x="373.0" y="823.0"/>
      <point x="341.0" y="823.0" type="curve" smooth="yes"/>
      <point x="74.0" y="823.0" type="line" smooth="yes"/>
      <point x="37.0" y="823.0"/>
      <point x="16.0" y="797.0"/>
      <point x="16.0" y="759.0" type="curve" smooth="yes"/>
      <point x="16.0" y="722.0"/>
      <point x="36.0" y="692.0"/>
      <point x="71.0" y="692.0" type="curve" smooth="yes"/>
      <point x="122.0" y="692.0" type="line"/>
      <point x="419.0" y="80.0" type="line" smooth="yes"/>
      <point x="449.0" y="18.0"/>
      <point x="473.0" y="-10.0"/>
    </contour>
  </outline>
</glyph>
<glyph name="x" format="1">
  <advance width="1108.0"/>
  <unicode hex="0078"/>
  <outline>
    <contour>
      <point x="102.0" y="0.0" type="curve" smooth="yes"/>
      <point x="381.0" y="0.0" type="line" smooth="yes"/>
      <point x="412.0" y="0.0"/>
      <point x="433.0" y="29.0"/>
      <point x="433.0" y="61.0" type="curve" smooth="yes"/>
      <point x="433.0" y="97.0"/>
      <point x="416.0" y="127.0"/>
      <point x="382.0" y="127.0" type="curve" smooth="yes"/>
      <point x="332.0" y="127.0" type="line"/>
      <point x="541.0" y="342.0" type="line"/>
      <point x="731.0" y="127.0" type="line"/>
      <point x="654.0" y="127.0" type="line" smooth="yes"/>
      <point x="619.0" y="127.0"/>
      <point x="604.0" y="97.0"/>
      <point x="604.0" y="62.0" type="curve" smooth="yes"/>
      <point x="604.0" y="26.0"/>
      <point x="621.0" y="0.0"/>
      <point x="659.0" y="0.0" type="curve" smooth="yes"/>
      <point x="1004.0" y="0.0" type="line" smooth="yes"/>
      <point x="1034.0" y="0.0"/>
      <point x="1053.0" y="29.0"/>
      <point x="1053.0" y="61.0" type="curve" smooth="yes"/>
      <point x="1053.0" y="97.0"/>
      <point x="1040.0" y="127.0"/>
      <point x="1006.0" y="127.0" type="curve" smooth="yes"/>
      <point x="936.0" y="127.0" type="line"/>
      <point x="641.0" y="433.0" type="line"/>
      <point x="898.0" y="692.0" type="line"/>
      <point x="1008.0" y="692.0" type="line" smooth="yes"/>
      <point x="1038.0" y="692.0"/>
      <point x="1060.0" y="722.0"/>
      <point x="1060.0" y="754.0" type="curve" smooth="yes"/>
      <point x="1060.0" y="789.0"/>
      <point x="1044.0" y="820.0"/>
      <point x="1009.0" y="820.0" type="curve" smooth="yes"/>
      <point x="711.0" y="820.0" type="line" smooth="yes"/>
      <point x="677.0" y="820.0"/>
      <point x="658.0" y="790.0"/>
      <point x="658.0" y="755.0" type="curve" smooth="yes"/>
      <point x="658.0" y="719.0"/>
      <point x="678.0" y="692.0"/>
      <point x="716.0" y="692.0" type="curve" smooth="yes"/>
      <point x="744.0" y="692.0" type="line"/>
      <point x="568.0" y="505.0" type="line"/>
      <point x="398.0" y="692.0" type="line"/>
      <point x="417.0" y="692.0" type="line" smooth="yes"/>
      <point x="447.0" y="692.0"/>
      <point x="468.0" y="722.0"/>
      <point x="468.0" y="754.0" type="curve" smooth="yes"/>
      <point x="468.0" y="790.0"/>
      <point x="453.0" y="820.0"/>
      <point x="418.0" y="820.0" type="curve" smooth="yes"/>
      <point x="111.0" y="820.0" type="line" smooth="yes"/>
      <point x="76.0" y="820.0"/>
      <point x="59.0" y="791.0"/>
      <point x="59.0" y="755.0" type="curve" smooth="yes"/>
      <point x="59.0" y="718.0"/>
      <point x="79.0" y="692.0"/>
      <point x="116.0" y="692.0" type="curve" smooth="yes"/>
      <point x="220.0" y="692.0" type="line"/>
      <point x="472.0" y="416.0" type="line"/>
      <point x="190.0" y="127.0" type="line"/>
      <point x="99.0" y="127.0" type="line" smooth="yes"/>
      <point x="64.0" y="127.0"/>
      <point x="45.0" y="98.0"/>
      <point x="45.0" y="62.0" type="curve" smooth="yes"/>
      <point x="45.0" y="25.0"/>
      <point x="65.0" y="0.0"/>
    </contour>
  </outline>
</glyph>
<glyph name="y" format="1">
  <advance width="920"/>
  <unicode hex="0079"/>
  <outline>
    <contour>
      <point x="268" y="-361" type="curve" smooth="yes"/>
      <point x="428" y="-361"/>
      <point x="486" y="-157"/>
      <point x="526" y="-42" type="curve"/>
      <point x="775" y="692" type="line"/>
      <point x="846" y="692" type="line" smooth="yes"/>
      <point x="879" y="692"/>
      <point x="896" y="722"/>
      <point x="896" y="754" type="curve" smooth="yes"/>
      <point x="896" y="788"/>
      <point x="878" y="813"/>
      <point x="842" y="813" type="curve" smooth="yes"/>
      <point x="593" y="813" type="line" smooth="yes"/>
      <point x="565" y="813"/>
      <point x="544" y="785"/>
      <point x="544" y="755" type="curve" smooth="yes"/>
      <point x="544" y="722"/>
      <point x="560" y="692"/>
      <point x="592" y="692" type="curve" smooth="yes"/>
      <point x="660" y="692" type="line"/>
      <point x="503" y="183" type="line"/>
      <point x="294" y="692" type="line"/>
      <point x="362" y="692" type="line" smooth="yes"/>
      <point x="394" y="692"/>
      <point x="409" y="721"/>
      <point x="409" y="755" type="curve" smooth="yes"/>
      <point x="409" y="785"/>
      <point x="389" y="813"/>
      <point x="361" y="813" type="curve" smooth="yes"/>
      <point x="74" y="813" type="line" smooth="yes"/>
      <point x="41" y="813"/>
      <point x="21" y="789"/>
      <point x="21" y="754" type="curve" smooth="yes"/>
      <point x="21" y="721"/>
      <point x="38" y="692"/>
      <point x="70" y="692" type="curve" smooth="yes"/>
      <point x="142" y="692" type="line"/>
      <point x="438" y="37" type="line"/>
      <point x="403" y="-72" type="line"/>
      <point x="373" y="-145"/>
      <point x="325" y="-210"/>
      <point x="259" y="-210" type="curve"/>
      <point x="204" y="-211"/>
      <point x="184" y="-255"/>
      <point x="184" y="-289" type="curve" smooth="yes"/>
      <point x="184" y="-326"/>
      <point x="220" y="-361"/>
    </contour>
    <contour>
      <point x="660" y="831" type="move" name="top"/>
    </contour>
  </outline>
</glyph>
<glyph name="z" format="1">
  <advance width="938"/>
  <unicode hex="007A"/>
  <outline>
    <contour>
      <point x="124" y="0" type="curve" smooth="yes"/>
      <point x="780" y="0" type="line" smooth="yes"/>
      <point x="801" y="0"/>
      <point x="826" y="23"/>
      <point x="829" y="49" type="curve"/>
      <point x="867" y="334" type="line"/>
      <point x="867" y="368"/>
      <point x="842" y="384"/>
      <point x="801" y="384" type="curve" smooth="yes"/>
      <point x="774" y="384"/>
      <point x="750" y="368"/>
      <point x="748" y="339" type="curve"/>
      <point x="725" y="128" type="line"/>
      <point x="281" y="128" type="line"/>
      <point x="762" y="692" type="line" smooth="yes"/>
      <point x="778" y="710"/>
      <point x="826" y="756"/>
      <point x="826" y="788" type="curve" smooth="yes"/>
      <point x="826" y="807"/>
      <point x="813" y="820"/>
      <point x="777" y="820" type="curve" smooth="yes"/>
      <point x="171" y="820" type="line" smooth="yes"/>
      <point x="147" y="820"/>
      <point x="128" y="796"/>
      <point x="126" y="771" type="curve" smooth="yes"/>
      <point x="110" y="558" type="line" smooth="yes"/>
      <point x="107" y="520"/>
      <point x="125" y="502"/>
      <point x="165" y="502" type="curve" smooth="yes"/>
      <point x="200" y="502"/>
      <point x="220" y="520"/>
      <point x="225" y="553" type="curve"/>
      <point x="232" y="692" type="line"/>
      <point x="570" y="692" type="line"/>
      <point x="87" y="116" type="line" smooth="yes"/>
      <point x="77" y="104"/>
      <point x="70" y="86"/>
      <point x="70" y="62" type="curve" smooth="yes"/>
      <point x="70" y="25"/>
      <point x="88" y="0"/>
    </contour>
    <contour>
      <point x="745" y="841" type="move" name="top"/>
    </contour>
  </outline>
</glyph>
<glyph name="braceleft" format="1">
  <advance width="564"/>
  <unicode hex="007B"/>
  <outline>
    <contour>
      <point x="443" y="-223" type="curve" smooth="yes"/>
      <point x="474" y="-223"/>
      <point x="504" y="-196"/>
      <point x="504" y="-165" type="curve" smooth="yes"/>
      <point x="504" y="-134"/>
      <point x="474" y="-108"/>
      <point x="443" y="-108" type="curve" smooth="yes"/>
      <point x="310" y="-108"/>
      <point x="279" y="-50"/>
      <point x="279" y="31" type="curve" smooth="yes"/>
      <point x="279" y="127"/>
      <point x="319" y="254"/>
      <point x="319" y="359" type="curve" smooth="yes"/>
      <point x="319" y="409"/>
      <point x="303" y="472"/>
      <point x="224" y="489" type="curve"/>
      <point x="303" y="505"/>
      <point x="319" y="568"/>
      <point x="319" y="618" type="curve" smooth="yes"/>
      <point x="319" y="723"/>
      <point x="279" y="850"/>
      <point x="279" y="946" type="curve" smooth="yes"/>
      <point x="279" y="1027"/>
      <point x="310" y="1085"/>
      <point x="443" y="1085" type="curve" smooth="yes"/>
      <point x="474" y="1085"/>
      <point x="504" y="1111"/>
      <point x="504" y="1142" type="curve" smooth="yes"/>
      <point x="504" y="1173"/>
      <point x="474" y="1200"/>
      <point x="443" y="1200" type="curve" smooth="yes"/>
      <point x="224" y="1200"/>
      <point x="157" y="1096"/>
      <point x="157" y="969" type="curve" smooth="yes"/>
      <point x="157" y="850"/>
      <point x="201" y="713"/>
      <point x="201" y="617" type="curve" smooth="yes"/>
      <point x="201" y="576"/>
      <point x="184" y="546"/>
      <point x="115" y="546" type="curve" smooth="yes"/>
      <point x="90" y="546"/>
      <point x="61" y="520"/>
      <point x="61" y="489" type="curve" smooth="yes"/>
      <point x="61" y="457"/>
      <point x="89" y="431"/>
      <point x="115" y="431" type="curve" smooth="yes"/>
      <point x="184" y="431"/>
      <point x="201" y="401"/>
      <point x="201" y="360" type="curve" smooth="yes"/>
      <point x="201" y="264"/>
      <point x="157" y="127"/>
      <point x="157" y="8" type="curve" smooth="yes"/>
      <point x="157" y="-119"/>
      <point x="224" y="-223"/>
    </contour>
  </outline>
</glyph>
<glyph name="bar" format="1">
  <advance width="534"/>
  <unicode hex="007C"/>
  <outline>
    <contour>
      <point x="267" y="-164" type="curve" smooth="yes"/>
      <point x="306" y="-164"/>
      <point x="354" y="-140"/>
      <point x="354" y="-98" type="curve" smooth="yes"/>
      <point x="354" y="1769" type="line"/>
      <point x="349" y="1815"/>
      <point x="317" y="1841"/>
      <point x="268" y="1841" type="curve" smooth="yes"/>
      <point x="223" y="1841"/>
      <point x="179" y="1817"/>
      <point x="179" y="1769" type="curve" smooth="yes"/>
      <point x="179" y="-82" type="line" smooth="yes"/>
      <point x="179" y="-142"/>
      <point x="216" y="-164"/>
    </contour>
  </outline>
</glyph>
<glyph name="asciitilde" format="1">
  <advance width="954.0"/>
  <unicode hex="007E"/>
  <outline>
    <contour>
      <point x="652.0" y="668.0" type="curve" smooth="yes"/>
      <point x="751.0" y="668.0"/>
      <point x="830.0" y="754.0"/>
      <point x="830.0" y="878.0" type="curve" smooth="yes"/>
      <point x="830.0" y="904.0"/>
      <point x="805.0" y="918.0"/>
      <point x="779.0" y="918.0" type="curve" smooth="yes"/>
      <point x="727.0" y="918.0"/>
      <point x="724.0" y="798.0"/>
      <point x="627.0" y="798.0" type="curve" smooth="yes"/>
      <point x="569.0" y="798.0"/>
      <point x="447.0" y="932.0"/>
      <point x="282.0" y="932.0" type="curve" smooth="yes"/>
      <point x="199.0" y="932.0"/>
      <point x="133.0" y="843.0"/>
      <point x="133.0" y="722.0" type="curve" smooth="yes"/>
      <point x="133.0" y="695.0"/>
      <point x="158.0" y="683.0"/>
      <point x="183.0" y="683.0" type="curve" smooth="yes"/>
      <point x="222.0" y="683.0"/>
      <point x="222.0" y="802.0"/>
      <point x="304.0" y="802.0" type="curve" smooth="yes"/>
      <point x="391.0" y="802.0"/>
      <point x="519.0" y="668.0"/>
    </contour>
  </outline>
</glyph>
<glyph name="cent" format="1">
  <advance width="895.0"/>
  <unicode hex="00A2"/>
  <outline>
    <contour>
      <point x="515.0" y="-217.0" type="curve" smooth="yes"/>
      <point x="538.0" y="-217.0"/>
      <point x="562.0" y="-203.0"/>
      <point x="562.0" y="-176.0" type="curve" smooth="yes"/>
      <point x="562.0" y="1010.0" type="line" smooth="yes"/>
      <point x="562.0" y="1036.0"/>
      <point x="542.0" y="1049.0"/>
      <point x="514.0" y="1049.0" type="curve" smooth="yes"/>
      <point x="489.0" y="1049.0"/>
      <point x="466.0" y="1037.0"/>
      <point x="466.0" y="1010.0" type="curve" smooth="yes"/>
      <point x="466.0" y="-170.0" type="line" smooth="yes"/>
      <point x="466.0" y="-203.0"/>
      <point x="490.0" y="-217.0"/>
    </contour>
    <component base="c" xOffset="1.0"/>
  </outline>
</glyph>
<glyph name="sterling" format="1">
  <advance width="970"/>
  <unicode hex="00A3"/>
  <outline>
    <contour>
      <point x="485" y="717" type="line"/>
      <point x="456" y="787"/>
      <point x="425" y="866"/>
      <point x="425" y="952" type="curve" smooth="yes"/>
      <point x="425" y="1049"/>
      <point x="456" y="1121"/>
      <point x="543" y="1121" type="curve" smooth="yes"/>
      <point x="630" y="1121"/>
      <point x="634" y="1006"/>
      <point x="727" y="1006" type="curve" smooth="yes"/>
      <point x="767" y="1006"/>
      <point x="805" y="1038"/>
      <point x="805" y="1085" type="curve" smooth="yes"/>
      <point x="805" y="1155"/>
      <point x="681" y="1250"/>
      <point x="541" y="1250" type="curve" smooth="yes"/>
      <point x="394" y="1250"/>
      <point x="265" y="1133"/>
      <point x="265" y="969" type="curve" smooth="yes"/>
      <point x="265" y="873"/>
      <point x="287" y="789"/>
      <point x="315" y="717" type="curve"/>
      <point x="183" y="717" type="line" smooth="yes"/>
      <point x="150" y="717"/>
      <point x="130" y="698"/>
      <point x="130" y="667" type="curve" smooth="yes"/>
      <point x="130" y="636"/>
      <point x="149" y="614"/>
      <point x="184" y="614" type="curve" smooth="yes"/>
      <point x="362" y="614" type="line"/>
      <point x="396" y="520"/>
      <point x="429" y="452"/>
      <point x="429" y="351" type="curve" smooth="yes"/>
      <point x="429" y="337"/>
      <point x="429" y="324"/>
      <point x="429" y="311" type="curve"/>
      <point x="397" y="337"/>
      <point x="363" y="356"/>
      <point x="303" y="356" type="curve" smooth="yes"/>
      <point x="183" y="356"/>
      <point x="84" y="284"/>
      <point x="84" y="163" type="curve" smooth="yes"/>
      <point x="84" y="58"/>
      <point x="158" y="-16"/>
      <point x="264" y="-16" type="curve" smooth="yes"/>
      <point x="367" y="-16"/>
      <point x="435" y="48"/>
      <point x="472" y="112" type="curve"/>
      <point x="521" y="56"/>
      <point x="596" y="-15"/>
      <point x="701" y="-15" type="curve" smooth="yes"/>
      <point x="786" y="-15"/>
      <point x="913" y="28"/>
      <point x="913" y="122" type="curve" smooth="yes"/>
      <point x="913" y="151"/>
      <point x="887" y="181"/>
      <point x="862" y="181" type="curve" smooth="yes"/>
      <point x="805" y="181"/>
      <point x="782" y="106"/>
      <point x="698" y="106" type="curve" smooth="yes"/>
      <point x="617" y="106"/>
      <point x="566" y="176"/>
      <point x="528" y="228" type="curve"/>
      <point x="544" y="280"/>
      <point x="553" y="333"/>
      <point x="553" y="389" type="curve" smooth="yes"/>
      <point x="553" y="469"/>
      <point x="555" y="547"/>
      <point x="531" y="614" type="curve"/>
      <point x="698" y="614" type="line" smooth="yes"/>
      <point x="732" y="614"/>
      <point x="752" y="636"/>
      <point x="752" y="667" type="curve" smooth="yes"/>
      <point x="752" y="698"/>
      <point x="732" y="717"/>
      <point x="698" y="717" type="curve" smooth="yes"/>
    </contour>
    <contour>
      <point x="267" y="98" type="curve" smooth="yes"/>
      <point x="228" y="98"/>
      <point x="183" y="118"/>
      <point x="183" y="166" type="curve" smooth="yes"/>
      <point x="183" y="222"/>
      <point x="228" y="248"/>
      <point x="287" y="248" type="curve" smooth="yes"/>
      <point x="337" y="248"/>
      <point x="370" y="212"/>
      <point x="391" y="184" type="curve"/>
      <point x="374" y="142"/>
      <point x="337" y="98"/>
    </contour>
  </outline>
</glyph>
<glyph name="currency" format="1">
  <advance width="782.0"/>
  <unicode hex="00A4"/>
  <outline>
    <contour>
      <point x="172.0" y="271.0" type="curve" smooth="yes"/>
      <point x="251.0" y="358.0" type="line"/>
      <point x="286.0" y="330.0"/>
      <point x="332.0" y="313.0"/>
      <point x="388.0" y="313.0" type="curve" smooth="yes"/>
      <point x="446.0" y="313.0"/>
      <point x="493.0" y="332.0"/>
      <point x="529.0" y="362.0" type="curve"/>
      <point x="609.0" y="273.0" type="line" smooth="yes"/>
      <point x="639.0" y="240.0"/>
      <point x="676.0" y="284.0"/>
      <point x="648.0" y="315.0" type="curve" smooth="yes"/>
      <point x="567.0" y="405.0" type="line"/>
      <point x="598.0" y="450.0"/>
      <point x="615.0" y="506.0"/>
      <point x="615.0" y="563.0" type="curve" smooth="yes"/>
      <point x="615.0" y="617.0"/>
      <point x="601.0" y="671.0"/>
      <point x="573.0" y="715.0" type="curve"/>
      <point x="649.0" y="799.0" type="line" smooth="yes"/>
      <point x="678.0" y="831.0"/>
      <point x="639.0" y="875.0"/>
      <point x="610.0" y="843.0" type="curve" smooth="yes"/>
      <point x="534.0" y="760.0" type="line"/>
      <point x="498.0" y="792.0"/>
      <point x="452.0" y="811.0"/>
      <point x="392.0" y="811.0" type="curve" smooth="yes"/>
      <point x="334.0" y="811.0"/>
      <point x="286.0" y="791.0"/>
      <point x="249.0" y="760.0" type="curve"/>
      <point x="173.0" y="845.0" type="line" smooth="yes"/>
      <point x="145.0" y="876.0"/>
      <point x="104.0" y="835.0"/>
      <point x="133.0" y="803.0" type="curve" smooth="yes"/>
      <point x="210.0" y="717.0" type="line"/>
      <point x="179.0" y="672.0"/>
      <point x="163.0" y="615.0"/>
      <point x="163.0" y="558.0" type="curve" smooth="yes"/>
      <point x="163.0" y="502.0"/>
      <point x="178.0" y="444.0"/>
      <point x="210.0" y="400.0" type="curve"/>
      <point x="133.0" y="314.0" type="line" smooth="yes"/>
      <point x="104.0" y="282.0"/>
      <point x="144.0" y="240.0"/>
    </contour>
    <contour>
      <point x="392.0" y="368.0" type="curve" smooth="yes"/>
      <point x="285.0" y="368.0"/>
      <point x="225.0" y="455.0"/>
      <point x="225.0" y="560.0" type="curve" smooth="yes"/>
      <point x="225.0" y="667.0"/>
      <point x="279.0" y="756.0"/>
      <point x="391.0" y="756.0" type="curve" smooth="yes"/>
      <point x="504.0" y="756.0"/>
      <point x="559.0" y="666.0"/>
      <point x="559.0" y="560.0" type="curve" smooth="yes"/>
      <point x="559.0" y="453.0"/>
      <point x="502.0" y="368.0"/>
    </contour>
  </outline>
</glyph>
